<svg width="964" height="329" viewBox="0 0 964 329" fill="none" xmlns="http://www.w3.org/2000/svg">
<g filter="url(#filter0_d)">
<rect x="30" y="30" width="894" height="259" rx="32" fill="#374C82"/>
</g>
<path d="M30.5 46C30.5 37.4396 37.4396 30.5 46 30.5H261.623L361.341 85.7066L261.441 288.5H46C37.4396 288.5 30.5 281.56 30.5 273V46Z" stroke="white" stroke-opacity="0.1"/>
<path d="M754.085 289L619 166L754.085 30" stroke="white" stroke-opacity="0.1"/>
<path d="M30 46C30 37.1634 37.1634 30 46 30H219.686L344 87L219.686 289H46C37.1634 289 30 281.837 30 273V46Z" fill="white" fill-opacity="0.02"/>
<path d="M30 62C30 44.3269 44.3269 30 62 30H219.686L515 254L219.686 289H62C44.3269 289 30 274.673 30 257V62Z" fill="#F7F9FF" fill-opacity="0.02"/>
<path d="M30.5 41C30.5 35.201 35.201 30.5 41 30.5H219.529L556.55 265.1L219.668 288.5H43C36.0964 288.5 30.5 282.904 30.5 276V41Z" stroke="white" stroke-opacity="0.05"/>
<path d="M923.5 273C923.5 281.837 916.337 289 907.5 289L793.97 289L674 69L793.97 30L907.5 30C916.337 30 923.5 37.1635 923.5 46L923.5 273Z" fill="white" fill-opacity="0.02"/>
<path d="M923 273C923 281.56 916.06 288.5 907.5 288.5L794.238 288.5L642.828 61.8391L794.022 30.5L907.5 30.5C916.06 30.5 923 37.4396 923 46L923 273Z" stroke="white" stroke-opacity="0.02"/>
<path d="M923.5 273C923.5 281.837 916.337 289 907.5 289L793.97 289L637.5 167.5L793.97 30L907.5 30C916.337 30 923.5 37.1635 923.5 46L923.5 273Z" fill="white" fill-opacity="0.02"/>
<defs>
<filter id="filter0_d" x="0" y="0" width="964" height="329" filterUnits="userSpaceOnUse" color-interpolation-filters="sRGB">
<feFlood flood-opacity="0" result="BackgroundImageFix"/>
<feColorMatrix in="SourceAlpha" type="matrix" values="0 0 0 0 0 0 0 0 0 0 0 0 0 0 0 0 0 0 127 0"/>
<feOffset dx="5" dy="5"/>
<feGaussianBlur stdDeviation="17.5"/>
<feColorMatrix type="matrix" values="0 0 0 0 0.215686 0 0 0 0 0.298039 0 0 0 0 0.509804 0 0 0 0.5 0"/>
<feBlend mode="normal" in2="BackgroundImageFix" result="effect1_dropShadow"/>
<feBlend mode="normal" in="SourceGraphic" in2="effect1_dropShadow" result="shape"/>
</filter>
</defs>
</svg>
