<svg width="137" height="159" viewBox="0 0 137 159" fill="none" xmlns="http://www.w3.org/2000/svg">
<path d="M95.4287 100.632C93.3596 101.223 91.4383 101.962 89.517 102.997C86.8568 104.77 85.2311 108.317 82.2753 109.648C79.3195 110.83 75.6248 109.5 72.5212 110.091C70.3043 110.534 68.2352 112.012 65.8706 112.899L79.0239 153.985C79.3195 154.724 80.0585 155.167 80.9452 154.871C81.2408 154.724 81.6841 154.428 81.8319 154.132L89.8126 138.614C90.256 137.875 91.1427 137.58 91.7339 138.023L107.252 146.004C107.991 146.299 108.878 146.004 109.173 145.265C109.321 144.969 109.321 144.526 109.321 144.23L95.4287 100.632Z" fill="#80E9FF"/>
<path d="M54.1989 109.943C51.0953 109.352 47.2528 110.682 44.4448 109.5C41.489 108.317 39.8633 104.623 37.203 102.849C35.2818 101.814 33.3605 101.076 31.2914 100.484L17.2513 144.083C16.9558 144.821 17.3991 145.708 18.2859 146.004C18.5815 146.152 19.0248 146.152 19.3204 145.856L34.8384 137.875C35.5774 137.58 36.4641 137.728 36.7597 138.467L44.7403 153.985C45.1837 154.723 46.0705 155.019 46.6616 154.576C46.9572 154.428 47.2528 154.132 47.4006 153.689L60.5539 112.603C58.6326 112.012 56.4158 110.386 54.1989 109.943Z" fill="#80E9FF"/>
<path d="M114.39 62.312C114.39 65.5634 111.729 68.5192 111.138 71.475C110.547 74.5786 111.877 78.4211 110.695 81.2292C109.513 84.185 105.818 85.8107 104.044 88.4709C102.271 91.1311 102.123 95.1214 99.9062 97.3383C97.6893 99.5551 93.699 99.7029 91.0387 101.476C88.3785 103.25 86.7528 106.797 83.797 108.127C80.8412 109.309 77.1465 107.979 74.0429 108.57C70.9393 109.162 68.1313 111.822 64.8799 111.822C61.6285 111.822 58.6727 109.162 55.7169 108.57C52.6133 107.979 48.7707 109.309 45.9627 108.127C43.0069 106.945 41.3812 103.25 38.721 101.476C36.0608 99.7029 32.0704 99.5551 29.8536 97.3383C27.6367 95.1214 27.4889 91.1311 25.7154 88.4709C23.942 85.8107 20.395 84.185 19.0649 81.2292C17.8826 78.2734 19.2127 74.5786 18.6215 71.475C18.0303 68.3714 15.3701 65.5634 15.3701 62.312C15.3701 59.0606 18.0303 56.1048 18.6215 53.149C19.2127 50.0454 17.8826 46.2029 19.0649 43.3948C20.2472 40.439 23.942 38.8133 25.7154 36.1531C27.4889 33.4929 27.6367 29.5025 29.8536 27.2857C32.0704 25.0688 36.0608 24.9211 38.721 23.1476C41.3812 21.3741 43.0069 17.8271 45.9627 16.497C48.9185 15.3147 52.6133 16.6448 55.7169 16.0536C58.8205 15.4625 61.6285 12.8022 64.8799 12.8022C68.1313 12.8022 71.0871 15.4625 74.0429 16.0536C77.1465 16.6448 80.989 15.3147 83.797 16.497C86.7528 17.6793 88.3785 21.3741 91.0387 23.1476C93.699 24.9211 97.6893 25.0688 99.9062 27.2857C102.123 29.5025 102.271 33.4929 104.044 36.1531C105.818 38.8133 109.365 40.439 110.695 43.3948C111.877 46.3506 110.547 50.0454 111.138 53.149C111.729 56.2526 114.39 59.0606 114.39 62.312Z" fill="#374C82"/>
<path d="M63.3592 32.353C46.0677 32.353 31.8799 46.3931 31.8799 63.8323C31.8799 81.2716 45.9199 95.3116 63.3592 95.3116C80.7985 95.3116 94.8385 81.2716 94.8385 63.8323C94.8385 46.3931 80.7985 32.353 63.3592 32.353Z" fill="#70D6F9"/>
<path d="M80.6432 158.566C80.4955 158.566 80.3477 158.566 80.1999 158.566C78.1308 158.418 76.3573 156.94 75.7662 155.019L62.6128 113.933C62.0216 112.012 63.0562 109.943 64.8297 109.352C65.5686 109.056 66.3076 108.76 67.0465 108.317C68.5244 107.43 70.1501 106.839 71.9236 106.396C73.6971 106.1 75.4706 106.1 77.2441 106.248C78.4264 106.396 79.7565 106.396 80.9388 106.1C81.9734 105.361 83.0079 104.475 83.7468 103.44C84.7814 102.11 86.1115 100.78 87.5894 99.7452C89.0673 98.8585 90.693 98.1195 92.4665 97.6762C93.0576 97.5284 93.6488 97.2328 94.0922 97.085C96.0134 96.3461 98.0825 97.2328 98.8214 99.1541C98.8214 99.1541 98.8215 99.3019 98.9692 99.3019L113.009 142.9C113.896 145.56 112.418 148.516 109.61 149.403C108.28 149.846 106.95 149.698 105.62 149.107L92.1709 142.161L85.2247 155.61C84.338 157.531 82.5645 158.566 80.6432 158.566ZM70.5935 114.82L81.0866 147.777L86.5549 136.988C87.885 134.476 90.9886 133.441 93.501 134.772L104.29 140.24L93.0576 105.361C92.6143 105.509 92.0231 105.805 91.5797 106.1C90.693 106.839 89.954 107.578 89.2151 108.465C86.5548 112.603 81.3822 114.82 76.5051 113.785C75.3228 113.638 74.2882 113.638 73.1059 113.785C72.367 113.933 71.4802 114.229 70.5935 114.82Z" fill="#E4EEFF"/>
<path d="M46.2114 158.566C44.2901 158.566 42.5166 157.532 41.6299 155.758L34.6838 142.309L21.2349 149.255C18.7224 150.586 15.6188 149.551 14.2887 147.039C13.6976 145.856 13.5498 144.378 13.9931 143.048L28.0332 99.45C28.6244 97.5288 30.6934 96.4942 32.6147 97.0854H32.7625C33.3537 97.2332 33.9448 97.5288 34.3882 97.6766C37.9352 98.5633 40.8909 100.632 43.1078 103.44C43.8467 104.475 44.7335 105.362 45.9158 106.101C47.0981 106.396 48.4283 106.396 49.6106 106.248C51.3841 106.101 53.1575 106.101 54.931 106.396C56.7045 106.84 58.3302 107.431 59.8081 108.317C60.547 108.761 61.286 109.056 62.0249 109.352C63.9462 110.091 64.833 112.012 64.2418 113.934L51.0885 155.019C50.4973 156.941 48.7238 158.418 46.6548 158.566C46.507 158.566 46.3592 158.566 46.2114 158.566ZM35.5705 134.181C37.4918 134.181 39.2653 135.215 40.152 136.989L45.6202 147.778L56.1133 114.82C55.2266 114.377 54.3399 113.934 53.3053 113.638C52.123 113.49 51.0885 113.49 49.9062 113.638C45.0291 114.672 40.0042 112.603 37.1962 108.317C36.4572 107.431 35.7183 106.692 34.8316 105.953C34.3882 105.657 33.9448 105.509 33.3537 105.214L22.1216 140.092L32.9103 134.624C33.9448 134.329 34.8316 134.181 35.5705 134.181Z" fill="#E4EEFF"/>
<path d="M63.1746 99.3481C43.814 99.3481 28.0005 83.6824 28.0005 64.1741C28.0005 44.8135 43.6662 29 63.1746 29C82.5351 29 98.3486 44.6658 98.3486 64.1741C98.3486 83.6824 82.6829 99.3481 63.1746 99.3481ZM63.1746 36.5373C47.8044 36.5373 35.39 48.9517 35.39 64.3218C35.39 79.692 47.8044 92.1064 63.1746 92.1064C78.5447 92.1064 90.9591 79.692 90.9591 64.3218C90.9591 48.9517 78.5447 36.5373 63.1746 36.5373Z" fill="#E4EEFF"/>
<g filter="url(#filter0_d)">
<path d="M63.3522 117.037C60.8398 116.889 58.4751 116.15 56.4061 114.82C55.5193 114.229 54.4848 113.934 53.4503 113.638C52.2679 113.49 51.2334 113.49 50.0511 113.638C45.174 114.672 40.1492 112.603 37.3412 108.317C36.1588 106.396 34.2376 105.214 32.0207 104.771C27.1436 103.884 23.3011 100.041 22.2666 95.0164C21.971 93.9818 21.5276 92.9473 20.9365 91.9128C20.1975 91.026 19.4586 90.2871 18.5718 89.5481C16.6506 88.0702 15.0249 86.1489 13.9903 83.9321C13.2514 81.7152 12.9558 79.2028 13.3992 76.8382C13.547 75.6558 13.547 74.6213 13.3992 73.439C13.1036 72.4044 12.6602 71.3699 12.2169 70.4832C10.8867 68.4141 10.1478 66.0495 10 63.537C10.1478 61.0246 10.8867 58.66 12.2169 56.5909C12.808 55.7041 13.1036 54.6696 13.3992 53.6351C13.547 52.4528 13.547 51.4182 13.3992 50.2359C13.1036 47.8713 13.2514 45.3588 13.9903 43.142C15.0249 40.9251 16.6506 39.0038 18.5718 37.5259C19.4586 36.787 20.1975 36.048 20.9365 35.1613C21.5276 34.1268 21.971 33.0922 22.2666 32.0577C22.8577 29.6931 24.04 27.4762 25.6657 25.7027C27.4392 24.077 29.6561 22.8947 32.0207 22.3035C33.0552 22.008 34.0898 21.5646 35.1243 20.9734C36.011 20.2345 36.75 19.4955 37.4889 18.6088C40.1492 14.4707 45.3218 12.2538 50.1989 13.2883C51.3812 13.4361 52.4157 13.4361 53.5981 13.2883C54.6326 12.9928 55.6671 12.5494 56.5539 12.106C60.692 9.298 66.308 9.298 70.4461 12.106C71.3329 12.6972 72.3674 12.9928 73.4019 13.2883C74.5842 13.4361 75.6188 13.4361 76.8011 13.2883C81.6782 12.2538 86.703 14.3229 89.511 18.6088C90.25 19.4955 90.9889 20.2345 91.8757 20.9734C92.9102 21.5646 93.9447 22.008 94.9793 22.3035C97.3439 22.8947 99.5608 24.077 101.334 25.7027C102.96 27.4762 104.142 29.6931 104.733 32.0577C105.029 33.0922 105.472 34.1268 106.064 35.1613C106.802 36.048 107.541 36.787 108.428 37.5259C110.349 39.0038 111.975 40.9251 113.01 43.142C113.749 45.3588 114.044 47.8713 113.601 50.2359C113.453 51.4182 113.453 52.4528 113.601 53.6351C113.896 54.6696 114.34 55.7041 114.783 56.5909C116.113 58.66 116.852 61.0246 117 63.537C116.852 66.0495 116.113 68.4141 114.783 70.4832C114.192 71.3699 113.896 72.4044 113.601 73.439C113.453 74.6213 113.453 75.6558 113.601 76.8382C113.896 79.2028 113.749 81.7152 113.01 83.9321C111.975 86.1489 110.349 88.0702 108.428 89.5481C107.541 90.2871 106.802 91.026 106.064 91.9128C105.472 92.9473 105.029 93.9818 104.733 95.0164C103.847 99.8934 100.004 103.736 94.9793 104.771C92.7624 105.214 90.8411 106.544 89.6588 108.317C86.9986 112.456 81.826 114.672 76.9489 113.638C75.7666 113.49 74.732 113.49 73.5497 113.638C72.5152 113.934 71.4807 114.377 70.5939 114.82C68.2293 116.15 65.8646 116.889 63.3522 117.037ZM52.2679 106.101C53.1547 106.101 54.0414 106.101 54.9282 106.396C56.7016 106.84 58.3273 107.431 59.8052 108.317C61.8743 110.091 64.9779 110.091 67.0469 108.317C68.5248 107.431 70.1505 106.84 71.924 106.396C73.6975 106.101 75.471 106.101 77.2445 106.248C78.4268 106.396 79.7569 106.396 80.9392 106.101C81.9737 105.362 83.0083 104.475 83.7472 103.44C85.8163 100.485 88.9199 98.4155 92.4668 97.6766C93.6492 97.381 94.8315 96.7898 95.866 96.0509C96.6049 95.0164 97.1961 93.834 97.4917 92.6517C98.3784 89.1048 100.447 86.1489 103.256 83.9321C104.29 83.1931 105.177 82.3064 105.916 81.1241C106.211 79.9418 106.211 78.6116 106.064 77.4293C105.916 75.6558 105.916 73.8824 106.211 72.1089C106.655 70.3354 107.246 68.7097 108.133 67.2318C108.872 66.1973 109.315 64.8671 109.463 63.6848C109.315 62.3547 108.872 61.1724 108.133 60.1379C107.246 58.66 106.655 57.0343 106.211 55.2608C105.916 53.4873 105.916 51.7138 106.064 49.9403C106.211 48.758 106.211 47.4279 105.916 46.2456C105.177 45.211 104.29 44.1765 103.256 43.4376C101.925 42.403 100.595 41.0729 99.5608 39.595C98.674 38.1171 97.9351 36.4914 97.4917 34.7179C97.1961 33.5356 96.6049 32.3533 95.866 31.3188C94.8315 30.5798 93.6492 29.9886 92.4668 29.6931C90.6934 29.2497 89.0677 28.5107 87.5898 27.624C86.1119 26.5895 84.9295 25.4071 83.7472 23.9292C83.0083 22.8947 82.1215 22.008 80.9392 21.269C79.7569 20.9734 78.4268 20.9734 77.2445 21.1212C75.471 21.269 73.6975 21.269 71.924 20.9734C70.1505 20.5301 68.5248 19.9389 67.0469 19.0522C64.9779 17.2787 61.8743 17.2787 59.8052 19.0522C58.3273 19.9389 56.7016 20.5301 54.9282 20.9734C53.1547 21.269 51.3812 21.269 49.6077 21.1212C48.4254 20.9734 47.0953 20.9734 45.913 21.269C44.8785 22.008 43.8439 22.8947 43.105 23.9292C42.0704 25.2593 40.7403 26.5895 39.2624 27.624C37.7845 28.5107 36.1588 29.2497 34.3854 29.6931C33.203 29.9886 32.0207 30.5798 30.9862 31.3188C30.2472 32.3533 29.6561 33.5356 29.3605 34.7179C28.9171 36.4914 28.1782 38.1171 27.2914 39.595C26.2569 41.0729 25.0746 42.2552 23.5967 43.4376C22.5621 44.1765 21.6754 45.0632 20.9365 46.2456C20.6409 47.4279 20.6409 48.758 20.7887 49.9403C20.9365 51.7138 20.9365 53.4873 20.6409 55.2608C20.1975 57.0343 19.6063 58.66 18.7196 60.1379C17.9807 61.1724 17.5373 62.5025 17.3895 63.6848C17.5373 65.0149 17.9807 66.1973 18.7196 67.2318C19.6063 68.7097 20.1975 70.3354 20.6409 72.1089C20.9365 73.8824 20.9365 75.6558 20.7887 77.4293C20.6409 78.6116 20.6409 79.9418 20.9365 81.1241C21.6754 82.1586 22.5621 83.1931 23.5967 83.9321C26.5525 86.0012 28.6215 89.1048 29.3605 92.6517C29.6561 93.834 30.2472 95.0164 30.9862 96.0509C32.0207 96.7898 33.203 97.381 34.3854 97.6766C37.9323 98.5633 40.8881 100.632 43.105 103.44C43.8439 104.475 44.7307 105.362 45.913 106.101C47.0953 106.396 48.4254 106.396 49.6077 106.248C50.4945 106.248 51.3812 106.101 52.2679 106.101Z" fill="#E4EEFF"/>
</g>
<path d="M61.6953 47V50.8132C57.4683 51.2765 54.2529 54.0562 54.2529 58.0832C54.2529 60.3283 55.1922 63.4287 60.6837 65.1393L63.6824 65.959C66.1752 66.6717 66.7171 67.6339 66.681 68.7387C66.6449 70.3423 65.1997 71.3402 63.032 71.3402C60.6115 71.3402 59.4192 69.9503 59.3108 68.3823H54C54 72.4806 56.9625 75.4384 61.6953 75.9017V80H64.3327V75.9017C68.2706 75.5097 71.8835 73.1933 71.9918 68.7743C72.1002 66.4579 71.197 63.0724 65.1636 61.3618L62.2011 60.4352C59.7444 59.7581 59.5276 58.5821 59.5276 57.9406C59.5276 56.4795 60.9005 55.4816 62.743 55.4816C64.8746 55.4816 65.9584 56.5864 65.9584 58.2613H71.2331C71.2331 54.0562 68.379 51.419 64.3327 50.8488V47H61.6953Z" fill="#374C82"/>
<defs>
<filter id="filter0_d" x="0" y="0" width="137" height="137.037" filterUnits="userSpaceOnUse" color-interpolation-filters="sRGB">
<feFlood flood-opacity="0" result="BackgroundImageFix"/>
<feColorMatrix in="SourceAlpha" type="matrix" values="0 0 0 0 0 0 0 0 0 0 0 0 0 0 0 0 0 0 127 0"/>
<feOffset dx="5" dy="5"/>
<feGaussianBlur stdDeviation="7.5"/>
<feColorMatrix type="matrix" values="0 0 0 0 0.151823 0 0 0 0 0.191528 0 0 0 0 0.289844 0 0 0 0.22 0"/>
<feBlend mode="normal" in2="BackgroundImageFix" result="effect1_dropShadow"/>
<feBlend mode="normal" in="SourceGraphic" in2="effect1_dropShadow" result="shape"/>
</filter>
</defs>
</svg>
