<svg width="24" height="21" viewBox="0 0 24 21" fill="none" xmlns="http://www.w3.org/2000/svg">
<path fill-rule="evenodd" clip-rule="evenodd" d="M10 12H19V11H10V12Z" fill="#2D3748"/>
<mask id="mask0" mask-type="alpha" maskUnits="userSpaceOnUse" x="0" y="0" width="24" height="21">
<path fill-rule="evenodd" clip-rule="evenodd" d="M0 0H23.9829V20.9882H0V0Z" fill="white"/>
</mask>
<g mask="url(#mask0)">
<path fill-rule="evenodd" clip-rule="evenodd" d="M20.8435 9.52709C20.5576 10.5508 20.2643 11.5735 19.9931 12.6015C19.9106 12.9111 19.7906 13.0488 19.4359 13.0467C15.7211 13.0309 12.0072 13.0351 8.2935 13.0372C8.05986 13.0372 7.88039 13.0424 7.79576 12.7296C7.15506 10.3565 6.49256 7.99094 5.83715 5.62214C5.81952 5.55599 5.81847 5.48564 5.80595 5.38274H22.0018C21.6105 6.78449 21.2265 8.15579 20.8435 9.52709ZM8.86533 18.5004C8.87795 18.9372 8.56699 19.2742 8.14219 19.2857C7.71865 19.2963 7.37733 18.9697 7.37013 18.5465C7.36282 18.1245 7.69037 17.7675 8.09837 17.7528C8.5096 17.7381 8.85291 18.073 8.86533 18.5004ZM17.9248 18.4719C17.9541 18.0552 18.3193 17.7286 18.7273 17.7549C19.1406 17.7822 19.4369 18.135 19.415 18.5749C19.3931 19.0107 19.0487 19.3183 18.6239 19.2826C18.1951 19.2469 17.8946 18.8973 17.9248 18.4719ZM23.088 3.66179C22.9315 3.65444 22.775 3.65969 22.6185 3.65969C17.0472 3.65969 11.4752 3.65129 5.90289 3.67334C5.40004 3.67544 5.20804 3.51899 5.10473 3.04544C4.93256 2.26319 4.6935 1.49564 4.47969 0.722838C4.35228 0.265038 4.06428 0.0130385 3.57604 0.0140885C2.67333 0.0161885 1.77082 0.00568849 0.868108 0.0172385C0.341256 0.0245885 0.00525611 0.365838 3.87149e-05 0.857238C-0.00423955 1.36859 0.346369 1.71194 0.90056 1.71929C1.40341 1.72559 1.9096 1.74764 2.41047 1.70669C2.83517 1.67204 3.00943 1.82324 3.12213 2.23799C4.14891 6.00434 5.19969 9.76544 6.24202 13.5276C6.50091 14.4631 6.75228 15.4007 7.00178 16.3143C5.72143 17.2267 5.33221 18.4426 5.90613 19.606C6.44352 20.6959 7.70195 21.2419 8.84978 20.8839C10.1248 20.4859 10.7103 19.374 10.4733 17.7864H16.2897C16.2658 18.0153 16.2385 18.2052 16.2282 18.3964C16.1373 20.046 17.69 21.3364 19.2646 20.9217C20.4585 20.6077 21.2661 19.4727 21.1273 18.3019C20.9729 16.9915 19.9733 16.0581 18.6761 16.0527C15.6907 16.0423 12.7044 16.0507 9.719 16.0476C8.60873 16.0465 8.60873 16.0434 8.39785 14.9304C8.39169 14.8977 8.40306 14.8611 8.41141 14.7655H8.96759C10.1134 14.7665 11.2591 14.7665 12.4049 14.7665C15.0084 14.7665 17.6118 14.7624 20.2152 14.7687C20.7255 14.7697 21.1628 14.6647 21.3203 14.1072C22.1978 11.0044 23.0755 7.90064 23.9373 4.79369C24.1168 4.14689 23.7527 3.69329 23.088 3.66179Z" fill="#2D3748"/>
</g>
</svg>
