<svg width="18" height="16" viewBox="0 0 18 16" fill="none" xmlns="http://www.w3.org/2000/svg">
<path d="M12 2.66699H13.5C13.8978 2.66699 14.2794 2.80747 14.5607 3.05752C14.842 3.30756 15 3.6467 15 4.00033V13.3337C15 13.6873 14.842 14.0264 14.5607 14.2765C14.2794 14.5265 13.8978 14.667 13.5 14.667H4.5C4.10218 14.667 3.72064 14.5265 3.43934 14.2765C3.15804 14.0264 3 13.6873 3 13.3337V4.00033C3 3.6467 3.15804 3.30756 3.43934 3.05752C3.72064 2.80747 4.10218 2.66699 4.5 2.66699H6" stroke="#374C82" stroke-width="1.5" stroke-linecap="round" stroke-linejoin="round"/>
<path d="M11.25 1.33301H6.75C6.33579 1.33301 6 1.63148 6 1.99967V3.33301C6 3.7012 6.33579 3.99967 6.75 3.99967H11.25C11.6642 3.99967 12 3.7012 12 3.33301V1.99967C12 1.63148 11.6642 1.33301 11.25 1.33301Z" stroke="#374C82" stroke-width="1.5" stroke-linecap="round" stroke-linejoin="round"/>
<line x1="6" y1="7.5" x2="12" y2="7.5" stroke="#374C82"/>
<line x1="6" y1="9.27734" x2="12" y2="9.27734" stroke="#374C82"/>
<line x1="6" y1="11.0557" x2="10" y2="11.0557" stroke="#374C82"/>
</svg>
