<svg width="30" height="30" viewBox="0 0 30 30" fill="none" xmlns="http://www.w3.org/2000/svg">
<path d="M26.203 3.97587H23.6729V1.4458C23.6729 0.650565 23.0222 0 22.2274 0H3.7934C2.99822 0 2.34766 0.650565 2.34766 1.4458V24.5783C2.34766 25.3734 2.99822 26.0241 3.79345 26.0241H6.32359V28.5542C6.32359 29.3494 6.97386 30 7.76939 30H20.0582C20.853 30 21.9778 29.554 22.5565 29.0093L26.5953 25.2076C27.1747 24.6629 27.6482 23.5663 27.6482 22.7711L27.6489 5.42179C27.6488 4.62649 26.9982 3.97587 26.203 3.97587ZM6.32347 5.42173V24.9397H3.7934C3.59752 24.9397 3.43199 24.7742 3.43199 24.5783V1.4458C3.43199 1.24992 3.59752 1.08439 3.7934 1.08439H22.2275C22.423 1.08439 22.5889 1.24992 22.5889 1.4458V3.97593H7.76927C6.97374 3.97593 6.32347 4.62649 6.32347 5.42173ZM25.8521 24.4181L21.8133 28.2195C21.7306 28.2973 21.6228 28.3735 21.5039 28.4461V25.1204C21.5039 24.8721 21.604 24.6487 21.7692 24.4825C21.9358 24.3173 22.1592 24.2169 22.4075 24.2169H26.0238C25.9677 24.293 25.9103 24.3632 25.8521 24.4181Z" fill="#FCFCFC"/>
<path d="M22.2272 9.03613H11.7453C11.4456 9.03613 11.2031 9.27865 11.2031 9.5783C11.2031 9.87795 11.4457 10.1205 11.7453 10.1205H22.2272C22.5265 10.1205 22.7693 9.87795 22.7693 9.5783C22.7693 9.27865 22.5265 9.03613 22.2272 9.03613Z" fill="#374C82"/>
<path d="M22.2272 16.2646H11.7453C11.4456 16.2646 11.2031 16.5072 11.2031 16.8068C11.2031 17.1065 11.4457 17.349 11.7453 17.349H22.2272C22.5265 17.349 22.7693 17.1065 22.7693 16.8068C22.7693 16.5071 22.5265 16.2646 22.2272 16.2646Z" fill="#374C82"/>
<path d="M17.5323 19.8799H11.7492C11.4496 19.8799 11.207 20.1224 11.207 20.422C11.207 20.7217 11.4496 20.9642 11.7492 20.9642H17.5323C17.8316 20.9642 18.0741 20.7217 18.0741 20.422C18.0741 20.1224 17.8316 19.8799 17.5323 19.8799Z" fill="#374C82"/>
<path d="M22.2272 12.6504H11.7453C11.4456 12.6504 11.2031 12.8929 11.2031 13.1926C11.2031 13.4922 11.4457 13.7347 11.7453 13.7347H22.2272C22.5265 13.7347 22.7693 13.4922 22.7693 13.1926C22.7693 12.8929 22.5265 12.6504 22.2272 12.6504Z" fill="#374C82"/>
</svg>
