<svg width="40" height="40" viewBox="0 0 40 40" fill="none" xmlns="http://www.w3.org/2000/svg">
<path d="M16.7944 19.3333H23.333L23.9997 30.6666H26.6663L19.9997 38.6666L13.333 31.1237H16.7944V19.3333Z" fill="#70D6F9"/>
<path d="M20.524 1.74676C14.5152 0.628861 11.965 6.87049 11.441 10.131C1.65935 9.22275 0.78599 17.2635 1.57202 21.3974L4.10475 25.1529L7.86023 26.4629H16.4522L16.667 19.3333H23.3337L23.2532 26.4629H28.3842C28.3842 26.4629 39.6506 27.0743 39.1266 17.904C38.6026 8.73366 28.3842 10.5677 28.3842 10.5677C28.2678 8.0932 26.5327 2.86467 20.524 1.74676Z" fill="#374C82"/>
<path d="M30.8885 8.91447C30.2825 8.91447 29.6806 8.97455 29.0891 9.09373C28.7611 4.36565 24.8098 0.619446 20 0.619446C15.19 0.619446 11.2386 4.36565 10.9106 9.09373C10.3193 8.97463 9.71722 8.91455 9.11118 8.91455C4.08727 8.91447 0 13.0017 0 18.0256C0 23.0496 4.08727 27.1368 9.11118 27.1368H15.5425V29.4615H12.969C12.6509 29.4615 12.3618 29.6462 12.2282 29.9349C12.0945 30.2234 12.1408 30.5634 12.3465 30.806L19.3776 39.0925C19.5327 39.2753 19.7602 39.3807 20 39.3807C20.2397 39.3807 20.4674 39.2753 20.6224 39.0925L27.6533 30.806C27.8591 30.5634 27.9053 30.2234 27.7716 29.9349C27.638 29.6462 27.3489 29.4615 27.0309 29.4615H24.4574V27.1368H30.8885C35.9126 27.1368 40 23.0496 40 18.0256C40 13.0017 35.9126 8.91447 30.8885 8.91447ZM25.2676 31.0941L20 37.3025L14.7322 31.0941H16.3589C16.8097 31.0941 17.1753 30.7285 17.1753 30.2777V19.8195H22.8247V30.2777C22.8247 30.7285 23.1902 31.0941 23.6411 31.0941H25.2676ZM30.8885 25.5042H24.4574V19.0032C24.4574 18.5524 24.0918 18.1869 23.6411 18.1869H16.3589C15.9081 18.1869 15.5426 18.5524 15.5426 19.0032V25.5042H9.11127C4.98751 25.5042 1.63265 22.1492 1.63265 18.0256C1.63265 13.902 4.98751 10.5472 9.11118 10.5472C9.90988 10.5472 10.7001 10.6744 11.4598 10.9252C11.7158 11.0095 11.9967 10.9624 12.2109 10.7989C12.4251 10.6354 12.5162 10.3396 12.5213 9.73088C12.5553 5.6072 15.8762 2.25218 20 2.25218C24.1236 2.25218 27.3869 5.6081 27.4784 9.73088C27.4924 10.3634 27.5743 10.6351 27.7885 10.7987C28.0026 10.9623 28.2836 11.0095 28.5398 10.9252C29.2998 10.6744 30.09 10.5472 30.8884 10.5472C35.0123 10.5472 38.3673 13.9021 38.3673 18.0256C38.3673 22.1492 35.0123 25.5042 30.8885 25.5042Z" fill="#15133E"/>
<path d="M22.2094 4.83407C21.2138 4.39742 20.1364 4.38338 19.1759 4.79456C18.7615 4.97203 18.5693 5.45187 18.7467 5.86632C18.9243 6.28069 19.4038 6.47277 19.8185 6.29554C20.5119 5.99865 21.1449 6.15007 21.5537 6.32934C22.2206 6.62183 22.6324 7.15864 22.7911 7.51024C23.0951 8.18322 23.7428 8.03979 23.8328 8.00803C24.2579 7.85783 24.4808 7.39146 24.3306 6.9664C24.0205 6.08901 23.2078 5.27195 22.2094 4.83407Z" fill="white"/>
<path d="M33.1011 13.2101C32.7165 12.9747 32.2141 13.0956 31.9786 13.4801C31.7432 13.8646 31.8641 14.3671 32.2486 14.6026C33.5211 15.3817 34.2808 16.7368 34.2808 18.2274C34.2808 19.2042 33.959 20.1217 33.3501 20.8809C33.068 21.2327 33.1244 21.7464 33.4762 22.0285C33.6269 22.1493 33.8073 22.208 33.9865 22.208C34.2256 22.208 34.4626 22.1035 34.6238 21.9025C35.4555 20.8655 35.9136 19.5604 35.9136 18.2275C35.9134 16.164 34.8621 14.2884 33.1011 13.2101Z" fill="white"/>
</svg>
