<svg width="99" height="99" viewBox="0 0 99 99" fill="none" xmlns="http://www.w3.org/2000/svg">
<circle cx="49.5" cy="49.5" r="47.5" fill="#374C82" stroke="#15133E" stroke-width="4" stroke-miterlimit="1" stroke-linecap="round" stroke-linejoin="bevel"/>
<path d="M53.1531 57.4964L53.1588 57.4315V57.3663C53.1588 55.8011 53.3445 54.8953 53.6705 54.317C53.9503 53.8206 54.4359 53.3882 55.5476 53.0483L55.5551 53.046L55.5627 53.0436C61.4702 51.169 65.5 45.8453 65.5 38.5149C65.5 33.9993 63.9417 30.2084 61.1431 27.5509C58.3535 24.9019 54.4603 23.5 50 23.5C45.5061 23.5 41.601 25.0279 38.8187 27.8657C36.0378 30.7021 34.5 34.7224 34.5 39.4851V40.9851H36H45.2891H46.7891V39.4851C46.7891 38.3111 47.1486 37.525 47.6365 37.0359C48.1251 36.5462 48.8931 36.203 50 36.203C51.1558 36.203 51.9779 36.5252 52.4795 36.9328C52.9619 37.3246 53.2109 37.838 53.2109 38.4455C53.2109 39.2484 53.1591 39.5155 53.0394 39.7335C52.9187 39.9534 52.6055 40.327 51.5782 40.9171L48.9986 42.0623C48.9978 42.0627 48.9969 42.063 48.9961 42.0634C45.2693 43.701 43.0727 45.5451 41.943 48.2028C40.8782 50.7078 40.8697 53.753 40.8697 57.3663V57.4315L40.8753 57.4964L41.008 59.0211L41.1272 60.3911H42.5024H51.5261H52.9012L53.0204 59.0211L53.1531 57.4964ZM39.9408 68.1782C39.9408 72.4106 43.2079 75.5 47.1469 75.5C51.0633 75.5 54.4194 72.4329 54.4194 68.1782C54.4194 63.9811 51.0512 60.9257 47.1469 60.9257C43.2199 60.9257 39.9408 64.0033 39.9408 68.1782Z" fill="#70D6F9" stroke="#15133E" stroke-width="3"/>
</svg>
