<svg width="18" height="18" viewBox="0 0 18 18" fill="none" xmlns="http://www.w3.org/2000/svg">
<path d="M6 4.5H15.75" stroke="#374C82" stroke-width="1.5" stroke-linecap="round" stroke-linejoin="round"/>
<path d="M6 9H15.75" stroke="#374C82" stroke-width="1.5" stroke-linecap="round" stroke-linejoin="round"/>
<path d="M6 13.5H15.75" stroke="#374C82" stroke-width="1.5" stroke-linecap="round" stroke-linejoin="round"/>
<path d="M1.875 3L2.37094 4.19239L3.65823 4.29559L2.67745 5.13573L2.9771 6.39191L1.875 5.71875L0.772903 6.39191L1.07255 5.13573L0.091769 4.29559L1.37906 4.19239L1.875 3Z" fill="#374C82"/>
<path d="M1.875 7.5L2.37094 8.69239L3.65823 8.79559L2.67745 9.63573L2.9771 10.8919L1.875 10.2188L0.772903 10.8919L1.07255 9.63573L0.091769 8.79559L1.37906 8.69239L1.875 7.5Z" fill="#374C82"/>
<path d="M1.875 12L2.37094 13.1924L3.65823 13.2956L2.67745 14.1357L2.9771 15.3919L1.875 14.7188L0.772903 15.3919L1.07255 14.1357L0.091769 13.2956L1.37906 13.1924L1.875 12Z" fill="#374C82"/>
</svg>
