<svg width="1263" height="182" viewBox="0 0 1263 182" fill="none" xmlns="http://www.w3.org/2000/svg">
<g opacity="0.25">
<path d="M112.915 144.272H33.4853C30.6179 144.272 28.528 141.873 28.8196 138.922L33.6473 89.7541C33.9227 86.9657 36.3852 84.7124 39.1716 84.7124H116.058C118.828 84.7124 120.967 86.9657 120.837 89.7541L118.391 138.922C118.229 141.873 115.783 144.272 112.915 144.272Z" fill="#4A65A3"/>
<path d="M116.042 84.7124H108.314C111.084 84.7124 113.223 86.9657 113.093 89.7541L110.647 138.906C110.501 141.857 108.055 144.256 105.188 144.256H112.915C115.782 144.256 118.229 141.857 118.375 138.906L120.821 89.7378C120.95 86.9657 118.812 84.7124 116.042 84.7124Z" fill="#3C5185"/>
<path d="M202.617 144.272H123.17C120.303 144.272 118.1 141.873 118.246 138.922L120.659 89.7541C120.789 86.9657 123.154 84.7124 125.925 84.7124H202.811C205.581 84.7124 207.833 86.9657 207.833 89.7541L207.817 138.922C207.801 141.873 205.484 144.272 202.617 144.272Z" fill="#4A65A3"/>
<path d="M125.958 138.906L128.371 89.7379C128.501 86.9496 130.866 84.6963 133.636 84.6963H125.909C123.139 84.6963 120.773 86.9496 120.644 89.7379L118.23 138.906C118.084 141.857 120.287 144.256 123.155 144.256H130.899C128.031 144.272 125.828 141.873 125.958 138.906Z" fill="#5C74AC"/>
<path d="M291.021 144.272H211.575C208.707 144.272 206.375 141.873 206.375 138.922L206.358 89.7541C206.358 86.9657 208.61 84.7124 211.38 84.7124H286.096C288.866 84.7124 291.232 86.9657 291.361 89.7541L295.93 138.922C296.092 141.873 293.888 144.272 291.021 144.272Z" fill="#4A65A3"/>
<path d="M214.102 138.906L214.086 89.7379C214.086 86.9496 216.338 84.6963 219.108 84.6963H211.38C208.61 84.6963 206.358 86.9496 206.358 89.7379L206.375 138.906C206.375 141.857 208.707 144.256 211.575 144.256H219.302C216.435 144.272 214.102 141.873 214.102 138.906Z" fill="#5C74AC"/>
<path d="M203.038 84.7124H195.31C198.08 84.7124 200.219 86.9657 200.089 89.7541L197.643 138.906C197.497 141.857 195.051 144.256 192.184 144.256H199.911C202.779 144.256 205.225 141.857 205.371 138.906L207.817 89.7378C207.946 86.9657 205.808 84.7124 203.038 84.7124Z" fill="#3C5185"/>
<path d="M205.987 112.595H175.822V113.13H205.987V112.595Z" fill="#3C5185"/>
<path d="M289.402 96.9844H246.001V97.5193H289.402V96.9844Z" fill="#3C5185"/>
<path d="M160.139 96.9844H129.926V97.5193H160.139V96.9844Z" fill="#3C5185"/>
<path d="M108.445 96.9844H87.3032V97.5193H108.445V96.9844Z" fill="#3C5185"/>
<path d="M97.8824 110.439H63.8618V110.974H97.8824V110.439Z" fill="#3C5185"/>
<path d="M59.8279 110.439H55.5996V110.974H59.8279V110.439Z" fill="#3C5185"/>
<path d="M242.308 96.9844H234.24V97.5193H242.308V96.9844Z" fill="#3C5185"/>
<path d="M32.3685 180.893H26.2124L32.5467 166.676H38.7028L32.3685 180.893Z" fill="#3C5185"/>
<path d="M299.511 180.893H305.667L299.317 166.676H293.177L299.511 180.893Z" fill="#3C5185"/>
<path d="M319.033 135.712H6.5293V170.323H319.033V135.712Z" fill="#3C5185"/>
<path d="M319.81 174.943H4.61708C2.05743 174.943 0 172.868 0 170.323C0 167.778 2.05743 165.703 4.61708 165.703H319.81C322.353 165.703 324.427 167.762 324.427 170.323C324.411 172.868 322.353 174.943 319.81 174.943Z" fill="#4A65A3"/>
<path d="M4.61708 169.172H319.81C321.737 169.172 323.39 170.372 324.087 172.058C324.297 171.523 324.427 170.939 324.427 170.323C324.427 167.778 322.369 165.703 319.81 165.703H4.61708C2.05743 165.703 0 167.778 0 170.323C0 170.939 0.129602 171.523 0.340206 172.058C1.02062 170.372 2.67305 169.172 4.61708 169.172Z" fill="#5C74AC"/>
<path opacity="0.3" d="M30.7799 118.95L28.8196 138.922C28.528 141.873 30.6179 144.272 33.4853 144.272H52.0832V142.829C52.0832 130.476 42.7681 120.296 30.7799 118.95Z" fill="#2D3D64"/>
<path opacity="0.3" d="M285.384 131.676V144.272H290.423C293.29 144.272 295.38 141.873 295.088 138.922L293.209 119.826C288.608 121.787 285.384 126.359 285.384 131.676Z" fill="#2D3D64"/>
<path d="M28.4315 165.704H6.30192C4.87629 165.704 3.72607 164.553 3.72607 163.126V121.366C3.72607 119.94 4.87629 118.789 6.30192 118.789H28.4315C29.8571 118.789 31.0073 119.94 31.0073 121.366V163.126C31.0073 164.553 29.8571 165.704 28.4315 165.704Z" fill="#4A65A3"/>
<path d="M30.2135 119.567C29.7275 119.08 29.0633 118.789 28.3181 118.789H6.41532C4.92489 118.789 3.72607 119.988 3.72607 121.48V146.072L30.2135 119.567Z" fill="#3C5185"/>
<path d="M317.201 165.704H294.537C293.257 165.704 292.22 164.666 292.22 163.385V121.107C292.22 119.826 293.257 118.789 294.537 118.789H317.201C318.481 118.789 319.518 119.826 319.518 121.107V163.402C319.518 164.682 318.481 165.704 317.201 165.704Z" fill="#4A65A3"/>
<path d="M299.9 165.703H29.5821C29.3715 165.703 29.2095 165.541 29.2095 165.33V143.008C29.2095 142.797 29.3715 142.635 29.5821 142.635H299.9C300.11 142.635 300.272 142.797 300.272 143.008V165.33C300.272 165.541 300.11 165.703 299.9 165.703Z" fill="#4A65A3"/>
<path d="M318.724 119.567C318.238 119.08 317.574 118.789 316.829 118.789H294.926C293.436 118.789 292.237 119.988 292.237 121.48V146.072L318.724 119.567Z" fill="#3C5185"/>
<path d="M197.547 118.513H154.146V119.048H197.547V118.513Z" fill="#3C5185"/>
<path d="M115.864 150.141H81.8433V150.676H115.864V150.141Z" fill="#3C5185"/>
<path d="M97.2335 156.252H63.2129V156.787H97.2335V156.252Z" fill="#3C5185"/>
<path d="M197.546 157.5H148.119V158.035H197.546V157.5Z" fill="#3C5185"/>
<path d="M246.001 149.654H213.568V150.189H246.001V149.654Z" fill="#3C5185"/>
<path d="M289.402 156.252H246.001V156.787H289.402V156.252Z" fill="#3C5185"/>
<path d="M253.744 149.654H248.576V150.189H253.744V149.654Z" fill="#3C5185"/>
<path d="M59.1804 156.252H54.9521V156.787H59.1804V156.252Z" fill="#3C5185"/>
<path d="M274.773 121.22H267.693V121.755H274.773V121.22Z" fill="#3C5185"/>
<g opacity="0.3">
<path opacity="0.3" d="M121.988 142.635C121.972 142.635 121.956 142.635 121.94 142.651C117.987 143.364 113.03 143.267 109.044 142.797C108.769 142.765 108.477 142.716 108.202 142.651H88.6157C90.3978 143.543 91.9368 144.807 93.5406 145.991C94.8852 146.996 96.2623 147.936 97.8499 148.536C100.993 149.735 104.362 149.022 107.57 148.536C112.479 147.79 118.214 148.503 122.831 146.396C123.835 145.942 124.742 145.277 125.763 144.823C127.82 143.883 130.169 143.802 132.373 143.316C132.859 143.202 133.426 142.975 133.733 142.619H121.988V142.635Z" fill="#2D3D64"/>
</g>
<path d="M14.6616 86.8203C14.6616 86.8203 26.6498 91.327 38.9782 90.6786C51.3067 90.0301 86.04 142.619 86.04 142.619H25.8236C25.8236 142.619 27.8811 124.414 23.345 113.585C20.1049 105.901 14.4996 97.9736 14.6616 86.8203Z" fill="#F7A66A"/>
<g opacity="0.3">
<path opacity="0.3" d="M37.65 91.5537C36.9372 92.8344 35.625 93.6449 34.3451 94.3582C33.0653 95.0553 31.7045 95.7362 30.7649 96.8385C28.6102 99.3513 29.1772 103.128 29.8901 106.371C30.0683 107.214 30.2951 108.121 30.9917 108.624C32.1743 109.483 34.4747 109.11 34.6043 110.569C34.6691 111.25 34.0697 111.947 34.3775 112.563C34.7015 113.179 35.5926 113.082 36.2892 113.131C37.974 113.26 39.189 114.93 39.4158 116.6C39.6264 118.27 39.0918 119.939 38.5572 121.528C39.5454 122.128 40.809 121.82 41.9593 121.69C43.1095 121.56 44.5513 121.868 44.8753 122.971C45.2641 124.284 43.7575 125.759 44.4865 126.91C44.9887 127.721 46.1551 127.656 47.0623 127.915C50.0918 128.758 51.0638 133.978 50.9828 136.637C50.9342 138.371 50.5292 140.171 51.0314 141.824C51.1124 142.1 51.2258 142.359 51.3554 142.619H86.0402C86.0402 142.619 51.3068 90.0299 38.9784 90.6783C38.6382 90.6945 38.3142 90.7107 37.974 90.7269C37.9092 91.0187 37.7958 91.2943 37.65 91.5537Z" fill="#B97D50"/>
</g>
<path d="M303.123 91.684C303.123 91.684 254.328 87.9717 246.001 95.5423C246.001 95.5423 248.917 110.003 242.324 121.48C234.596 134.951 231.761 142.636 231.761 142.636H291.994C291.994 142.636 289.936 124.43 294.473 113.601C297.696 105.901 303.285 102.837 303.123 91.684Z" fill="#F7A66A"/>
<g opacity="0.3">
<path opacity="0.3" d="M265.895 141.988C266.899 140.756 266.705 138.616 265.684 137.481C264.42 136.087 262.347 135.892 260.484 135.698C258.621 135.503 256.498 135.082 255.526 133.477C257.341 132.926 259.155 132.083 260.354 130.608C261.326 129.408 261.796 127.884 262.412 126.458C264.712 121.108 269.281 116.796 274.74 114.802C275.372 114.575 276.117 114.218 276.133 113.554C276.133 113.327 276.052 113.1 275.939 112.905C275.307 111.754 274.076 111.057 272.828 110.684C271.889 110.409 270.658 109.971 270.722 108.998C270.771 108.204 271.694 107.799 272.456 107.604C273.233 107.41 274.157 107.15 274.367 106.372C274.594 105.529 273.768 104.783 272.99 104.394C270.155 102.951 266.737 102.984 263.886 101.557C263.708 101.476 263.529 101.363 263.465 101.168C263.384 100.893 263.627 100.617 263.837 100.439C266.364 98.38 269.653 97.4883 272.877 97.1155C276.117 96.7426 279.389 96.8237 282.613 96.467C283.278 96.386 284.023 96.2401 284.347 95.6565C284.736 94.927 284.201 94.0516 283.618 93.4518C282.646 92.4305 281.479 91.8307 280.345 91.166C280.135 91.0525 279.94 90.9229 279.73 90.7932C265.943 90.7121 250.326 91.5713 245.952 95.5592C245.952 95.5592 248.868 110.02 242.275 121.497C235.244 133.753 232.263 141.226 231.777 142.458C231.987 142.555 232.198 142.604 232.441 142.636H234.774H244.543H259.739H264.777C265.247 142.507 265.635 142.312 265.895 141.988Z" fill="#B97D50"/>
</g>
<path d="M137.15 111.688L160.77 99.319C164.107 97.5682 168.141 97.8438 171.219 100.016L206.244 124.868L164.739 116.535L137.15 111.688Z" fill="#3C5185"/>
<path opacity="0.3" d="M137.15 111.688L160.77 99.319C164.107 97.5682 168.141 97.8438 171.219 100.016L206.244 124.868L164.739 116.535L137.15 111.688Z" fill="#1E2943"/>
<path d="M103.972 115.465L108.087 117.573C113.19 120.183 119.216 120.312 124.433 117.913L156.655 103.096C159.976 101.572 163.832 101.702 167.039 103.453L209.306 126.537L205.321 136.945C205.321 136.945 181.344 134.302 163.637 123.101C163.637 123.101 163.54 121.95 159.101 126.051C155.197 129.666 137.555 139.182 124.076 144.078C113.919 147.806 99.2089 147.45 90.072 141.646L84.7583 138.923L103.972 115.465Z" fill="#3C5185"/>
<path d="M205.337 136.961C205.337 136.961 209.695 136.361 212.336 138.226C212.336 138.226 213.616 139.879 214.069 141.711C214.377 142.975 215.43 143.899 216.694 144.159C219.189 144.661 223.125 145.18 226.657 144.483C226.657 144.483 239.86 144.84 243.829 145.229C244.834 145.326 245.87 145.18 246.794 144.759C247.086 144.629 247.361 144.467 247.572 144.305C247.572 144.305 249.678 142.489 250.828 140.949C251.411 140.171 251.087 139.068 250.18 138.744L249.937 138.663C249.937 138.663 250.131 138.307 250.261 137.836C250.488 136.896 249.71 136.005 248.738 136.102C246.875 136.28 243.1 136.572 240.703 136.118L222.801 130.623L209.323 126.586L205.337 136.961Z" fill="#5D7DBE"/>
<g opacity="0.3">
<path opacity="0.3" d="M206.99 132.666C206.715 132.406 206.439 132.163 206.148 131.952C202.859 129.407 198.663 128.467 194.775 126.992C191.016 125.581 187.452 123.62 184.229 121.221C181.151 118.919 178.283 116.163 174.638 114.996C170.167 113.569 165.339 114.769 160.803 115.968C155.603 117.346 150.402 118.724 145.445 120.832C137.053 124.398 129.601 129.975 121.112 133.282C112.623 136.589 102.142 137.221 95.1109 131.417C94.3008 130.753 93.4584 129.975 92.5674 129.391L84.7427 138.939L90.0726 141.647C99.2095 147.45 113.919 147.807 124.093 144.111C137.572 139.215 155.214 129.699 159.118 126.084C163.557 121.983 163.654 123.134 163.654 123.134C181.361 134.319 205.338 136.978 205.338 136.978L206.99 132.666Z" fill="#1E2943"/>
</g>
<path d="M135.305 121.414L146.467 107.44C146.694 107.149 145.981 106.419 145.69 106.176L145.333 106.014C144.005 104.944 143.26 105.122 141.672 105.706L117.485 114.541C117.015 114.703 116.626 115.011 116.318 115.4L104.654 130.898L135.305 121.414Z" fill="white"/>
<path d="M136.212 117.929L146.289 107.198C146.499 106.938 146.418 106.419 146.159 106.209L145.803 106.144C144.62 105.187 142.627 106.468 141.202 106.987L123.203 113.471C122.782 113.617 122.426 113.893 122.166 114.249L112.722 126.829L136.212 117.929Z" fill="#D1E1F2"/>
<path d="M135.759 119.048L104.654 130.898C105.837 131.725 107.344 131.936 108.688 131.433L134.69 121.82C135.224 121.625 135.597 121.123 135.645 120.555L135.759 119.048Z" fill="#E3EDF7"/>
<path d="M145.56 85.1018L154.811 77.1908C155.394 76.6883 156.301 77.1422 156.236 77.9203L146.711 106.241C146.565 106.582 146.516 107.068 146.144 107.684L136.375 119.875C135.84 120.539 134.771 120.118 134.836 119.259L144.653 86.8851C144.702 86.2042 145.026 85.5557 145.56 85.1018Z" fill="white"/>
<path d="M146.24 98.8163C145.609 100.762 144.782 102.221 144.394 102.091C144.005 101.961 144.199 100.291 144.831 98.3461C145.463 96.4008 146.289 94.9418 146.678 95.0715C147.05 95.2012 146.872 96.8709 146.24 98.8163Z" fill="#D1E1F2"/>
<path d="M95.1748 112.353L110.128 111.218C110.128 111.218 109.123 114.169 110.857 116.114L99.5975 120.572L95.1748 112.353Z" fill="white"/>
<path opacity="0.3" d="M95.1748 112.353L110.128 111.218C110.128 111.218 109.123 114.169 110.857 116.114L99.5975 120.572L95.1748 112.353Z" fill="#A5CBEF"/>
<path d="M110.128 111.218L118.779 108.332L123.785 103.583C124.385 103.015 125.195 102.723 126.005 102.788L131.221 103.177C132.712 103.291 134.008 104.231 134.575 105.609L134.866 106.322C135.174 107.052 135.304 107.846 135.239 108.64L135.125 110.132C133.991 110.813 132.517 110.407 131.902 109.24L131.254 107.992C130.476 107.295 129.293 107.262 128.483 107.911L124.077 111.396L120.756 114.087L110.874 116.114C110.874 116.114 108.087 113.893 110.128 111.218Z" fill="#5D7DBE"/>
<path d="M60.248 89.1226C63.7634 87.9229 67.6515 88.4255 70.7458 90.4843C74.6338 93.0619 79.9475 96.3203 83.1066 97.1795C87.108 98.2656 87.7237 101.411 87.7885 102.967C87.8209 103.696 88.0315 104.393 88.4041 105.009C90.1375 107.846 95.3216 115.012 103.973 115.449L84.759 138.923C84.759 138.923 64.0874 138.323 43.6265 100.811C42.1847 98.1684 40.9697 94.7316 43.8209 93.7589L60.248 89.1226Z" fill="white"/>
<path d="M101.494 120.28L107.067 118.999L116.237 112.045L122.36 110.732C123.106 110.57 123.883 110.651 124.58 110.942L130.169 113.277C130.655 113.488 130.898 114.023 130.736 114.525L130.525 115.174C130.347 115.692 129.829 116 129.294 115.919L124.385 115.125L120.87 116.017L124.175 116.26L128.581 116.584L128.565 116.778C128.533 117.297 128.176 117.751 127.674 117.913L125.973 118.448L120.335 119.259L109.675 125.614L103.001 127.575C102.985 127.575 99.6475 124.365 101.494 120.28Z" fill="#5D7DBE"/>
<path d="M50.155 92.7379C49.912 95.283 69.1094 102.983 67.7161 100.811C64.9135 96.4178 61.1712 92.6568 60.3126 82.7842C60.0696 79.8987 48.9238 80.7254 48.9238 80.7254C48.9238 80.7254 50.6249 87.7448 50.155 92.7379Z" fill="#5D7DBE"/>
<g opacity="0.3">
<path opacity="0.3" d="M88.4032 105.009C88.0306 104.393 87.8038 103.696 87.7876 102.966C87.7714 102.318 87.6579 101.669 87.4311 101.053C87.0909 102.853 86.2809 105.787 85.3251 107.294C84.8391 108.073 84.1425 108.883 84.3531 109.759C84.6609 110.05 85.1793 109.986 85.5519 109.791C85.9245 109.596 86.2485 109.288 86.6373 109.094C87.4311 108.721 88.387 108.964 89.0998 109.467C91.4488 111.137 93.085 114.427 94.7213 116.746C95.5799 117.961 96.5033 119.226 97.8317 119.907C98.5121 120.247 99.2249 120.393 99.954 120.393L104.004 115.449C95.3207 115.011 90.1366 107.862 88.4032 105.009Z" fill="#A5CBEF"/>
</g>
<g opacity="0.3">
<path opacity="0.3" d="M84.7424 127.413C83.495 126.116 82.7822 124.333 81.4214 123.165C79.9958 121.933 78.0355 121.528 76.3345 120.734C75.9619 120.555 75.5731 120.345 75.3301 120.02C74.4877 118.869 75.7351 117.183 75.2167 115.87C73.467 116.47 71.6688 117.07 69.822 117.021C67.9752 116.956 66.0473 116.097 65.2049 114.46L57.688 121.496C72.5922 138.598 84.7586 138.955 84.7586 138.955L91.2225 131.06C89.0031 129.877 86.4759 129.212 84.7424 127.413Z" fill="#A5CBEF"/>
</g>
<path d="M50.0093 93.8721L71.4098 123.441C71.9606 124.187 72.8679 124.576 73.7913 124.446L101.494 120.296C101.494 120.296 99.8737 123.538 103 127.591L79.5424 136.183C74.1477 138.291 68.024 136.75 64.2817 132.341L40.9047 104.863C37.6485 101.037 39.3495 95.1366 44.1448 93.6289L46.7854 92.8022C47.9842 92.4293 49.2803 92.867 50.0093 93.8721Z" fill="white"/>
<g opacity="0.3">
<path opacity="0.3" d="M101.527 124.997C100.684 125.24 99.923 125.743 99.194 126.213C97.1041 127.542 94.9009 128.758 92.4547 129.163C90.543 129.471 88.5828 129.261 86.6388 129.293C82.5077 129.39 78.5062 130.704 74.6182 132.098C73.6785 132.438 72.6903 132.779 71.6859 132.714C69.8877 132.584 68.4945 131.174 67.3118 129.828C61.4473 123.1 56.6359 115.497 50.4473 109.062C47.8553 106.371 45.0041 103.858 42.9952 100.713C42.0394 99.2053 41.2942 97.5194 40.9216 95.7686C38.7994 98.2651 38.5563 102.107 40.9054 104.879L64.25 132.341C67.9923 136.75 74.1322 138.29 79.5106 136.183L102.969 127.591C102.288 126.667 101.835 125.792 101.527 124.997Z" fill="#A5CBEF"/>
</g>
<g opacity="0.3">
<path opacity="0.3" d="M251.023 140.56C250.731 140.382 250.423 140.252 250.083 140.236C249.16 140.204 248.447 140.95 247.718 141.501C245.385 143.268 242.145 143.284 239.277 142.652C236.41 142.019 233.688 140.836 230.788 140.447C226.366 139.847 221.263 140.95 217.877 138.032C216.581 136.913 215.674 135.276 214.102 134.595C212.741 133.995 211.138 134.238 209.696 133.849C208.724 133.59 207.881 133.055 207.055 132.487L205.354 136.945C205.354 136.945 209.712 136.346 212.353 138.21C212.353 138.21 213.632 139.863 214.086 141.695C214.394 142.96 215.447 143.884 216.71 144.143C219.205 144.646 223.142 145.164 226.674 144.467C226.674 144.467 239.877 144.824 243.846 145.213C244.85 145.31 245.887 145.164 246.81 144.743C247.102 144.613 247.378 144.451 247.588 144.289C247.588 144.289 249.694 142.473 250.844 140.933C250.909 140.82 250.974 140.69 251.023 140.56Z" fill="#3C5185"/>
</g>
<g opacity="0.3">
<path opacity="0.3" d="M60.6042 99.0592C60.588 98.8647 60.5718 98.654 60.5718 98.4594C60.5556 97.2112 60.7338 95.9305 60.3936 94.7147C59.9238 92.9801 58.5144 91.6994 57.429 90.2728C56.3922 88.8949 55.6145 87.3062 55.1933 85.6202C54.8855 84.4044 54.7397 83.1237 54.1565 82.0214C53.8811 81.5026 53.5409 81.0325 53.1359 80.611C50.8517 80.5624 48.9238 80.7083 48.9238 80.7083C48.9238 80.7083 50.6249 87.7277 50.1388 92.7207C50.0254 94.1311 55.6631 97.0491 60.6042 99.0592Z" fill="#3C5185"/>
</g>
<path d="M61.0904 88.2796C63.5529 89.2036 67.2465 85.2319 66.5175 79.3473C66.5013 79.2176 66.9387 79.023 67.3599 78.8447C67.7325 78.6988 67.8783 78.2287 67.6353 77.9045C64.6059 73.8517 64.3143 66.5243 62.4674 65.0004C58.0286 61.3691 41.7959 67.0592 41.7959 67.0592L42.7517 76.7535C43.6265 85.621 61.0904 88.2796 61.0904 88.2796Z" fill="#5D7DBE"/>
<path d="M35.1373 59.0505C34.9429 58.8397 34.7485 58.629 34.5703 58.4669C34.2463 58.1751 33.8737 57.8022 33.9223 57.3645C33.9871 56.7647 34.7323 56.5378 35.2507 56.246C36.0607 55.7921 36.5305 54.9167 37.0165 54.1223C37.5025 53.328 38.1181 52.5012 39.0092 52.258C39.7868 52.0473 40.6292 52.3391 41.2286 52.8578C41.828 53.3766 42.2168 54.1223 42.476 54.868C43.205 57.0727 42.2168 62.4548 39.0416 62.2441C37.4701 62.1468 36.2389 60.2825 35.1373 59.0505Z" fill="#3C5185"/>
<path d="M36.7573 55.4028C36.4009 56.0189 35.6395 56.0675 35.0239 56.181C34.5379 56.262 34.0033 56.4079 33.7441 56.878C33.4849 57.3968 33.5497 58.029 33.9547 58.4343C34.6189 59.0828 35.4127 59.6177 36.1741 60.1365C36.6601 60.4769 37.3891 60.7687 37.4539 61.4172C37.4701 61.5793 37.2109 61.5793 37.1947 61.4172C37.1299 60.8822 36.2875 60.5255 35.8825 60.25C35.5423 60.023 35.2183 59.7798 34.8943 59.5205C34.3597 59.099 33.4687 58.6126 33.339 57.8831C33.2256 57.2833 33.4525 56.5538 33.9871 56.2296C34.7161 55.7757 36.0607 56.0675 36.5305 55.2569C36.6115 55.1272 36.8383 55.2569 36.7573 55.4028Z" fill="#3C5185"/>
<g opacity="0.3">
<path opacity="0.3" d="M35.1533 57.7053C35.7203 57.527 36.0605 56.9758 36.2873 56.4246C36.5141 55.8734 36.6761 55.2898 37.0974 54.8684C37.4376 54.5279 37.9074 54.3334 38.2476 53.993C38.604 53.6363 38.7984 53.1338 38.9604 52.6474C39.009 52.5178 39.0576 52.3719 39.1062 52.2422C39.3168 52.1935 39.5436 52.1773 39.7542 52.2097C39.4626 52.7447 39.2682 53.3121 39.1872 53.9119C39.6246 53.6201 40.1268 53.4094 40.6452 53.2797C40.3212 53.5066 40.0782 53.8308 39.9324 54.1875C40.5156 53.9119 41.1798 53.6201 41.7792 53.8633C41.9412 53.9281 42.087 54.0254 42.2004 54.1551C42.3138 54.382 42.411 54.6252 42.492 54.8846C42.6216 55.2574 42.6864 55.7275 42.7188 56.2463C42.7188 56.2625 42.7188 56.2787 42.7026 56.2949C42.6054 56.6516 42.3462 56.992 42.006 57.1379L41.8764 57.0893C42.006 56.5867 42.0546 56.068 42.0384 55.5654C42.0222 55.1764 41.925 54.7387 41.5686 54.5766C41.2122 54.4144 40.7586 54.6576 40.5966 55.0143C40.4346 55.3709 40.4832 55.7924 40.5804 56.1815C40.6776 56.5705 40.8396 56.9434 40.8558 57.3324C40.9044 57.9485 40.6452 58.5483 40.2726 59.0184C39.9 59.5047 39.414 59.8776 38.928 60.2504C39.4788 59.1481 39.5922 57.835 39.2358 56.6516C39.1386 57.2028 39.0252 57.7864 38.7012 58.2403C38.4906 58.5321 38.2152 58.7428 38.0046 59.0346C37.5672 59.6344 37.551 60.445 37.5348 61.1907C37.3242 60.8665 37.4052 60.4612 37.4214 60.0721C37.47 59.375 37.308 58.6942 37.146 58.0133C37.2432 58.6293 36.8219 59.294 36.2225 59.4561C36.7409 58.8077 36.8705 57.8836 36.5627 57.1217C36.2063 57.4946 35.6717 57.7215 35.1533 57.7053Z" fill="#4A65A3"/>
</g>
<path d="M39.3652 66.8969C39.6892 66.1025 40.1428 65.3568 40.726 64.7084C42.4109 62.8765 44.5169 61.4499 46.8173 60.5259C48.1944 59.9747 49.7172 59.7153 51.2076 59.7153C52.6008 59.7153 53.9293 59.1479 55.3549 59.1479C55.9705 59.1479 56.5699 59.2128 57.1693 59.2776C58.8379 59.4397 61.2356 59.1966 62.6126 60.2827C63.1472 60.7042 63.536 61.2878 63.8924 61.8552C64.2326 62.374 64.5728 62.9089 64.7024 63.5087C64.994 64.8543 64.1192 66.5564 63.2768 67.5615C62.2562 68.7773 60.1664 69.1826 58.6921 69.4096C56.6995 69.7176 55.2253 69.3285 53.6539 70.7875C52.05 72.2627 52.6818 75.2132 53.6376 76.9315C52.1796 76.3966 51.3534 74.6296 49.8306 74.2891C49.4418 74.2081 49.053 74.2081 48.648 74.2729C47.2061 74.4837 46.0235 75.5698 45.8777 77.0612C45.6995 78.6985 46.8497 80.2386 47.8541 81.4058C49.0044 82.7513 50.3004 84.1779 50.349 85.9449C50.3976 87.3877 49.6362 86.0908 48.9558 85.6369C45.6509 83.4322 41.8276 81.6327 39.7054 78.2608C37.5994 74.8565 37.8748 70.4957 39.3652 66.8969Z" fill="#3C5185"/>
<path d="M35.7527 62.6171C35.7851 62.0335 35.8661 61.4337 36.1739 60.9473C37.0001 59.6504 38.9441 59.7315 40.224 58.8561C40.9044 58.4022 41.358 57.6889 41.8116 57.0242C42.2814 56.3596 42.7836 55.6787 43.5126 55.3221C44.2416 54.9654 45.246 55.0141 45.7321 55.6625L46.8013 57.2512C47.8057 57.543 48.2917 58.694 48.4213 59.7315C48.7129 62.1145 47.7409 64.611 45.9265 66.1673C44.112 67.7236 41.4876 68.3072 39.1871 67.6587C37.9883 67.3183 36.8219 66.6212 36.2225 65.5189C35.7851 64.6435 35.7041 63.6059 35.7527 62.6171Z" fill="#3C5185"/>
<path d="M38.994 67.8372C38.2488 67.2536 37.3416 66.978 36.6936 66.2809C36.1752 65.7135 35.6892 64.984 35.3976 64.2708C34.7172 62.6659 35.9322 61.2069 36.969 60.1045C37.0824 59.9748 37.2768 60.1693 37.1634 60.2828C36.0132 61.4987 34.9116 62.9414 35.8836 64.6274C36.2562 65.2758 36.6774 65.9729 37.2768 66.443C37.86 66.9132 38.589 67.1725 39.1885 67.6265C39.3019 67.7561 39.1237 67.9345 38.994 67.8372Z" fill="#3C5185"/>
<path d="M46.7848 57.4459C46.3312 56.6029 46.6228 54.6252 45.262 54.6576C44.1604 54.6738 43.4962 55.8248 42.5728 56.2625C42.427 56.3273 42.2812 56.1004 42.4432 56.0355C43.4476 55.5654 44.1928 54.2685 45.4402 54.3982C46.882 54.5441 46.5418 56.3922 47.0278 57.3162C47.0926 57.4621 46.8658 57.5918 46.7848 57.4459Z" fill="#3C5185"/>
<path d="M42.6054 55.8409C42.9457 54.771 42.573 53.5389 41.763 52.777C40.872 51.9178 39.6894 52.3231 38.7012 52.777C38.5554 52.8418 38.4096 52.6311 38.5716 52.55C39.5922 52.0637 40.8558 51.6422 41.8278 52.469C42.7837 53.2795 43.2535 54.7061 42.8647 55.9057C42.7999 56.0679 42.5568 56.003 42.6054 55.8409Z" fill="#3C5185"/>
<g opacity="0.3">
<path opacity="0.3" d="M37.7944 64.5139C39.5441 63.2494 41.1965 61.8066 42.3953 60.0072C43.3673 58.5644 43.9991 56.8622 44.0639 55.1276C44.2745 55.0952 44.4689 55.079 44.6795 55.0952C44.8739 55.8085 45.0684 56.538 45.2628 57.2513C45.5544 56.8622 45.8136 56.457 45.9918 56.003L46.5426 56.8136C46.3968 57.8673 46.0566 58.8886 45.5544 59.8127C46.3482 59.4884 47.0124 58.8562 47.3688 58.0781C47.4174 59.0832 47.2554 60.0882 46.899 61.0285C47.4498 60.5746 47.9682 60.0558 48.438 59.5209C48.4542 59.5857 48.4542 59.6668 48.4704 59.7316C48.5514 60.4287 48.5352 61.142 48.4056 61.839C48.0168 62.4875 47.5956 63.1197 47.0934 63.6871C45.2466 65.827 42.3791 67.2211 39.5927 66.7672C41.4881 66.4106 43.0919 64.7895 43.4321 62.8928C42.8489 63.6547 42.2495 64.4166 41.4719 64.984C40.6943 65.5514 39.7061 65.8918 38.7664 65.6811C40.1759 65.3244 41.2451 63.9465 41.2613 62.5037C40.4675 63.6223 39.1715 64.3842 37.7944 64.5139Z" fill="#4A65A3"/>
</g>
<g opacity="0.3">
<path opacity="0.3" d="M48.5183 72.263C47.0765 72.0523 45.8453 71.1282 44.5006 70.5771C43.5448 70.188 42.508 69.961 41.4712 69.9448C42.1354 69.264 43.2208 69.1829 44.1604 69.3612C45.1001 69.5396 46.0073 69.9286 46.9631 70.0097C47.4329 70.0583 47.9675 69.9935 48.2591 69.6206C48.0647 69.8476 47.7245 69.88 47.4491 69.7989C47.1737 69.7179 46.9307 69.5233 46.6877 69.3612C45.7481 68.6804 44.7112 68.1616 43.6096 67.8212C44.9867 67.9671 46.3961 68.3399 47.7245 67.9995C49.1015 67.6429 50.2355 66.4757 50.5595 65.0815C49.6685 65.6003 48.6965 65.9569 47.6759 66.119C48.1133 65.503 49.2311 65.6327 49.5389 64.9518C49.7495 64.4817 49.5065 63.7522 49.9763 63.5577C50.1545 63.4766 50.3651 63.5414 50.5433 63.5901C51.1914 63.7846 51.8718 63.8981 52.536 63.8008C53.2002 63.7036 53.8644 63.3631 54.2046 62.7795C53.6538 62.9578 53.0544 63.1524 52.5198 62.9416C52.2444 62.8282 52.0176 62.6336 51.7908 62.4391C51.3534 62.05 50.916 61.661 50.4947 61.2719C51.2238 61.4988 52.05 61.3854 52.6818 60.9639C52.0986 60.9152 51.4344 60.818 51.1266 60.3317C51.969 60.4776 52.8276 60.6397 53.6862 60.5424C54.399 60.4613 55.0794 60.202 55.7922 60.1695C56.6994 60.1371 57.6391 60.4613 58.5139 60.2182C58.9837 60.0885 59.3887 59.7967 59.7289 59.4238C60.1177 59.4563 60.5065 59.5049 60.8629 59.5697C60.4903 60.3803 59.7775 61.0287 58.9513 61.3205C59.5507 61.7744 60.4255 61.7258 61.0573 61.3529C61.5757 61.0449 61.9483 60.5748 62.2237 60.0236C62.2723 60.0561 62.3371 60.0885 62.3857 60.1209C62.3209 60.9639 62.0941 61.7744 61.7053 62.5364C62.3533 62.1635 62.9042 61.6123 63.293 60.9801C63.5036 61.2395 63.6818 61.5151 63.86 61.7906C63.8438 64.352 62.6126 66.6378 59.7937 67.2862C58.7245 67.5294 57.6229 67.578 56.5374 67.6753C55.695 67.7401 54.804 67.8698 54.156 68.4048C53.4756 68.956 53.184 69.8151 52.6818 70.5284C51.7584 71.7929 50.0897 72.5062 48.5183 72.263Z" fill="#4A65A3"/>
</g>
<g opacity="0.3">
<path opacity="0.3" d="M42.3964 70.8523C42.3478 70.9009 42.283 70.9495 42.2344 70.982C42.2344 70.9657 42.2344 70.9657 42.2344 70.9495C42.2668 70.8685 42.364 70.7712 42.3964 70.8523Z" fill="#4A65A3"/>
</g>
<g opacity="0.3">
<path opacity="0.3" d="M39.4787 76.1695C39.3653 75.3914 39.5274 74.6132 39.657 73.8351C39.819 72.8462 39.9648 71.8249 39.7866 70.8361C39.7056 70.4146 39.576 69.9769 39.657 69.5554C39.7218 69.1825 39.9486 68.8583 40.1754 68.5503C40.143 69.1339 40.1106 69.7337 40.1754 70.3173C40.2564 70.9657 40.4994 71.6304 41.034 72.0195C41.0178 71.6952 41.2932 71.4359 41.5686 71.29C41.7954 71.1765 42.0384 71.0954 42.2328 70.9657C41.9412 72.0519 42.2004 73.2839 41.6334 74.2404C42.168 74.289 42.6216 73.8513 42.978 73.4623C42.7512 74.289 42.9942 75.2293 43.5936 75.8453C43.788 76.0398 44.031 76.2344 44.112 76.4937C44.193 76.7855 44.0472 77.0773 44.0634 77.3853C44.0796 77.7096 44.274 77.9852 44.4198 78.2607C44.9058 79.201 44.922 80.3682 44.4846 81.3409L44.0472 81.5354C44.0148 80.1574 43.1886 78.7633 41.8764 78.358C41.5038 78.2445 41.0988 78.2121 40.7262 78.05C40.0134 77.7258 39.5922 76.9476 39.4787 76.1695Z" fill="#4A65A3"/>
</g>
<path d="M44.2099 82.4108C46.2511 83.351 49.3778 84.729 48.8918 87.4848C48.8756 87.5983 49.0538 87.6307 49.07 87.5173C49.5722 84.6641 46.4131 83.2051 44.2909 82.2324C44.1775 82.1838 44.0965 82.3621 44.2099 82.4108Z" fill="#3C5185"/>
<path d="M46.885 74.9708C45.913 75.8948 45.8806 77.1755 46.399 78.3589C47.2576 80.3691 48.7642 81.9577 49.5581 84.049C49.6067 84.1625 49.7687 84.0976 49.7363 83.9841C49.2664 82.7359 48.6832 81.5687 47.9542 80.4501C46.9336 78.9101 45.2002 76.835 47.0308 75.0842C47.1118 75.0032 46.966 74.8897 46.885 74.9708Z" fill="#3C5185"/>
<path d="M53.0712 70.9822C52.245 73.6246 53.055 76.2995 55.2096 78.0341C55.3068 78.1151 55.4202 77.9692 55.323 77.8882C53.2008 76.186 52.4394 73.6084 53.2332 71.0147C53.2818 70.9012 53.1036 70.8688 53.0712 70.9822Z" fill="#3C5185"/>
<path d="M53.3302 70.9331C52.6984 72.3434 52.8118 73.9159 53.6542 75.2128C53.719 75.3101 53.8648 75.2128 53.8 75.0993C52.99 73.8511 52.8766 72.3596 53.4922 71.0141C53.5408 70.9007 53.3788 70.8196 53.3302 70.9331Z" fill="#3C5185"/>
<path d="M44.8095 82.8486C46.3323 83.6916 49.9126 84.9236 49.5562 87.0797C49.54 87.1932 49.7182 87.2256 49.7344 87.1121C49.8964 86.1394 49.4104 85.3937 48.649 84.8101C47.5149 83.9509 46.1217 83.3673 44.8905 82.6703C44.7771 82.6378 44.6961 82.8 44.8095 82.8486Z" fill="#3C5185"/>
</g>
<g opacity="0.25">
<path d="M1203.23 50.6988C1201.24 77.0222 1200.71 103.477 1201.66 129.88C1201.92 137.329 1202.31 144.805 1202.81 152.255C1202.89 153.334 1204.57 153.334 1204.49 152.255C1202.71 125.905 1202.39 99.4498 1203.57 73.0737C1203.91 65.6242 1204.36 58.1746 1204.91 50.7251C1204.99 49.6195 1203.31 49.6195 1203.23 50.6988Z" fill="#3C5185"/>
<path d="M1206.77 150.201C1205.57 138.066 1201.92 126.352 1200.37 114.27C1199.61 108.215 1199.35 102.056 1200.29 96.0277C1201.16 90.4208 1203.1 85.0771 1204.67 79.6282C1206.35 73.7844 1207.51 67.8089 1206.51 61.7282C1206.33 60.649 1204.7 61.1228 1204.88 62.1757C1206.8 73.6001 1200.53 84.2611 1198.72 95.2643C1196.86 106.715 1199.03 118.271 1201.42 129.485C1202.86 136.355 1204.39 143.226 1205.07 150.201C1205.2 151.281 1206.88 151.281 1206.77 150.201Z" fill="#3C5185"/>
<path d="M1208.98 149.965C1207.17 144.7 1206.69 139.093 1206.14 133.592C1205.57 127.827 1205.15 122.062 1205.04 116.271C1204.94 110.585 1205.38 104.978 1205.78 99.3184C1206.14 93.8958 1205.93 88.5784 1205.01 83.2085C1203.94 76.9435 1202.13 70.8364 1200.29 64.7557C1199.98 63.7291 1198.35 64.1503 1198.67 65.2032C1201.92 76.0748 1204.83 86.8674 1204.12 98.3181C1203.78 103.978 1203.26 109.585 1203.31 115.27C1203.36 120.956 1203.76 126.616 1204.31 132.249C1204.88 138.33 1205.33 144.595 1207.35 150.412C1207.69 151.439 1209.32 151.018 1208.98 149.965Z" fill="#3C5185"/>
<path d="M1239.15 7.21267C1238.49 7.89708 1237.47 8.31825 1236.63 7.9234C1235.42 7.34428 1235.45 5.60694 1235.95 4.34341C1236.1 3.94856 1236.29 3.55371 1236.52 3.18518C1236.24 3.05356 1235.92 2.92195 1235.63 2.79033C1232.69 1.55313 1229.62 0.526513 1226.5 0.131661C1226.32 0.368572 1226.16 0.579159 1226 0.842394C1224.72 2.8693 1224.06 5.23841 1223.06 7.42325C1222.62 8.3709 1222.04 9.34487 1221.07 9.79236C1219.6 10.4768 1217.71 9.47648 1217.06 8.00237C1216.98 7.81811 1216.9 7.60752 1216.93 7.42325C1216.95 7.18634 1217.14 7.00208 1217.29 6.81781C1219.23 4.73826 1221.07 2.47445 1222.51 0.0263672C1221.31 0.0790141 1220.1 0.184308 1218.92 0.315925C1216.58 0.579159 1214.25 0.895041 1211.97 1.42151C1211.6 1.68474 1211.28 1.9743 1210.97 2.29018C1209.61 3.71165 1208.9 5.63326 1208.56 7.55487C1208.4 8.50252 1208.29 9.47648 1207.8 10.2925C1207.3 11.1085 1206.22 11.6613 1205.38 11.2402C1204.67 10.8979 1204.38 9.97663 1204.49 9.21325C1204.59 8.42355 1205.04 7.73913 1205.46 7.05473C1206.43 5.50164 1207.4 3.97488 1208.37 2.4218C1206.82 2.97459 1205.33 3.63268 1203.91 4.50135C1199.43 7.21267 1195.86 12.0299 1196.02 17.2945L1196.23 19.0582C1199.16 22.4539 1203.96 24.086 1208.35 23.2173C1210.73 22.7435 1212.94 21.5853 1215.14 20.5323C1219.5 18.4265 1224.06 16.6365 1228.86 16.0047C1232.25 15.5572 1235.68 15.6888 1239.1 15.5046C1243.63 15.2676 1248.15 14.4253 1252.5 13.0565C1248.83 10.003 1244.84 7.34428 1240.59 5.13311C1240.12 5.81752 1239.75 6.60723 1239.15 7.21267ZM1231.15 8.47619C1230.88 8.87104 1230.46 9.13428 1230.02 9.34487C1229.28 9.71339 1228.42 10.003 1227.6 10.2399C1226.79 10.4768 1226.11 9.9503 1225.56 9.34487C1225.35 9.13428 1225.16 8.87104 1225.11 8.58149C1225.03 8.13399 1225.3 7.71281 1225.56 7.34428C1226.42 6.15973 1227.92 5.3437 1229.44 5.55429C1230.8 5.71223 1231.91 7.34428 1231.15 8.47619Z" fill="#354E88"/>
<path d="M1205.85 52.4891C1203.39 45.1449 1203.62 37.2215 1206.59 30.0616C1206.98 29.0876 1205.51 28.3769 1205.12 29.3508C1202 36.9057 1201.71 45.2765 1204.33 53.0156C1204.65 54.0159 1206.2 53.4894 1205.85 52.4891Z" fill="#3C5185"/>
<path d="M1240.67 13.346C1237 12.9775 1233.35 12.5826 1229.68 12.2141C1228.1 12.0562 1226.53 11.8982 1224.95 11.7666C1224.27 12.9248 1223.8 14.1884 1223.56 15.5045C1221.23 14.7675 1219.08 13.4776 1217.29 11.7929C1215.14 11.9772 1212.99 12.3457 1210.87 12.7142C1209.03 13.0301 1207.17 13.3723 1205.33 13.7935C1205.38 13.8462 1205.41 13.8988 1205.46 13.9778C1206.59 15.3466 1208.11 16.3995 1209.11 17.8736C1209.66 18.6897 1209.92 20.0058 1209.08 20.506C1208.37 20.9272 1207.51 20.4007 1206.9 19.8742C1205.12 18.2948 1203.73 16.3206 1201.97 14.7148C1200.76 15.0834 1199.56 15.5045 1198.4 16.031C1194.94 17.5578 1191.71 19.8742 1189.61 23.033C1189.69 23.0594 1189.77 23.0857 1189.82 23.1383C1192.66 24.3229 1195.7 24.902 1198.59 25.9549C1199.66 26.3498 1200.74 26.7973 1201.63 27.5343C1201.84 27.6923 1202.02 27.9029 1202.13 28.1398C1202.39 28.8505 1201.58 29.5086 1200.87 29.7455C1197.93 30.7195 1194.78 29.3507 1191.9 28.1924C1190.56 27.666 1189.22 27.1921 1187.86 26.771C1186.86 30.114 1187.17 33.852 1189.17 36.6686C1193.02 42.1702 1199.35 41.0909 1203.6 36.8792C1205.54 34.9576 1207.09 32.6674 1208.87 30.5879C1214.88 23.5595 1224.06 18.0316 1233.17 16.7681C1237.7 16.1363 1242.27 15.5045 1246.81 14.8728C1244.95 13.7935 1242.77 13.5566 1240.67 13.346Z" fill="#5D7DBE"/>
<path d="M1178.04 27.0078C1175.13 25.4284 1171.62 25.0598 1168.44 26.0075C1164.11 27.2973 1160.81 30.7983 1158.08 34.4047C1155.77 37.4845 1153.72 40.8276 1152.15 44.3549C1154.25 45.0393 1156.61 45.013 1158.81 44.6445C1161.7 44.1443 1164.51 43.144 1167.39 42.6439C1169.44 42.3017 1171.85 42.328 1173.24 43.9074C1173.69 44.4076 1173.98 45.0656 1173.82 45.7237C1173.74 46.0133 1173.56 46.2765 1173.37 46.5398C1172.3 47.8559 1170.59 48.5667 1168.91 48.8299C1167.23 49.0668 1165.5 48.9089 1163.8 48.7246C1160.99 48.4614 1158.18 48.1718 1155.38 48.3824C1153.64 48.514 1151.94 48.8299 1150.31 49.409C1149.66 51.6465 1149.21 53.963 1149.05 56.2794C1149.71 56.8322 1150.47 57.3061 1151.23 57.7009C1155.14 59.7278 1159.68 60.228 1164.09 60.3859C1164.64 60.4122 1165.21 60.4122 1165.71 60.6228C1166.21 60.8334 1166.66 61.3072 1166.68 61.86C1166.74 62.8866 1165.48 63.4131 1164.45 63.5184C1160.07 64.0185 1155.53 62.5444 1151.26 63.6763C1150.68 63.8343 1150.13 64.0185 1149.6 64.2554C1149.73 64.8872 1149.84 65.519 1149.97 66.1507C1150.78 70.0992 1151.6 74.0741 1152.38 78.0226C1152.86 77.6541 1153.33 77.2592 1153.8 76.8907C1156.19 74.9691 1158.63 72.9948 1161.49 71.8366C1162.28 71.5207 1163.17 71.2312 1163.98 71.5207C1164.3 71.626 1164.58 71.8366 1164.69 72.1525C1164.74 72.3367 1164.72 72.5473 1164.66 72.7579C1164.22 74.6006 1162.28 75.5482 1160.73 76.6011C1158.42 78.2069 1156.69 80.497 1155.03 82.7608C1154.64 83.3136 1154.22 83.8927 1153.88 84.4719C1155.06 88.7362 1156.74 93.2639 1158.68 96.6859L1159.31 96.8702C1162.35 91.1317 1167.97 73.1528 1168.91 69.7044C1170.59 63.5974 1172.35 57.385 1176.02 52.2256C1178.1 49.33 1180.93 46.8293 1184.13 45.3289L1184.21 44.9604C1184.73 41.4857 1185.15 37.9057 1184.16 34.5363C1183.19 31.3511 1180.96 28.5872 1178.04 27.0078Z" fill="#354E88"/>
<path d="M1168.07 95.1856C1169.52 92.4216 1170.07 89.1838 1169.39 86.1303C1169.25 85.5248 1169.23 84.6562 1169.83 84.5246C1170.2 84.4456 1170.54 84.7351 1170.78 85.0247C1172.64 87.3148 1172.43 90.6316 1173.61 93.3429C1175.87 92.3689 1178.04 91.1317 1180.09 89.7103C1178.73 86.3672 1176.97 83.1557 1174.84 80.2602C1174.06 79.2072 1173.22 78.128 1172.98 76.8118C1172.74 75.5219 1173.4 73.9425 1174.69 73.6793C1175.76 73.4424 1176.86 74.2321 1177.41 75.2061C1177.96 76.18 1178.12 77.3119 1178.44 78.3912C1179.25 81.2868 1181.14 83.8928 1183.66 85.5512C1184 85.7618 1184.34 85.9723 1184.68 86.1566C1188.46 82.8399 1191.76 79.0493 1194.97 75.1797C1194.28 74.9165 1193.6 74.6533 1192.92 74.4427C1191.45 73.9952 1189.95 73.653 1188.56 72.9949C1187.2 72.3368 1185.91 71.2839 1185.39 69.8361C1184.86 68.3883 1185.28 66.5456 1186.6 65.7559C1187.46 65.2295 1188.59 65.2558 1189.56 65.598C1190.53 65.9402 1191.35 66.572 1192.13 67.2301C1193.18 68.125 1194.15 69.099 1195.04 70.1256C1195.73 70.9153 1196.36 71.7314 1197.2 72.3368C1197.22 72.3631 1197.25 72.3631 1197.27 72.3894C1197.41 72.2052 1197.56 72.0209 1197.69 71.863C1200.19 68.7568 1202.73 65.598 1204.36 61.9917C1203.39 61.3336 1202.26 60.8598 1201.13 60.4913C1198.53 59.6489 1195.75 59.3067 1193.39 57.9379C1192.08 57.1745 1190.79 55.832 1191.08 54.3316C1191.35 53.0154 1192.76 52.1994 1194.07 52.252C1195.39 52.3047 1196.59 53.068 1197.56 53.963C1198.53 54.858 1199.35 55.9373 1200.34 56.806C1201.76 58.0695 1203.52 58.8592 1205.36 59.2014C1205.64 58.2011 1205.8 57.1482 1205.78 56.1216C1205.75 55.2792 1205.62 54.4369 1205.38 53.6208C1205.17 52.8838 1204.94 52.173 1204.65 51.4623C1203.89 49.5933 1202.92 47.6981 1201.24 46.5398C1199.9 45.5922 1198.32 45.25 1196.7 45.2763C1194.86 45.3026 1192.95 45.7764 1191.21 46.3556C1189.98 46.7767 1188.75 47.2506 1187.46 47.3032C1186.18 47.3559 1184.76 46.882 1184.08 45.7764L1183.71 45.5132C1180.67 47.04 1177.96 49.4617 1176 52.2257C1172.32 57.3588 1170.57 63.5974 1168.89 69.7045C1167.94 73.1528 1162.35 91.0001 1159.31 96.7913L1160.15 97.3178C1162.43 96.0279 1165.14 95.8173 1167.71 95.2645C1167.81 95.2382 1167.94 95.2119 1168.07 95.1856Z" fill="#4A65A3"/>
<path d="M1196.46 43.9339C1195.96 43.7233 1195.23 43.4601 1194.28 43.2232C1193.81 43.0915 1193.26 42.9862 1192.66 42.9073C1192.5 42.881 1192.34 42.881 1192.21 42.8546C1192.05 42.8283 1191.9 42.8283 1191.74 42.8283C1191.42 42.8283 1191.08 42.7757 1190.74 42.802C1189.35 42.802 1187.8 43.0389 1186.2 43.539C1184.73 44.0129 1183.21 44.7236 1181.77 45.6712C1181.74 45.5923 1181.69 45.5133 1181.66 45.4343C1181.59 45.2764 1181.48 45.1184 1181.4 44.9605C1181.3 44.8026 1181.22 44.6183 1181.09 44.4077C1180.98 44.2235 1180.85 44.0392 1180.72 43.8286C1180.59 43.6443 1180.46 43.4337 1180.33 43.2232C1180.17 43.0126 1180.01 42.802 1179.85 42.5914C1179.7 42.3808 1179.51 42.1702 1179.33 41.9596C1179.15 41.749 1178.96 41.5385 1178.78 41.3015C1178.36 40.8804 1177.96 40.4592 1177.49 40.0643C1177.05 39.6432 1176.55 39.2746 1176.08 38.9061C1175.58 38.5639 1175.08 38.1954 1174.55 37.9058C1174.06 37.5899 1173.5 37.3267 1173.01 37.0635C1172.74 36.9319 1172.48 36.8266 1172.25 36.7213C1172.01 36.616 1171.75 36.5107 1171.51 36.4054C1171.27 36.3264 1171.04 36.2211 1170.8 36.1422C1170.57 36.0632 1170.33 36.0105 1170.12 35.9316C1169.91 35.8789 1169.7 35.7999 1169.49 35.7473C1169.28 35.6947 1169.1 35.6683 1168.91 35.6157C1168.55 35.5367 1168.26 35.4577 1167.99 35.4314C1167.47 35.3525 1167.18 35.2998 1167.18 35.2998C1167.18 35.2998 1167.47 35.3788 1167.97 35.4841C1168.23 35.5367 1168.52 35.642 1168.86 35.7473C1169.04 35.7999 1169.23 35.8526 1169.41 35.9316C1169.6 36.0105 1169.81 36.0895 1170.01 36.1685C1170.22 36.2474 1170.43 36.3264 1170.64 36.4317C1170.85 36.537 1171.09 36.6423 1171.33 36.7476C1171.56 36.8529 1171.8 36.9845 1172.01 37.1161C1172.25 37.2477 1172.48 37.3794 1172.72 37.511C1173.19 37.8005 1173.66 38.1164 1174.13 38.4586C1174.61 38.8008 1175.05 39.1957 1175.5 39.5642C1175.92 39.9854 1176.36 40.3539 1176.73 40.8014C1177.13 41.2226 1177.47 41.6701 1177.81 42.0913C1177.96 42.3018 1178.12 42.5387 1178.28 42.7493C1178.44 42.9599 1178.57 43.1705 1178.7 43.3811C1178.83 43.5917 1178.96 43.8023 1179.07 43.9865C1179.2 44.1971 1179.28 44.3814 1179.38 44.592C1179.49 44.7762 1179.59 44.9605 1179.67 45.1448C1179.75 45.329 1179.83 45.487 1179.88 45.6449C1179.96 45.8029 1180.01 45.9345 1180.06 46.0924C1180.12 46.224 1180.17 46.382 1180.22 46.4873C1180.25 46.5399 1180.27 46.6189 1180.27 46.6715C1179.07 47.5929 1177.94 48.6721 1176.89 49.883C1176.57 50.2778 1176.21 50.699 1175.92 51.0939C1175.76 51.3045 1175.63 51.515 1175.47 51.6993C1175.29 51.9362 1175.18 52.1468 1175.03 52.3574C1174.58 53.0155 1174.16 53.7262 1173.77 54.4369C1173.58 54.4896 1173.37 54.5422 1173.19 54.5949C1172.8 54.7002 1172.27 54.8581 1171.62 55.0161C1170.96 55.174 1170.22 55.3056 1169.41 55.3056H1169.33C1169.33 55.3056 1169.28 55.3056 1169.31 55.3056H1169.25H1169.1L1168.76 55.2793C1168.55 55.2793 1168.36 55.2267 1168.15 55.2267C1167.73 55.174 1167.31 55.0687 1166.87 54.9371C1166.45 54.8055 1166.03 54.6739 1165.61 54.4896C1165.19 54.3317 1164.79 54.1211 1164.43 53.9368C1163.67 53.5419 1162.98 53.1208 1162.43 52.7522C1161.86 52.3837 1161.38 52.0415 1161.07 51.8046C1160.75 51.5677 1160.54 51.4361 1160.54 51.4361C1160.54 51.4361 1160.7 51.594 1161.02 51.8573C1161.3 52.1205 1161.75 52.5153 1162.28 52.9628C1162.8 53.4103 1163.43 53.9105 1164.16 54.4106C1164.53 54.6475 1164.9 54.9108 1165.32 55.1214C1165.71 55.3583 1166.16 55.5689 1166.58 55.7531C1167.02 55.9374 1167.47 56.0953 1167.94 56.2269C1168.18 56.2796 1168.44 56.3322 1168.65 56.3849L1168.97 56.4375L1169.12 56.4639H1169.18H1169.23H1169.31C1170.22 56.5691 1171.09 56.5165 1171.8 56.4375C1172.14 56.4112 1172.45 56.3586 1172.74 56.3059C1172.04 57.8063 1171.41 59.3858 1170.85 60.9652C1170.28 62.5972 1169.81 64.2556 1169.36 65.8876C1168.97 66.2035 1168.39 66.6247 1168.31 66.6774C1168.2 66.7826 1168.05 66.8879 1167.86 67.0196C1167.68 67.1512 1167.47 67.2828 1167.21 67.4144C1166.71 67.704 1166.11 67.9672 1165.42 68.2041C1165.08 68.3094 1164.72 68.4147 1164.35 68.4937C1163.98 68.5726 1163.59 68.6516 1163.19 68.7043C1162.77 68.7569 1162.41 68.7832 1162.01 68.8095C1161.62 68.8359 1161.23 68.8359 1160.86 68.8359C1160.1 68.8359 1159.39 68.8095 1158.79 68.7832C1157.58 68.7043 1156.77 68.6253 1156.77 68.6253C1156.77 68.6253 1157.55 68.8095 1158.76 69.0465C1159.36 69.1518 1160.07 69.2834 1160.83 69.3887C1161.23 69.4413 1161.62 69.4676 1162.01 69.5203C1162.41 69.5466 1162.85 69.5729 1163.25 69.5729C1163.67 69.5729 1164.09 69.5466 1164.51 69.5203C1164.93 69.494 1165.32 69.4413 1165.71 69.3623C1166.5 69.2307 1167.23 68.9938 1167.84 68.7569C1168.15 68.6253 1168.41 68.4937 1168.65 68.3884C1168.65 68.3884 1168.68 68.3884 1168.68 68.3621C1168.26 69.9415 1167.86 71.4945 1167.47 73.0213C1167.34 73.5214 1167.21 74.0216 1167.08 74.4954C1167.08 74.5217 1167.05 74.5481 1167.05 74.6007C1166.92 75.0482 1166.81 75.522 1166.68 75.9695C1166.42 76.9172 1166.16 77.8648 1165.92 78.7598C1165.92 78.7861 1165.9 78.8125 1165.9 78.8651C1165.5 79.26 1164.9 79.8391 1164.77 79.997C1164.58 80.2076 1164.35 80.4708 1164.01 80.813C1163.85 80.971 1163.67 81.1552 1163.46 81.3132C1163.25 81.4975 1163.04 81.6554 1162.8 81.8397C1162.56 82.0239 1162.33 82.1819 1162.07 82.3398C1161.8 82.4977 1161.54 82.6557 1161.25 82.7873C1160.7 83.0505 1160.1 83.2611 1159.52 83.3927C1158.94 83.5244 1158.37 83.5507 1157.87 83.6823C1157.37 83.7876 1157 83.9982 1156.74 84.1298C1156.5 84.2877 1156.37 84.393 1156.37 84.393C1156.37 84.393 1156.5 84.3141 1156.77 84.2088C1157.03 84.1035 1157.42 83.9719 1157.89 83.9455C1158.37 83.9192 1158.94 83.9719 1159.57 83.9455C1160.2 83.9192 1160.88 83.8139 1161.54 83.6033C1161.88 83.498 1162.2 83.3927 1162.51 83.2611C1162.83 83.1295 1163.11 82.9979 1163.4 82.84C1163.69 82.682 1163.95 82.5504 1164.22 82.3924C1164.48 82.2345 1164.72 82.0766 1164.93 81.9449C1164.95 81.9186 1165 81.866 1165.03 81.8133C1164.85 82.3924 1164.69 82.9716 1164.53 83.5244C1164.06 85.0511 1163.61 86.4463 1163.19 87.6571C1162.98 88.2626 1162.77 88.8417 1162.56 89.3682C1162.38 89.8946 1162.17 90.3685 1161.99 90.7896C1161.8 91.2108 1161.65 91.6057 1161.49 91.9215C1161.33 92.2374 1161.2 92.527 1161.07 92.7376C1160.83 93.1587 1160.7 93.3956 1160.7 93.3956C1160.7 93.3956 1160.83 93.1587 1161.09 92.7376C1161.23 92.527 1161.36 92.2637 1161.54 91.9215C1161.7 91.6057 1161.91 91.2371 1162.09 90.816C1162.28 90.3948 1162.51 89.921 1162.7 89.3945C1162.9 88.868 1163.14 88.3152 1163.38 87.7098C1163.85 86.4989 1164.35 85.1301 1164.85 83.6297C1165.76 80.9183 1166.76 77.7858 1167.76 74.3901C1167.81 74.5481 1167.89 74.706 1167.97 74.8903C1168.52 76.1801 1169.36 77.8385 1170.3 79.4179C1171.25 80.9973 1172.3 82.5241 1173.14 83.6033C1173.56 84.1561 1173.92 84.6036 1174.16 84.8932C1174.42 85.2091 1174.55 85.367 1174.55 85.367C1174.55 85.367 1174.42 85.1827 1174.21 84.8405C1174 84.4983 1173.69 84.0245 1173.35 83.4191C1172.64 82.2345 1171.8 80.6288 1171.06 78.9704C1170.33 77.312 1169.73 75.601 1169.33 74.3111C1169.12 73.6531 1168.99 73.1529 1168.89 72.7581C1168.81 72.5212 1168.68 71.9157 1168.57 71.5472C1168.99 70.152 1169.39 68.7569 1169.81 67.3354C1170.36 65.5191 1170.93 63.6765 1171.62 61.8865C1171.77 62.1234 1171.96 62.3866 1172.17 62.6762C1172.4 63.0184 1172.69 63.4132 1172.98 63.7818C1173.27 64.1766 1173.61 64.5715 1173.95 64.9926C1174.29 65.3875 1174.66 65.8087 1175.05 66.2299C1175.42 66.651 1175.84 67.0459 1176.23 67.4407C1176.65 67.8356 1177.05 68.2304 1177.49 68.599C1177.91 68.9675 1178.33 69.3097 1178.75 69.6519C1179.17 69.9678 1179.57 70.2837 1179.96 70.5732C1180.35 70.8628 1180.72 71.126 1181.09 71.3629C1181.43 71.5998 1181.77 71.8104 1182.06 71.9947C1182.35 72.179 1182.61 72.3369 1182.82 72.4422C1183.24 72.6791 1183.5 72.837 1183.5 72.837C1183.5 72.837 1183.26 72.6791 1182.87 72.3895C1182.66 72.2579 1182.42 72.0737 1182.16 71.8631C1181.9 71.6525 1181.59 71.4156 1181.27 71.1523C1180.93 70.8891 1180.59 70.5995 1180.25 70.2837C1179.88 69.9678 1179.51 69.6256 1179.15 69.2571C1178.78 68.8885 1178.38 68.52 1178.02 68.0988C1177.65 67.704 1177.28 67.2828 1176.92 66.8616C1176.57 66.4404 1176.21 66.0193 1175.89 65.5718C1175.55 65.1506 1175.26 64.7031 1174.95 64.2819C1174.66 63.8607 1174.37 63.4396 1174.13 63.0447C1173.87 62.6499 1173.66 62.255 1173.45 61.9128C1173.24 61.5443 1173.06 61.2284 1172.9 60.9388C1172.74 60.6493 1172.61 60.386 1172.51 60.1755C1172.48 60.0965 1172.45 60.0438 1172.43 59.9912C1173.03 58.5171 1173.71 57.0956 1174.48 55.7531C1174.97 54.8581 1175.52 53.9895 1176.1 53.1997C1176.23 53.0155 1176.39 52.7786 1176.52 52.5943C1176.68 52.3837 1176.84 52.1995 1176.99 51.9889C1177.31 51.594 1177.62 51.2518 1177.94 50.8833C1178.07 50.7517 1178.2 50.62 1178.36 50.4621C1178.46 50.699 1178.59 50.9623 1178.75 51.2518C1178.94 51.6203 1179.15 51.9889 1179.38 52.41C1179.62 52.8312 1179.91 53.2787 1180.19 53.7262C1180.48 54.2 1180.85 54.6475 1181.19 55.1214C1181.56 55.5952 1181.93 56.069 1182.35 56.5428C1182.74 57.0166 1183.19 57.4641 1183.63 57.9116C1184.1 58.3328 1184.55 58.7803 1185.02 59.1752C1185.49 59.5963 1185.97 59.9649 1186.44 60.3071C1186.91 60.6493 1187.36 60.9915 1187.83 61.281C1188.28 61.5706 1188.72 61.8338 1189.12 62.0707C1189.51 62.3077 1189.9 62.5182 1190.24 62.6762C1190.58 62.8605 1190.87 62.9921 1191.14 63.0974C1191.63 63.3079 1191.92 63.4396 1191.92 63.4396C1191.92 63.4396 1191.66 63.2816 1191.19 63.0184C1190.95 62.8868 1190.66 62.7288 1190.35 62.5182C1190.03 62.334 1189.67 62.0971 1189.3 61.8338C1188.91 61.5706 1188.51 61.281 1188.09 60.9388C1187.67 60.623 1187.25 60.2544 1186.81 59.8596C1186.39 59.4647 1185.94 59.0699 1185.52 58.6224C1185.1 58.2012 1184.71 57.7274 1184.29 57.2799C1183.89 56.8061 1183.5 56.3322 1183.16 55.8321C1182.79 55.3583 1182.48 54.8581 1182.16 54.3843C1181.87 53.8842 1181.59 53.4367 1181.35 52.9628C1181.11 52.5153 1180.88 52.0678 1180.69 51.6467C1180.48 51.2255 1180.33 50.857 1180.19 50.5148C1180.06 50.1725 1179.93 49.883 1179.85 49.6198C1179.77 49.4092 1179.72 49.2512 1179.67 49.1196C1180.48 48.4089 1181.32 47.7771 1182.16 47.2243C1182.87 46.7768 1183.58 46.382 1184.29 46.0661C1185.07 45.6976 1185.84 45.4343 1186.6 45.2237C1188.04 44.8289 1189.4 44.671 1190.58 44.6973C1190.87 44.6973 1191.16 44.7499 1191.45 44.7499C1191.58 44.7499 1191.74 44.7762 1191.84 44.7762C1192 44.8026 1192.13 44.8026 1192.24 44.8289C1192.74 44.9079 1193.21 45.0132 1193.63 45.1448C1193.89 45.2237 1194.15 45.3027 1194.36 45.3817C1195.12 45.2501 1195.86 45.1711 1196.59 45.1448L1197.54 45.1711L1199.56 45.5923C1199.69 45.6976 1196.93 44.1445 1196.46 43.9339Z" fill="#3C5185"/>
<path d="M1214.14 27.7449C1216.06 25.0599 1219.08 23.1646 1222.33 22.6118C1226.79 21.8748 1231.28 23.5595 1235.32 25.6127C1238.73 27.3501 1242.03 29.4823 1245 31.9567C1243.42 33.5097 1241.27 34.51 1239.12 35.1418C1236.31 35.9578 1233.35 36.2737 1230.54 37.1161C1228.55 37.6952 1226.4 38.8008 1225.85 40.8013C1225.66 41.4331 1225.69 42.1702 1226.11 42.6703C1226.32 42.9072 1226.58 43.0652 1226.87 43.1968C1228.42 43.9075 1230.25 43.8022 1231.88 43.3021C1233.51 42.7756 1234.98 41.8806 1236.45 40.9856C1238.83 39.5115 1241.25 38.0374 1243.87 36.9844C1245.47 36.3527 1247.18 35.8788 1248.88 35.6946C1250.46 37.4319 1251.85 39.3009 1253 41.3015C1252.66 42.0912 1252.19 42.8282 1251.66 43.539C1249.01 47.0926 1245.18 49.5144 1241.27 51.5676C1240.77 51.8309 1240.28 52.0941 1239.91 52.5153C1239.54 52.9364 1239.33 53.5419 1239.57 54.042C1239.96 54.9897 1241.33 54.9107 1242.3 54.5685C1246.47 53.0944 1249.9 49.7776 1254.23 48.9353C1254.81 48.83 1255.39 48.751 1255.99 48.7247C1256.15 49.3565 1256.33 49.9619 1256.49 50.5937C1257.49 54.5158 1258.48 58.4117 1259.48 62.3339C1258.9 62.2023 1258.3 62.0707 1257.72 61.9391C1254.73 61.2547 1251.69 60.5702 1248.62 60.7545C1247.75 60.8072 1246.84 60.9651 1246.23 61.5705C1246 61.8074 1245.81 62.1233 1245.86 62.4655C1245.89 62.6761 1246.02 62.8341 1246.15 62.992C1247.33 64.4398 1249.51 64.4398 1251.37 64.7293C1254.16 65.1505 1256.7 66.4667 1259.17 67.7829C1259.77 68.0988 1260.37 68.441 1260.95 68.8095C1261.74 73.1529 1262.21 77.97 1261.97 81.8922L1261.5 82.3397C1256.28 78.5228 1243.4 64.8083 1241.04 62.1233C1236.87 57.3851 1232.56 52.5416 1227.03 49.5407C1223.9 47.856 1220.26 46.8294 1216.74 46.8821L1216.51 46.5925C1214.54 43.6969 1212.57 40.6697 1212.02 37.195C1211.42 33.9046 1212.2 30.4299 1214.14 27.7449Z" fill="#354E88"/>
<path d="M1252.79 84.6828C1250.3 82.8401 1248.38 80.1551 1247.67 77.128C1247.52 76.5225 1247.18 75.7328 1246.57 75.8907C1246.21 75.9697 1246.02 76.3909 1245.94 76.7594C1245.26 79.6287 1246.91 82.5243 1247.02 85.4988C1244.55 85.6041 1242.06 85.4462 1239.62 85.0776C1239.38 81.4713 1239.57 77.8124 1240.22 74.2587C1240.46 72.9689 1240.75 71.6264 1240.41 70.3365C1240.07 69.073 1238.78 67.9411 1237.52 68.257C1236.45 68.5202 1235.82 69.7047 1235.74 70.8103C1235.66 71.9159 1236 73.0215 1236.21 74.1008C1236.73 77.0753 1236.18 80.2341 1234.64 82.8401C1234.43 83.1823 1234.22 83.5245 1233.98 83.8404C1229.15 82.5243 1224.51 80.5763 1219.94 78.4704C1220.44 77.9177 1220.94 77.4175 1221.46 76.9174C1222.59 75.8644 1223.8 74.9168 1224.74 73.7059C1225.69 72.495 1226.37 70.9946 1226.21 69.4678C1226.06 67.9411 1224.88 66.467 1223.35 66.3353C1222.33 66.2564 1221.33 66.7565 1220.63 67.4672C1219.92 68.2043 1219.44 69.1256 1219.02 70.0733C1218.47 71.3368 1218.03 72.6266 1217.66 73.9428C1217.4 74.9431 1217.19 75.9697 1216.69 76.8647C1216.66 76.891 1216.66 76.9174 1216.64 76.9437C1216.43 76.8384 1216.22 76.7594 1216.01 76.6541C1212.41 74.9694 1208.74 73.2321 1205.7 70.705C1206.3 69.6784 1207.09 68.7571 1207.93 67.9411C1209.89 66.0458 1212.23 64.519 1213.78 62.2552C1214.64 60.9917 1215.19 59.228 1214.28 57.9908C1213.49 56.9379 1211.84 56.8063 1210.68 57.438C1209.53 58.0698 1208.77 59.2807 1208.29 60.5179C1207.82 61.7551 1207.53 63.0712 1207.03 64.3084C1206.33 66.0458 1205.09 67.5462 1203.57 68.6781C1202.89 67.8884 1202.29 67.0461 1201.84 66.0984C1201.5 65.3351 1201.26 64.519 1201.11 63.6767C1200.97 62.9396 1200.87 62.1499 1200.82 61.4129C1200.69 59.386 1200.74 57.2538 1201.74 55.4901C1202.52 54.0686 1203.81 53.0683 1205.28 52.3576C1206.93 51.5679 1208.87 51.1467 1210.68 50.9361C1211.97 50.7782 1213.28 50.6466 1214.46 50.1201C1215.64 49.5936 1216.69 48.567 1216.85 47.2772L1217.06 46.8823C1220.47 46.9086 1223.93 47.9089 1226.92 49.541C1232.46 52.5419 1236.76 57.3854 1240.93 62.1236C1243.29 64.8086 1256.1 78.4178 1261.34 82.2873L1260.82 83.1297C1258.2 82.9718 1255.68 83.972 1253.13 84.6038C1253.05 84.6301 1252.92 84.6565 1252.79 84.6828Z" fill="#4A65A3"/>
<path d="M1204.96 51.0414C1205.3 50.6466 1205.85 50.0675 1206.61 49.4357C1207.01 49.1198 1207.43 48.7776 1207.95 48.4354C1208.08 48.3564 1208.22 48.2775 1208.32 48.1985C1208.45 48.1195 1208.61 48.0406 1208.74 47.9616C1209.03 47.8036 1209.32 47.6457 1209.63 47.4878C1210.87 46.8823 1212.39 46.4085 1214.04 46.1716C1215.56 45.9347 1217.24 45.9084 1218.97 46.1453C1218.97 46.0663 1218.97 45.9873 1218.97 45.882C1218.97 45.7241 1219 45.5398 1219 45.3292C1219 45.145 1219.02 44.9344 1219.02 44.6975C1219.05 44.4869 1219.08 44.25 1219.1 44.0394C1219.13 43.8025 1219.16 43.5656 1219.21 43.3287C1219.26 43.0918 1219.31 42.8285 1219.37 42.5653C1219.42 42.302 1219.47 42.0388 1219.55 41.7756C1219.63 41.5123 1219.68 41.2228 1219.76 40.9596C1219.94 40.4068 1220.13 39.8276 1220.36 39.2749C1220.57 38.6957 1220.86 38.1693 1221.12 37.6165C1221.44 37.09 1221.7 36.5372 1222.04 36.0371C1222.36 35.5106 1222.72 35.0631 1223.07 34.5893C1223.25 34.3524 1223.43 34.1681 1223.59 33.9312C1223.77 33.7206 1223.93 33.51 1224.11 33.3258C1224.3 33.1415 1224.48 32.9572 1224.64 32.773C1224.82 32.5887 1224.98 32.4571 1225.16 32.2991C1225.32 32.1412 1225.48 32.0096 1225.64 31.8516C1225.79 31.72 1225.95 31.6147 1226.08 31.4831C1226.37 31.2462 1226.61 31.0619 1226.84 30.904C1227.26 30.6144 1227.53 30.4302 1227.53 30.4302C1227.53 30.4302 1227.29 30.6144 1226.9 30.9566C1226.69 31.1146 1226.45 31.3252 1226.19 31.5884C1226.06 31.72 1225.92 31.8516 1225.77 31.9833C1225.64 32.1412 1225.48 32.2991 1225.32 32.4571C1225.16 32.615 1225.01 32.7993 1224.85 32.9836C1224.69 33.1678 1224.53 33.3521 1224.38 33.5627C1224.22 33.7469 1224.06 33.9838 1223.9 34.1944C1223.75 34.405 1223.59 34.6419 1223.43 34.8788C1223.14 35.3527 1222.83 35.8265 1222.59 36.353C1222.3 36.8531 1222.09 37.4059 1221.86 37.9324C1221.65 38.4852 1221.44 39.0379 1221.28 39.5907C1221.1 40.1435 1220.99 40.6963 1220.86 41.2228C1220.81 41.486 1220.78 41.7493 1220.73 42.0125C1220.68 42.2757 1220.65 42.5126 1220.63 42.7759C1220.6 43.0128 1220.57 43.276 1220.55 43.4866C1220.52 43.7235 1220.52 43.9341 1220.52 44.171C1220.52 44.3816 1220.49 44.5922 1220.49 44.7765C1220.49 44.9607 1220.49 45.145 1220.52 45.3292C1220.52 45.4872 1220.52 45.6451 1220.55 45.8031C1220.55 45.961 1220.57 46.0926 1220.57 46.2242C1220.57 46.2769 1220.57 46.3559 1220.6 46.4085C1222.07 46.7244 1223.56 47.1719 1225.03 47.8037C1225.5 48.0142 1226 48.2248 1226.45 48.4617C1226.66 48.567 1226.9 48.6986 1227.13 48.8039C1227.39 48.9356 1227.58 49.0672 1227.81 49.1988C1228.52 49.5936 1229.18 50.0411 1229.86 50.515C1230.04 50.4623 1230.25 50.436 1230.44 50.4097C1230.83 50.3307 1231.38 50.2517 1232.04 50.0938C1232.67 49.9358 1233.4 49.7253 1234.14 49.3831L1234.22 49.3567C1234.22 49.3567 1234.27 49.3304 1234.24 49.3567L1234.27 49.3304L1234.4 49.2514L1234.69 49.0935C1234.87 48.9882 1235.03 48.8829 1235.21 48.7776C1235.55 48.5407 1235.92 48.2775 1236.24 47.9616C1236.55 47.672 1236.87 47.3562 1237.18 47.0139C1237.47 46.6981 1237.76 46.3295 1237.99 45.9873C1238.49 45.3029 1238.94 44.6185 1239.28 44.0394C1239.62 43.4603 1239.91 42.9338 1240.09 42.5916C1240.28 42.2494 1240.38 42.0388 1240.38 42.0388C1240.38 42.0388 1240.3 42.2494 1240.14 42.6179C1239.99 42.9865 1239.78 43.5393 1239.49 44.171C1239.2 44.8028 1238.86 45.5398 1238.41 46.3032C1238.2 46.6717 1237.97 47.0666 1237.68 47.4614C1237.42 47.8563 1237.13 48.2248 1236.81 48.5934C1236.5 48.9619 1236.16 49.3041 1235.79 49.62C1235.61 49.7779 1235.4 49.9358 1235.21 50.0675L1234.95 50.2517L1234.82 50.357L1234.79 50.3833L1234.74 50.4097L1234.66 50.4623C1233.87 50.9625 1233.09 51.2783 1232.41 51.5153C1232.09 51.6469 1231.78 51.7258 1231.51 51.8311C1232.82 52.8841 1234.06 54.016 1235.24 55.2005C1236.45 56.4114 1237.63 57.7013 1238.73 58.9648C1239.23 59.0701 1239.91 59.2017 1240.01 59.2017C1240.14 59.228 1240.35 59.2807 1240.56 59.307C1240.8 59.3333 1241.04 59.3596 1241.33 59.386C1241.88 59.4123 1242.56 59.4123 1243.27 59.307C1243.63 59.2543 1244 59.1754 1244.37 59.0964C1244.74 59.0174 1245.13 58.8858 1245.5 58.7805C1245.89 58.6489 1246.26 58.5173 1246.63 58.3593C1246.99 58.2014 1247.33 58.0435 1247.67 57.8855C1248.36 57.5433 1248.99 57.2274 1249.51 56.9116C1250.56 56.3061 1251.27 55.8849 1251.27 55.8849C1251.27 55.8849 1250.64 56.3851 1249.64 57.1485C1249.14 57.517 1248.57 57.9382 1247.94 58.3593C1247.62 58.5699 1247.28 58.7805 1246.91 58.9911C1246.57 59.2017 1246.18 59.4123 1245.81 59.5702C1245.42 59.7545 1245.05 59.9124 1244.66 60.0704C1244.26 60.2283 1243.87 60.3599 1243.5 60.4652C1242.74 60.6758 1241.98 60.8074 1241.33 60.8601C1240.98 60.8864 1240.7 60.8864 1240.43 60.8864C1240.41 60.8864 1240.41 60.8864 1240.38 60.8864C1241.43 62.1236 1242.48 63.3608 1243.5 64.5454C1243.84 64.9402 1244.16 65.3351 1244.5 65.7036C1244.53 65.7299 1244.55 65.7562 1244.55 65.7826C1244.87 66.1511 1245.18 66.4933 1245.47 66.8618C1246.13 67.5989 1246.76 68.3359 1247.39 69.0467C1247.41 69.073 1247.44 69.0993 1247.46 69.1256C1247.99 69.3099 1248.8 69.5731 1248.96 69.6521C1249.2 69.7574 1249.56 69.889 1250.01 70.047C1250.22 70.1259 1250.48 70.2049 1250.72 70.2575C1250.98 70.3365 1251.24 70.3892 1251.53 70.4418C1251.82 70.4945 1252.11 70.5471 1252.42 70.5734C1252.74 70.5998 1253.03 70.6261 1253.34 70.6261C1253.97 70.6261 1254.6 70.5471 1255.15 70.4155C1255.73 70.2839 1256.25 70.047 1256.75 69.9417C1257.25 69.8364 1257.67 69.8364 1257.96 69.8627C1258.25 69.889 1258.41 69.9417 1258.41 69.9417C1258.41 69.9417 1258.25 69.9153 1257.96 69.9417C1257.67 69.968 1257.28 70.0206 1256.83 70.2049C1256.39 70.3892 1255.91 70.705 1255.31 70.942C1254.73 71.2052 1254.08 71.3895 1253.39 71.4947C1253.05 71.5474 1252.71 71.6 1252.37 71.6264C1252.03 71.6527 1251.69 71.6527 1251.37 71.6527C1251.06 71.6527 1250.74 71.6264 1250.46 71.6C1250.17 71.5737 1249.88 71.5474 1249.62 71.4947C1249.56 71.4947 1249.51 71.4684 1249.46 71.4158C1249.88 71.8633 1250.27 72.3108 1250.67 72.7319C1251.74 73.8902 1252.76 74.9431 1253.68 75.8644C1254.13 76.3119 1254.57 76.7331 1254.97 77.128C1255.36 77.5228 1255.76 77.865 1256.1 78.1546C1256.44 78.4705 1256.75 78.7337 1257.04 78.9443C1257.33 79.1812 1257.57 79.3655 1257.78 79.4971C1258.2 79.7866 1258.41 79.9182 1258.41 79.9182C1258.41 79.9182 1258.17 79.7866 1257.75 79.5234C1257.54 79.3918 1257.3 79.2075 1257.01 78.9969C1256.73 78.7863 1256.39 78.5231 1256.04 78.2336C1255.68 77.944 1255.28 77.6018 1254.86 77.2333C1254.44 76.8647 1254 76.4699 1253.53 76.0224C1252.58 75.1537 1251.53 74.1271 1250.4 72.9952C1248.38 70.9683 1246.13 68.5728 1243.74 65.9668C1243.74 66.1248 1243.74 66.309 1243.77 66.5196C1243.82 67.9148 1243.79 69.7837 1243.63 71.6264C1243.48 73.469 1243.19 75.2853 1242.93 76.6541C1242.79 77.3386 1242.66 77.8913 1242.56 78.2862C1242.45 78.681 1242.4 78.8916 1242.4 78.8916C1242.4 78.8916 1242.43 78.6547 1242.48 78.2599C1242.53 77.865 1242.58 77.2859 1242.64 76.6015C1242.77 75.2327 1242.82 73.4164 1242.77 71.6C1242.72 69.7837 1242.51 67.9937 1242.3 66.6512C1242.19 65.9668 1242.09 65.4404 1242.01 65.0455C1241.96 64.7823 1241.82 64.2032 1241.75 63.8083C1240.77 62.729 1239.8 61.6498 1238.78 60.5705C1237.5 59.1754 1236.16 57.7802 1234.79 56.4641C1234.77 56.7536 1234.71 57.0695 1234.64 57.4117C1234.58 57.8329 1234.48 58.3067 1234.37 58.7805C1234.27 59.2543 1234.14 59.7808 1234.03 60.281C1233.9 60.8074 1233.74 61.3339 1233.59 61.8604C1233.43 62.3868 1233.24 62.9396 1233.06 63.4661C1232.85 63.9926 1232.67 64.5454 1232.43 65.0455C1232.22 65.572 1231.99 66.0721 1231.78 66.5459C1231.54 67.0198 1231.33 67.4936 1231.09 67.9148C1230.86 68.3359 1230.65 68.7571 1230.41 69.0993C1230.2 69.4678 1229.99 69.7837 1229.81 70.0733C1229.62 70.3628 1229.47 70.6261 1229.31 70.8103C1229.02 71.2052 1228.86 71.4421 1228.86 71.4421C1228.86 71.4421 1228.99 71.2052 1229.23 70.7577C1229.36 70.5471 1229.49 70.2839 1229.65 69.968C1229.81 69.6521 1229.99 69.3099 1230.15 68.9414C1230.33 68.5728 1230.52 68.1517 1230.7 67.7042C1230.88 67.2567 1231.07 66.7828 1231.25 66.309C1231.41 65.8089 1231.62 65.3087 1231.75 64.7823C1231.93 64.2558 1232.06 63.7293 1232.2 63.1765C1232.33 62.6237 1232.46 62.0973 1232.56 61.5708C1232.67 61.0443 1232.77 60.5179 1232.85 59.9914C1232.93 59.4649 1233.01 58.9911 1233.03 58.5173C1233.09 58.0435 1233.14 57.596 1233.17 57.2011C1233.19 56.7799 1233.22 56.4114 1233.22 56.0955C1233.24 55.7797 1233.24 55.4901 1233.24 55.2269C1233.24 55.1479 1233.24 55.0952 1233.24 55.0163C1232.06 53.9633 1230.83 52.9894 1229.55 52.0944C1228.71 51.5153 1227.84 50.9625 1226.97 50.4886C1226.76 50.3833 1226.53 50.2254 1226.34 50.1464C1226.11 50.0411 1225.9 49.9358 1225.66 49.8042C1225.22 49.5673 1224.77 49.4094 1224.35 49.2251C1224.17 49.1461 1223.98 49.0935 1223.8 49.0409C1223.8 49.2778 1223.8 49.5936 1223.8 49.9358C1223.8 50.3307 1223.77 50.7782 1223.72 51.252C1223.69 51.7258 1223.64 52.2523 1223.56 52.7788C1223.51 53.3316 1223.38 53.8844 1223.27 54.4898C1223.14 55.0689 1223.01 55.6744 1222.86 56.2798C1222.7 56.8852 1222.49 57.4907 1222.3 58.0961C1222.07 58.6752 1221.86 59.2807 1221.62 59.8598C1221.39 60.4389 1221.1 60.9654 1220.86 61.5182C1220.57 62.0446 1220.31 62.5448 1220.02 62.9923C1219.73 63.4661 1219.47 63.8873 1219.21 64.2558C1218.95 64.6507 1218.68 64.9929 1218.47 65.2824C1218.24 65.5983 1218.05 65.8615 1217.87 66.0458C1217.53 66.467 1217.32 66.7039 1217.32 66.7039C1217.32 66.7039 1217.5 66.4406 1217.82 65.9931C1217.98 65.7826 1218.16 65.493 1218.34 65.1771C1218.55 64.8612 1218.76 64.4927 1219 64.0979C1219.23 63.703 1219.47 63.2555 1219.68 62.7817C1219.92 62.3079 1220.13 61.7814 1220.36 61.2549C1220.57 60.7021 1220.78 60.1757 1220.97 59.5966C1221.18 59.0174 1221.31 58.4383 1221.49 57.8329C1221.62 57.2274 1221.78 56.6483 1221.88 56.0429C1222.02 55.4638 1222.07 54.8583 1222.15 54.3055C1222.2 53.7264 1222.25 53.2 1222.28 52.6735C1222.3 52.147 1222.33 51.6732 1222.3 51.1994C1222.3 50.7519 1222.28 50.3307 1222.25 49.9885C1222.23 49.62 1222.23 49.3041 1222.17 49.0409C1222.15 48.8303 1222.12 48.646 1222.12 48.5144C1221.07 48.2248 1220.05 48.0406 1219.05 47.9089C1218.24 47.8036 1217.42 47.7773 1216.64 47.8037C1215.77 47.83 1214.96 47.9089 1214.2 48.0406C1212.73 48.3038 1211.44 48.7776 1210.37 49.3304C1210.1 49.462 1209.87 49.62 1209.61 49.7516C1209.5 49.8306 1209.37 49.8832 1209.26 49.9622C1209.13 50.0411 1209.03 50.1201 1208.92 50.1991C1208.5 50.4886 1208.14 50.8045 1207.82 51.0678C1207.61 51.252 1207.43 51.4363 1207.24 51.6205C1206.51 51.8311 1205.8 52.0944 1205.15 52.4103L1204.28 51.7258C1204.44 51.6732 1204.59 51.4363 1204.96 51.0414Z" fill="#3C5185"/>
<path d="M1181.56 139.461L1187.44 175.472C1187.96 178.657 1190.69 181 1193.92 181H1213.72C1216.93 181 1219.68 178.657 1220.21 175.472L1226.08 139.461H1181.56Z" fill="#3C5185"/>
<path d="M1226.11 139.461H1181.56L1186.47 169.496L1225.03 145.937L1226.11 139.461Z" fill="#2D3D64"/>
<path d="M1231.54 143.226H1176.13C1176.08 143.226 1176.05 143.2 1176.05 143.147V133.013C1176.05 132.96 1176.08 132.934 1176.13 132.934H1231.57C1231.62 132.934 1231.64 132.96 1231.64 133.013V143.147C1231.62 143.173 1231.59 143.226 1231.54 143.226Z" fill="#3C5185"/>
</g>
<g clip-path="url(#clip0)">
<path d="M608.37 181.5V71.1343H585.106V106.911H528.185V181.5H608.37Z" fill="#AEBAD1" fill-opacity="0.1"/>
<path d="M698.978 64.1803L647.014 14V71.1343H618.793V181.5H698.978V64.1803Z" fill="#AEBAD1" fill-opacity="0.1"/>
<path d="M803.527 49.1416H745.491L745.274 106.26L723.342 86.0799V181.5H803.527V49.1416Z" fill="#AEBAD1" fill-opacity="0.1"/>
</g>
<path d="M835.217 49H893.253V181.358H835V106.119L835.217 49Z" fill="#AEBAD1" fill-opacity="0.1"/>
<defs>
<clipPath id="clip0">
<rect width="275.342" height="167.5" fill="white" transform="translate(528.185 14)"/>
</clipPath>
</defs>
</svg>
