<svg xmlns="http://www.w3.org/2000/svg" xmlns:xlink="http://www.w3.org/1999/xlink" viewBox="0 0 275.69 275.71"><defs><style>.cls-1{fill:#3c5185;}.cls-2{opacity:0.25;fill:url(#linear-gradient);}.cls-10,.cls-11,.cls-13,.cls-2,.cls-3,.cls-4,.cls-5,.cls-6,.cls-7,.cls-8,.cls-9{isolation:isolate;}.cls-3{font-size:29.11px;}.cls-10,.cls-11,.cls-3,.cls-4,.cls-5,.cls-6,.cls-7,.cls-8,.cls-9{fill:#d9d3e9;font-family:Catamaran-ExtraBold, Catamaran;font-weight:800;}.cls-4{font-size:29.19px;}.cls-5{font-size:29.07px;}.cls-6{font-size:29.03px;}.cls-7{font-size:28.68px;}.cls-8{font-size:28.65px;}.cls-9{font-size:28.75px;}.cls-10{font-size:28.78px;}.cls-11{font-size:28.63px;}.cls-12{fill:#ffd14b;}.cls-13{font-size:36.28px;fill:#fff;font-family:Catamaran-SemiBold, Catamaran;font-weight:600;}</style><linearGradient id="linear-gradient" x1="36.3" y1="107.6" x2="275.14" y2="107.6" gradientTransform="matrix(1, 0, 0, -1, 0, 263.86)" gradientUnits="userSpaceOnUse"><stop offset="0" stop-color="#5b5da9"/><stop offset="1" stop-color="#859dcb"/></linearGradient></defs><g id="Layer_2" data-name="Layer 2"><g id="Layer_1-2" data-name="Layer 1"><g id="Layer_1-2-2" data-name="Layer 1-2"><path class="cls-1" d="M261.93,189.34l-3.31,1.52a23.66,23.66,0,0,0-13.68,24l.38,3.63a23.68,23.68,0,0,1-21.11,26,24,24,0,0,1-4.64,0l-3.64-.35a23.69,23.69,0,0,0-23.82,13.92l-1.49,3.33a23.66,23.66,0,0,1-35.3,9.65l-3-2.11a23.67,23.67,0,0,0-27.59.14l-3,2.14a23.65,23.65,0,0,1-35.39-9.28l-1.52-3.31a23.66,23.66,0,0,0-24-13.68l-3.63.38a23.7,23.7,0,0,1-26.1-24.26,8.28,8.28,0,0,1,.09-1.49l.34-3.64a23.67,23.67,0,0,0-13.91-23.82l-3.33-1.49a23.66,23.66,0,0,1-9.65-35.3l2.11-3a23.67,23.67,0,0,0-.14-27.59l-2.14-3a23.65,23.65,0,0,1,5.26-33,23.22,23.22,0,0,1,4-2.36l3.32-1.53a23.65,23.65,0,0,0,13.67-24l-.37-3.63a23.68,23.68,0,0,1,21.11-26,24,24,0,0,1,4.64,0l3.63.34a23.68,23.68,0,0,0,23.87-13.9l1.48-3.33a23.65,23.65,0,0,1,35.31-9.65l3,2.11A23.65,23.65,0,0,0,151,6.65l3-2.14a23.65,23.65,0,0,1,33,5.26,23.22,23.22,0,0,1,2.36,4L191,17.12A23.68,23.68,0,0,0,215,30.8l3.63-.38a22.6,22.6,0,0,1,3.39-.11,23.67,23.67,0,0,1,22.71,24.61c0,.42,0,.83-.08,1.25l-.35,3.63A23.68,23.68,0,0,0,258,83.63l3.33,1.48A23.67,23.67,0,0,1,271,120.42l-2.11,3a23.65,23.65,0,0,0,.14,27.58l2.14,3a23.66,23.66,0,0,1-5.33,33A23.31,23.31,0,0,1,261.93,189.34Z"/><path class="cls-2" d="M261.38,189.34l-3.31,1.52a23.64,23.64,0,0,0-13.68,24l.38,3.63a23.66,23.66,0,0,1-25.75,26l-3.64-.35a23.68,23.68,0,0,0-23.82,13.92l-1.49,3.33a23.66,23.66,0,0,1-31.25,12,23.15,23.15,0,0,1-4-2.31l-3-2.11a23.67,23.67,0,0,0-27.59.14l-3,2.14a23.65,23.65,0,0,1-35.39-9.28l-1.52-3.31a23.67,23.67,0,0,0-24-13.68l-3.63.38a23.57,23.57,0,0,1-20.39-8.11L236.7,36.81A23.58,23.58,0,0,1,244,56.17l-.35,3.63a23.65,23.65,0,0,0,13.88,23.83l3.33,1.48a23.67,23.67,0,0,1,12,31.26,24.2,24.2,0,0,1-2.31,4l-2.11,3a23.64,23.64,0,0,0,.14,27.58l2.14,3a23.67,23.67,0,0,1-9.28,35.34Z"/><text class="cls-3" transform="translate(62.61 97.07) rotate(-55.99)">F</text><text class="cls-4" transform="translate(70.56 84.71) rotate(-45)">R</text><text class="cls-5" transform="translate(83.76 71.57) rotate(-33.13)">E</text><text class="cls-5" transform="translate(97.36 62.6) rotate(-22.14)">E</text><text class="cls-5" transform="translate(118.22 54.6) rotate(-5.83)">U</text><text class="cls-5" transform="translate(138.36 52.59) rotate(6.82)">P</text><text class="cls-5" transform="translate(155.62 54.41) rotate(19.41)">D</text><text class="cls-5" transform="translate(174.22 60.98) rotate(31.92)">A</text><text class="cls-5" transform="translate(190.31 71.11) rotate(44.3)">T</text><text class="cls-6" transform="matrix(0.57, 0.82, -0.82, 0.57, 202.32, 82.73)">E</text><text class="cls-7" transform="matrix(0.6, 0.8, -0.8, 0.6, 40.43, 191.4)">A</text><text class="cls-8" transform="matrix(0.75, 0.66, -0.66, 0.75, 53.9, 209.15)">N</text><text class="cls-9" transform="translate(72.55 225) rotate(28.61)">D</text><text class="cls-7" transform="matrix(0.97, 0.25, -0.25, 0.97, 99.44, 238.12)">S</text><text class="cls-7" transform="translate(116.61 242.61) rotate(3.85)">U</text><text class="cls-7" transform="translate(139.95 243.8) rotate(-7.41)">P</text><text class="cls-7" transform="translate(160.15 240.96) rotate(-18.05)">P</text><text class="cls-10" transform="translate(179.73 234.49) rotate(-29.89)">O</text><text class="cls-7" transform="matrix(0.75, -0.66, 0.66, 0.75, 200.46, 222.21)">R</text><text class="cls-11" transform="translate(216.39 207.64) rotate(-52.33)">T</text><path class="cls-12" d="M36.34,125l3.35,9.62,10.19.21-8.12,6.12,3,9.75-8.37-5.75L28,150.75,31,141l-8.12-6.16,10.19-.21Z"/><path class="cls-12" d="M238.77,125l3.34,9.62,10.19.21-8.12,6.12,2.95,9.75-8.36-5.75-8.37,5.82,2.95-9.75-8.12-6.16,10.19-.21Z"/><text class="cls-13" transform="translate(65.14 146.19)">Life Time</text></g></g></g></svg>