<svg width="20" height="19" viewBox="0 0 20 19" fill="none" xmlns="http://www.w3.org/2000/svg">
<path d="M6.74687 15.2691H4.17477V7.53114H6.74687V15.2691ZM5.46179 6.47526H5.44417C4.58027 6.47526 4.02393 5.8817 4.02393 5.13729C4.02393 4.37721 4.59986 3.79932 5.47747 3.79932C6.35901 3.79932 6.89967 4.37721 6.91535 5.13729C6.91535 5.8817 6.35901 6.47526 5.46179 6.47526ZM16.0245 15.2691H13.4504V11.1298C13.4504 10.0895 13.0802 9.3804 12.1497 9.3804C11.4366 9.3804 11.0135 9.85838 10.8274 10.3207C10.7608 10.4872 10.7451 10.7184 10.7451 10.9476V15.2729H8.17103C8.17103 15.2729 8.20434 8.25988 8.17103 7.5331H10.7451V8.62816C11.086 8.1012 11.6991 7.35092 13.0626 7.35092C14.7551 7.35092 16.0245 8.45773 16.0245 10.8359V15.2691Z" fill="white"/>
</svg>
