<svg width="40" height="32" viewBox="0 0 40 32" fill="none" xmlns="http://www.w3.org/2000/svg">
<path d="M15.8936 20.6251C16.8311 21.1069 17.8936 21.3751 19.0186 21.3751C20.1436 21.3751 21.2061 21.1063 22.1436 20.6251V22.6251L20.8936 23.8751L19.0186 23.2501L17.1436 23.8751L15.8936 22.6251V20.6251Z" fill="#87BCF4"/>
<path d="M17.1436 23.875L19.0186 23.25L20.8936 23.875L22.1436 22.625H24.6436C26.7129 22.625 28.3936 24.3 28.3936 26.375V30.125C28.3936 30.8125 27.8317 31.375 27.1436 31.375H10.8936C10.1998 31.375 9.64355 30.8125 9.64355 30.125V26.375C9.64355 24.3 11.3186 22.625 13.3936 22.625H15.8936L17.1436 23.875Z" fill="#374C82"/>
<path d="M24.6435 22.625H22.7666C24.836 22.625 26.5166 24.3 26.5166 26.375V30.125C26.5166 30.8125 25.9547 31.375 25.2666 31.375H27.1435C27.8316 31.375 28.3935 30.8125 28.3935 30.125V26.375C28.3935 24.3 26.7128 22.625 24.6435 22.625Z" fill="#70D6F9"/>
<path d="M25.8936 14.4938V14.5C25.8936 15.3812 25.7248 16.225 25.4248 17C24.8061 18.5688 23.6311 19.8625 22.1436 20.625C21.2061 21.1069 20.1436 21.375 19.0186 21.375C17.8936 21.375 16.8311 21.1062 15.8936 20.625C14.3998 19.8625 13.2248 18.575 12.6123 17C12.3129 16.225 12.1436 15.3812 12.1436 14.5V14.4938V12L14.0186 10.125C14.0186 10.125 16.3373 11.375 19.0186 11.375C21.6936 11.375 24.0186 10.125 24.0186 10.125L25.8936 12V14.4938Z" fill="#70D6F9"/>
<path d="M24.0192 10.125L24.0173 10.1263V14.4938V14.5C24.0173 15.3812 23.8486 16.225 23.5486 17C22.9298 18.5688 21.7548 19.8625 20.2673 20.625C19.5954 20.97 18.8579 21.2006 18.0811 21.3062C18.3886 21.3481 18.7004 21.375 19.0192 21.375C20.1442 21.375 21.2067 21.1062 22.1442 20.625C23.6317 19.8625 24.8067 18.5688 25.4254 17C25.7254 16.225 25.8942 15.3812 25.8942 14.5V14.4938V12L24.0192 10.125Z" fill="white"/>
<path d="M14.0186 10.125L12.1436 12V8.875C12.1436 5.76875 14.6567 3.25 17.7686 3.25H22.7686V5.75C24.4936 5.75 25.8936 7.15 25.8936 8.875V12L24.0186 10.125C24.0186 10.125 21.6936 11.375 19.0186 11.375C16.3373 11.375 14.0186 10.125 14.0186 10.125Z" fill="#70D6F9"/>
<path d="M22.7686 7.625C23.4579 7.625 24.0186 8.18563 24.0186 8.875V10.125L25.8936 12V8.875C25.8936 7.15 24.4936 5.75 22.7686 5.75V3.25H20.8936V5.75C20.8936 6.78562 21.7329 7.625 22.7686 7.625Z" fill="#15133E" fill-opacity="0.5"/>
<path d="M15.8916 23.2507C15.546 23.2507 15.2666 22.9713 15.2666 22.6257V20.6251C15.2666 20.2794 15.546 20.0001 15.8916 20.0001C16.2372 20.0001 16.5166 20.2794 16.5166 20.6251V22.6257C16.5166 22.9713 16.2372 23.2507 15.8916 23.2507Z" fill="#15133E"/>
<path d="M22.1416 23.2501C21.796 23.2501 21.5166 22.9707 21.5166 22.6251V20.6251C21.5166 20.2794 21.796 20.0001 22.1416 20.0001C22.4872 20.0001 22.7666 20.2794 22.7666 20.6251V22.6251C22.7666 22.9707 22.4872 23.2501 22.1416 23.2501Z" fill="#15133E"/>
<path d="M19.0166 22C14.881 22 11.5166 18.6356 11.5166 14.5C11.5166 14.1544 11.796 13.875 12.1416 13.875C12.4872 13.875 12.7666 14.1544 12.7666 14.5C12.7666 17.9462 15.5704 20.75 19.0166 20.75C22.4629 20.75 25.2666 17.9462 25.2666 14.5C25.2666 14.1544 25.546 13.875 25.8916 13.875C26.2372 13.875 26.5166 14.1544 26.5166 14.5C26.5166 18.6356 23.1529 22 19.0166 22Z" fill="#15133E"/>
<path d="M12.1416 15.1256C11.796 15.1256 11.5166 14.8463 11.5166 14.5006V8.875C11.5166 8.53 11.796 8.25 12.1416 8.25C12.4872 8.25 12.7666 8.53 12.7666 8.875V14.5006C12.7666 14.8463 12.4872 15.1256 12.1416 15.1256Z" fill="#15133E"/>
<path d="M25.8916 9.5C25.546 9.5 25.2666 9.22 25.2666 8.875C25.2666 7.49625 24.1454 6.375 22.7666 6.375C22.421 6.375 22.1416 6.095 22.1416 5.75C22.1416 5.405 22.421 5.125 22.7666 5.125C24.8347 5.125 26.5166 6.80687 26.5166 8.875C26.5166 9.22 26.2372 9.5 25.8916 9.5Z" fill="#15133E"/>
<path d="M22.7666 6.375C22.421 6.375 22.1416 6.095 22.1416 5.75V3.25C22.1416 2.905 22.421 2.625 22.7666 2.625C23.1122 2.625 23.3916 2.905 23.3916 3.25V5.75C23.3916 6.095 23.1122 6.375 22.7666 6.375Z" fill="#15133E"/>
<path d="M22.7666 3.875H17.7666C17.421 3.875 17.1416 3.595 17.1416 3.25C17.1416 2.905 17.421 2.625 17.7666 2.625H22.7666C23.1122 2.625 23.3916 2.905 23.3916 3.25C23.3916 3.595 23.1122 3.875 22.7666 3.875Z" fill="#15133E"/>
<path d="M12.1416 9.49999C11.796 9.49999 11.5166 9.21999 11.5166 8.87499C11.5166 5.42874 14.3204 2.62561 17.7666 2.62561C18.1122 2.62561 18.3916 2.90561 18.3916 3.25061C18.3916 3.59561 18.1122 3.87561 17.7666 3.87561C15.0097 3.87561 12.7666 6.11811 12.7666 8.87499C12.7666 9.21999 12.4872 9.49999 12.1416 9.49999Z" fill="#15133E"/>
<path d="M19.0157 12C16.2126 12 13.8201 10.7293 13.7195 10.675C13.4157 10.5118 13.302 10.1331 13.4651 9.82933C13.6282 9.52621 14.0063 9.41121 14.3113 9.57433C14.3332 9.58621 16.5363 10.75 19.0157 10.75C21.5076 10.75 23.6976 9.58621 23.7195 9.57496C24.0226 9.40996 24.4026 9.52433 24.5657 9.82871C24.7295 10.1325 24.6151 10.5118 24.3113 10.675C24.212 10.7293 21.8195 12 19.0157 12Z" fill="#15133E"/>
<path d="M12.1418 12.625C11.9818 12.625 11.8218 12.5637 11.6999 12.4418C11.4555 12.1975 11.4555 11.8025 11.6999 11.5581L13.5749 9.6831C13.8193 9.43872 14.2143 9.43872 14.4586 9.6831C14.703 9.92747 14.703 10.3225 14.4586 10.5668L12.5836 12.4418C12.4618 12.5637 12.3018 12.625 12.1418 12.625Z" fill="#15133E"/>
<path d="M9.6416 26.9994C9.29598 26.9994 9.0166 26.72 9.0166 26.3744C9.0166 23.9625 10.9797 22 13.3916 22C13.7372 22 14.0166 22.2794 14.0166 22.625C14.0166 22.9706 13.7372 23.25 13.3916 23.25C11.6685 23.25 10.2666 24.6512 10.2666 26.3744C10.2666 26.72 9.98723 26.9994 9.6416 26.9994Z" fill="#15133E"/>
<path d="M15.8916 23.2506L13.3916 23.25C13.046 23.25 12.7666 22.97 12.7666 22.625C12.7666 22.2794 13.0466 22 13.3916 22L15.8916 22.0006C16.2372 22.0006 16.5166 22.2806 16.5166 22.6256C16.5166 22.9713 16.2366 23.2506 15.8916 23.2506Z" fill="#15133E"/>
<path d="M9.6416 30.75C9.29598 30.75 9.0166 30.4706 9.0166 30.125V26.3743C9.0166 26.0287 9.29598 25.7493 9.6416 25.7493C9.98723 25.7493 10.2666 26.0287 10.2666 26.3743V30.125C10.2666 30.4706 9.98723 30.75 9.6416 30.75Z" fill="#15133E"/>
<path d="M28.3916 26.9994C28.046 26.9994 27.7666 26.72 27.7666 26.3744C27.7666 24.6512 26.3647 23.25 24.6416 23.25C24.296 23.25 24.0166 22.9706 24.0166 22.625C24.0166 22.2794 24.296 22 24.6416 22C27.0535 22 29.0166 23.9625 29.0166 26.3744C29.0166 26.72 28.7372 26.9994 28.3916 26.9994Z" fill="#15133E"/>
<path d="M22.1416 23.2506C21.7966 23.2506 21.5166 22.9713 21.5166 22.6256C21.5166 22.2806 21.796 22.0006 22.1416 22.0006L24.6416 22C24.9866 22 25.2666 22.2794 25.2666 22.625C25.2666 22.97 24.9872 23.25 24.6416 23.25L22.1416 23.2506Z" fill="#15133E"/>
<path d="M28.3916 30.75C28.046 30.75 27.7666 30.4706 27.7666 30.125V26.3743C27.7666 26.0287 28.046 25.7493 28.3916 25.7493C28.7372 25.7493 29.0166 26.0287 29.0166 26.3743V30.125C29.0166 30.4706 28.7372 30.75 28.3916 30.75Z" fill="#15133E"/>
<path d="M27.1416 32H10.8916C10.546 32 10.2666 31.7206 10.2666 31.375C10.2666 31.0294 10.546 30.75 10.8916 30.75H27.1416C27.4872 30.75 27.7666 31.0294 27.7666 31.375C27.7666 31.7206 27.4872 32 27.1416 32Z" fill="#15133E"/>
<path d="M17.1418 24.5C16.9818 24.5 16.8218 24.4388 16.6999 24.3169L15.4499 23.0675C15.2055 22.8231 15.2055 22.4281 15.4499 22.1838C15.6943 21.9394 16.0893 21.9394 16.3336 22.1838L17.5836 23.4331C17.828 23.6775 17.828 24.0725 17.5836 24.3169C17.4618 24.4388 17.3018 24.5 17.1418 24.5Z" fill="#15133E"/>
<path d="M17.1415 24.5C16.8796 24.5 16.6358 24.3344 16.549 24.0725C16.4396 23.745 16.6165 23.3907 16.944 23.2819L18.819 22.6569C19.149 22.5475 19.5002 22.7244 19.6096 23.0519C19.719 23.3794 19.5421 23.7338 19.2146 23.8425L17.3396 24.4675C17.2733 24.4894 17.2071 24.5 17.1415 24.5Z" fill="#15133E"/>
<path d="M20.8918 24.5C20.7318 24.5 20.5718 24.4388 20.4499 24.3169C20.2055 24.0725 20.2055 23.6775 20.4499 23.4331L21.6999 22.1838C21.9443 21.9394 22.3393 21.9394 22.5836 22.1838C22.828 22.4281 22.828 22.8231 22.5836 23.0675L21.3336 24.3169C21.2118 24.4388 21.0518 24.5 20.8918 24.5Z" fill="#15133E"/>
<path d="M20.8914 24.5C20.8264 24.5 20.7595 24.4894 20.6939 24.4675L18.8189 23.8425C18.492 23.7337 18.3145 23.38 18.4239 23.0519C18.5327 22.725 18.8845 22.5475 19.2145 22.6569L21.0895 23.2819C21.4164 23.3906 21.5939 23.7444 21.4845 24.0725C21.397 24.3344 21.1533 24.5 20.8914 24.5Z" fill="#15133E"/>
<path d="M27.1416 32C26.796 32 26.5166 31.7206 26.5166 31.375C26.5166 31.0294 26.796 30.75 27.1416 30.75C27.4866 30.75 27.7666 30.47 27.7666 30.125C27.7666 29.7794 28.046 29.5 28.3916 29.5C28.7372 29.5 29.0166 29.7794 29.0166 30.125C29.0166 31.1588 28.176 32 27.1416 32Z" fill="#15133E"/>
<path d="M10.8916 32C9.85785 32 9.0166 31.1588 9.0166 30.125C9.0166 29.7794 9.29598 29.5 9.6416 29.5C9.98723 29.5 10.2666 29.7794 10.2666 30.125C10.2666 30.47 10.5466 30.75 10.8916 30.75C11.2372 30.75 11.5166 31.0294 11.5166 31.375C11.5166 31.7206 11.2372 32 10.8916 32Z" fill="#15133E"/>
<path d="M19.0354 27C18.6897 27 18.4072 26.7206 18.4072 26.375C18.4072 26.0294 18.6835 25.75 19.0285 25.75H19.0354C19.3804 25.75 19.6604 26.0294 19.6604 26.375C19.6604 26.7206 19.3797 27 19.0354 27Z" fill="#2D3748"/>
<path d="M19.0354 29.5C18.6897 29.5 18.4072 29.2206 18.4072 28.875C18.4072 28.5294 18.6835 28.25 19.0285 28.25H19.0354C19.3804 28.25 19.6604 28.5294 19.6604 28.875C19.6604 29.2206 19.3797 29.5 19.0354 29.5Z" fill="#2D3748"/>
</svg>
