<svg width="894" height="261" viewBox="0 0 894 261" fill="none" xmlns="http://www.w3.org/2000/svg">
<rect y="1" width="894" height="259" rx="32" fill="#374C82"/>
<path d="M0.5 17C0.5 8.43958 7.43959 1.5 16 1.5H231.623L331.341 56.7066L231.441 259.5H16C7.43958 259.5 0.5 252.56 0.5 244V17Z" stroke="white" stroke-opacity="0.1"/>
<path d="M724.085 260L589 137L724.085 1.00003" stroke="white" stroke-opacity="0.1"/>
<path d="M0 17C0 8.16344 7.16344 1 16 1H189.686L314 58L189.686 260H16C7.16344 260 0 252.837 0 244V17Z" fill="white" fill-opacity="0.02"/>
<path d="M0 33C0 15.3269 14.3269 1 32 1H189.686L485 225L189.686 260H32C14.3269 260 0 245.673 0 228V33Z" fill="#F7F9FF" fill-opacity="0.02"/>
<path d="M0.5 12C0.5 6.20101 5.20101 1.5 11 1.5H189.529L526.55 236.1L189.668 259.5H13C6.09643 259.5 0.5 253.904 0.5 247V12Z" stroke="white" stroke-opacity="0.05"/>
<path d="M893.5 244C893.5 252.837 886.337 260 877.5 260L763.97 260L644 40L763.97 1.00002L877.5 1.00003C886.337 1.00003 893.5 8.16348 893.5 17L893.5 244Z" fill="white" fill-opacity="0.02"/>
<path d="M893 244C893 252.56 886.06 259.5 877.5 259.5L764.238 259.5L612.828 32.8391L764.022 1.50002L877.5 1.50003C886.06 1.50003 893 8.43962 893 17L893 244Z" stroke="white" stroke-opacity="0.02"/>
<path d="M893.5 244C893.5 252.837 886.337 260 877.5 260L763.97 260L607.5 138.5L763.97 1.00002L877.5 1.00003C886.337 1.00003 893.5 8.16348 893.5 17L893.5 244Z" fill="white" fill-opacity="0.02"/>
</svg>
