<svg width="93" height="93" viewBox="0 0 93 93" fill="none" xmlns="http://www.w3.org/2000/svg">
<g clip-path="url(#clip0)">
<path d="M81.9727 48.9606L81.2707 49.6152C79.3153 51.4447 78.7522 54.343 79.8543 56.794L80.258 57.6639C81.8901 61.2776 79.8309 65.4602 75.9728 66.3643L75.0439 66.5924C72.4328 67.2176 70.4865 69.4071 70.2411 72.087L70.1426 73.0418C69.7575 76.9696 65.8863 79.5819 62.0908 78.4261L61.1608 78.1518C58.5802 77.3702 55.8024 78.3307 54.2412 80.5026L53.6652 81.2826C51.3694 84.5111 46.6979 84.8225 43.9956 81.9312L43.341 81.2292C41.5115 79.2738 38.6132 78.7107 36.1622 79.8128L35.2923 80.2165C33.3265 81.0999 31.1909 80.8951 29.489 79.9024C28.1979 79.1348 27.1654 77.8894 26.6931 76.3163C26.651 76.1907 26.6089 76.0652 26.5918 75.9313L26.3638 75.0024C25.7637 72.3829 23.5491 70.445 20.8691 70.1996L19.9144 70.1011C16.0034 69.7662 13.3911 65.895 14.5469 62.0995L14.8212 61.1695C15.6028 58.5889 14.6423 55.8111 12.4704 54.2499L11.6989 53.699C8.47032 51.4032 8.15892 46.7317 11.0503 44.0294L11.7522 43.3748C13.7076 41.5453 14.2708 38.647 13.1687 36.196L12.7649 35.3261C11.1328 31.7124 13.1921 27.5298 17.0502 26.6256L17.9791 26.3976C20.5902 25.7724 22.528 23.5578 22.7819 20.903L22.8803 19.9482C23.232 16.0037 27.1032 13.3914 30.8986 14.5472L31.8286 14.8215C34.4092 15.6031 37.1871 14.6426 38.7482 12.4707L39.3243 11.6907C41.62 8.46219 46.2915 8.15079 48.9938 11.0421L49.6484 11.7441C51.4779 13.6995 54.3762 14.2627 56.8272 13.1606L57.6972 12.7568C57.9649 12.639 58.2576 12.5128 58.5422 12.4452C60.04 11.9982 61.5977 12.1456 62.9555 12.7791C64.6151 13.5626 65.958 15.0669 66.4227 17.0336L66.6508 17.9625C67.2759 20.5736 69.4655 22.5199 72.1454 22.7653L73.1001 22.8638C77.0279 23.2489 79.6402 27.1201 78.4845 30.9156L78.2101 31.8456C77.4286 34.4262 78.389 37.204 80.561 38.7651L81.3409 39.3412C84.5526 41.5867 84.864 46.2583 81.9727 48.9606Z" fill="#3C5185"/>
<path opacity="0.25" d="M81.9735 48.9616L81.2715 49.6162C79.3161 51.4457 78.7529 54.344 79.8551 56.7949L80.2588 57.6649C81.8909 61.2786 79.8317 65.4612 75.9736 66.3653L75.0447 66.5934C72.4336 67.2186 70.4873 69.4081 70.2418 72.088L70.1434 73.0428C69.7582 76.9706 65.8871 79.5829 62.0916 78.4271L61.1616 78.1528C58.581 77.3712 55.8032 78.3317 54.242 80.5036L53.6659 81.2836C51.3702 84.5121 46.6987 84.8235 43.9964 81.9322L43.3418 81.2302C41.5123 79.2748 38.614 78.7116 36.163 79.8137L35.293 80.2175C33.3272 81.1009 31.1917 80.8961 29.4898 79.9033L62.9228 12.7634C64.5823 13.5469 65.9252 15.0512 66.39 17.0179L66.618 17.9468C67.2432 20.5579 69.4327 22.5041 72.1127 22.7496L73.0674 22.8481C76.9952 23.2332 79.6075 27.1044 78.4517 30.8999L78.1774 31.8299C77.3958 34.4105 78.3563 37.1883 80.5283 38.7494L81.3082 39.3255C84.5534 41.5877 84.8648 46.2592 81.9735 48.9616Z" fill="#272969"/>
<path d="M23.7681 37.9346L23.3287 39.6454L25.37 40.1607L25.0806 41.3289L19.9951 40.047L20.7741 36.9674L21.732 37.0642L21.1929 39.117L22.3964 39.4187L22.7864 37.8493L23.7681 37.9346Z" fill="#D9D3E9"/>
<path d="M21.342 35.3412L22.1728 33.5887C22.4297 33.024 22.7786 32.6501 23.2203 32.4078C23.6381 32.1771 24.1117 32.1839 24.6411 32.4285C24.9115 32.5627 25.1457 32.7437 25.2845 32.9708C25.4234 33.1978 25.5145 33.4478 25.534 33.7323L28.0115 33.567L27.4253 34.7901L25.363 34.9023L24.9481 35.7489L26.5945 36.5426L26.0815 37.6128L21.342 35.3412ZM23.0424 34.0514L22.7493 34.6629L24.0899 35.3101L24.3954 34.6632C24.5173 34.4281 24.5322 34.2151 24.4879 34.0013C24.4437 33.7875 24.3155 33.6435 24.0919 33.5456C23.8568 33.4237 23.6554 33.4326 23.4884 33.5131C23.2976 33.6051 23.1528 33.7924 23.0424 34.0514Z" fill="#D9D3E9"/>
<path d="M28.3136 33.2161L24.156 30.0174L26.1598 27.4056L26.9941 27.8559L25.6182 29.636L26.555 30.3602L27.5689 29.0485L28.4032 29.4989L27.3045 30.9395L28.2768 31.676L29.7375 29.767L30.5717 30.2173L28.3136 33.2161Z" fill="#D9D3E9"/>
<path d="M31.0027 29.8335L27.5305 25.9223L30.0019 23.7318L30.7391 24.3465L29.0476 25.8378L29.8281 26.7255L31.0638 25.6303L31.801 26.245L30.4451 27.4569L31.261 28.3569L33.0727 26.749L33.8098 27.3637L31.0027 29.8335Z" fill="#D9D3E9"/>
<path d="M34.3892 20.9409L35.7563 23.8386C35.9173 24.1725 36.1153 24.4004 36.3866 24.4754C36.634 24.5619 36.9185 24.5423 37.2047 24.4044C37.491 24.2664 37.695 24.0799 37.77 23.8086C37.8565 23.5612 37.8255 23.2528 37.676 22.9428L36.3089 20.0451L37.4061 19.5163L38.8077 22.4855C38.9916 22.8671 39.0457 23.2232 39.0167 23.5899C38.9876 23.9566 38.8526 24.2862 38.6115 24.5788C38.3704 24.8714 38.0471 25.1153 37.6416 25.3108C37.2361 25.5062 36.8438 25.6071 36.4533 25.5896C36.0742 25.5959 35.7207 25.4723 35.4273 25.2904C35.1339 25.1085 34.9014 24.8091 34.7175 24.4274L33.3158 21.4582L34.3892 20.9409Z" fill="#D9D3E9"/>
<path d="M41.6795 23.7464L40.5151 24.0137L39.3697 18.8929L41.2472 18.4583C41.6395 18.3574 41.9947 18.3626 42.3375 18.4031C42.6918 18.4675 42.9623 18.6017 43.208 18.8066C43.4537 19.0115 43.6031 19.3215 43.704 19.7138C43.7934 20.0822 43.7644 20.4489 43.6417 20.7432C43.4951 21.049 43.2902 21.2947 43.0031 21.4918C42.7161 21.689 42.3706 21.8261 42.0022 21.9155L41.3608 22.0482L41.6795 23.7464ZM41.3987 19.4434L40.7334 19.5877L41.0892 21.1798L41.7783 21.024C42.016 20.9683 42.2192 20.8409 42.3516 20.6889C42.4726 20.513 42.5229 20.3124 42.4672 20.0748C42.3999 19.8133 42.2726 19.6101 42.1082 19.513C41.9085 19.4035 41.684 19.3647 41.3987 19.4434Z" fill="#D9D3E9"/>
<path d="M47.1477 23.0805L44.9803 23.0963L44.9615 17.8735L47.1405 17.8815C47.6733 17.8892 48.1098 18.0021 48.4739 18.2088C48.8495 18.4392 49.1059 18.7272 49.3013 19.1327C49.4852 19.5143 49.5852 19.9658 49.5899 20.4632C49.5821 20.996 49.4922 21.4803 49.297 21.8682C49.1019 22.2562 48.8131 22.5718 48.443 22.7795C48.0852 22.952 47.6452 23.0759 47.1477 23.0805ZM47.1505 18.8172L46.1795 18.8149L46.179 22.1071L47.0908 22.1085C47.4699 22.1022 47.7915 21.9766 48.0087 21.6956C48.226 21.4145 48.3504 21.0018 48.3466 20.4452C48.342 19.9477 48.2412 19.5554 48.044 19.2683C47.8354 18.9574 47.5296 18.8108 47.1505 18.8172Z" fill="#D9D3E9"/>
<path d="M53.8323 18.6537L54.6526 24.1369L53.4703 24.0012L53.3231 22.7201L51.4816 22.3144L50.8511 23.3237L49.6705 23.0696L52.7586 18.3775L53.8323 18.6537ZM52.9245 20.0024L52.0034 21.4456L53.184 21.6996L52.9245 20.0024Z" fill="#D9D3E9"/>
<path d="M60.4478 22.1965L58.8713 21.4867L57.0738 25.3804L55.9797 24.879L57.7772 20.9852L56.342 20.3248L56.7455 19.4544L60.7099 21.2766L60.4478 22.1965Z" fill="#D9D3E9"/>
<path d="M59.0259 26.3798L62.0956 22.1374L64.7674 24.083L64.3286 24.9411L62.5124 23.612L61.8235 24.5612L63.1714 25.5282L62.7325 26.3864L61.2795 25.3231L60.5545 26.3192L62.4998 27.733L62.061 28.5912L59.0259 26.3798Z" fill="#D9D3E9"/>
<path d="M32.1811 65.6209L30.8611 70.9239L29.8384 70.3734L30.1791 69.1419L28.6445 68.065L27.6747 68.7537L26.6936 68.0776L31.2671 64.9781L32.1811 65.6209ZM30.8349 66.5197L29.4303 67.494L30.4114 68.1701L30.8349 66.5197Z" fill="#D9D3E9"/>
<path d="M32.0765 71.6336L34.0843 66.8817L35.1235 67.3149L35.9269 71.0392L37.1432 68.173L38.2495 68.6396L36.2417 73.3914L35.2025 72.9582L34.3824 69.2674L33.1827 72.1001L32.0765 71.6336Z" fill="#D9D3E9"/>
<path d="M40.2124 74.3205L38.1016 73.9398L39.0453 68.8469L41.1645 69.2527C41.6671 69.3353 42.0945 69.527 42.4133 69.811C42.7321 70.095 42.9338 70.4463 43.0435 70.8563C43.1533 71.2664 43.1626 71.7101 43.0799 72.2127C42.9806 72.7488 42.814 73.1678 42.5384 73.5117C42.2629 73.8556 41.9285 74.1075 41.5604 74.259C41.1588 74.3938 40.715 74.4031 40.2124 74.3205ZM40.9824 70.2076L40.0274 70.0254L39.4481 73.2085L40.3444 73.3824C40.7297 73.4485 41.0394 73.3725 41.3235 73.1375C41.5826 72.9108 41.7827 72.5085 41.8821 71.9724C41.9731 71.495 41.9472 71.0847 41.7874 70.7753C41.6277 70.4658 41.3677 70.2738 40.9824 70.2076Z" fill="#D9D3E9"/>
<path d="M45.6471 74.5344L45.913 73.5793C46.0807 73.6627 46.2985 73.7292 46.5415 73.7873C46.7844 73.8454 47.0105 73.8533 47.178 73.8529C47.4207 73.8273 47.63 73.785 47.7637 73.6842C47.8975 73.5835 47.9391 73.4578 47.9471 73.3154C47.9385 73.2066 47.8881 73.1397 47.7791 73.0646C47.6701 72.9894 47.4941 72.881 47.2594 72.7642C47.2007 72.756 47.1253 72.6976 47.0247 72.6475C46.6559 72.4641 46.3792 72.3056 46.1696 72.1805C45.96 72.0553 45.7922 71.8882 45.616 71.696C45.4648 71.4954 45.3639 71.2779 45.3549 71.0016C45.3459 70.7253 45.404 70.4823 45.5208 70.2476C45.671 70.0296 45.8548 69.8283 46.1225 69.7105C46.3817 69.5676 46.7165 69.4831 47.1016 69.4656C47.3444 69.4399 47.604 69.4645 47.9056 69.5308C48.2071 69.5972 48.425 69.6637 48.6262 69.7638L48.3099 70.652C48.0585 70.5688 47.8407 70.5023 47.6899 70.4691C47.5391 70.4359 47.3716 70.4363 47.1791 70.4451C46.9865 70.4538 46.8359 70.5044 46.7272 70.5967C46.6186 70.6891 46.5686 70.7897 46.5605 70.932C46.5691 71.0409 46.6279 71.1328 46.7369 71.208C46.8459 71.2831 47.0136 71.3665 47.2232 71.4916C47.3153 71.5165 47.3908 71.575 47.483 71.5999C47.8518 71.7833 48.1535 71.9334 48.3631 72.0586C48.5727 72.1837 48.7405 72.3508 48.9083 72.5179C49.0595 72.7185 49.1604 72.936 49.1694 73.2123C49.1784 73.4886 49.1287 73.7567 48.9784 73.9747C48.8366 74.2178 48.6193 74.4025 48.3349 74.5538C48.0506 74.7051 47.6907 74.798 47.2805 74.824C47.0377 74.8496 46.7446 74.8084 46.4179 74.7505C46.0912 74.6926 45.8148 74.6178 45.6471 74.5344Z" fill="#D9D3E9"/>
<path d="M50.4251 69.1319L51.2271 72.1864C51.32 72.5462 51.4795 72.772 51.6976 72.9222C51.9407 73.064 52.2003 73.0886 52.5099 73.0126C52.8196 72.9366 53.0453 72.777 53.162 72.5423C53.3039 72.2992 53.32 72.0145 53.2356 71.6797L52.4336 68.6252L53.5884 68.3214L54.3906 71.4595C54.4919 71.8445 54.4843 72.238 54.4013 72.5731C54.2932 72.9167 54.1096 73.2018 53.8339 73.4619C53.5497 73.697 53.1984 73.8987 52.7549 73.9917C52.3197 74.1099 51.9346 74.1274 51.566 74.0277C51.2057 73.9532 50.8956 73.778 50.6438 73.5273C50.3921 73.2767 50.1988 72.9505 50.1226 72.5572L49.2954 69.4274L50.4251 69.1319Z" fill="#D9D3E9"/>
<path d="M57.6326 72.1312L56.5787 72.6525L54.3248 68.0186L56.0312 67.1944C56.3909 67.0178 56.7256 66.9334 57.0521 66.9076C57.3786 66.8817 57.7137 66.9648 57.9819 67.0982C58.2586 67.2567 58.4852 67.5157 58.6534 67.8503C58.8216 68.1849 58.8809 68.528 58.823 68.8547C58.7651 69.1814 58.6066 69.4581 58.3643 69.7349C58.1221 70.0117 57.8211 70.1966 57.4865 70.3647L56.9094 70.6423L57.6326 72.1312ZM56.4265 68.0393L55.7992 68.3337L56.5056 69.7723L57.1329 69.4779C57.3504 69.377 57.5175 69.2092 57.5925 69.0164C57.6674 68.8237 57.6837 68.6227 57.5828 68.4052C57.4734 68.1626 57.3056 67.9955 57.0962 67.9541C56.9035 67.8792 56.6691 67.9299 56.4265 68.0393Z" fill="#D9D3E9"/>
<path d="M62.3161 69.4416L61.3547 70.1554L58.2812 65.9921L59.8278 64.8585C60.1371 64.615 60.455 64.4804 60.7898 64.3959C61.1245 64.3115 61.4343 64.3192 61.7443 64.4106C62.0543 64.5021 62.3227 64.7192 62.5411 65.0369C62.7595 65.3546 62.8941 65.6725 62.8864 65.9823C62.8787 66.2921 62.7957 66.6272 62.6121 66.9123C62.4285 67.1974 62.1863 67.4742 61.8686 67.6926L61.3586 68.0872L62.3161 69.4416ZM60.3487 65.6612L59.7886 66.0727L60.7542 67.3684L61.3144 66.957C61.515 66.8058 61.6486 66.6213 61.69 66.4119C61.7314 66.2025 61.6891 65.9933 61.5464 65.8177C61.3868 65.592 61.2107 65.4835 60.9762 65.4505C60.8003 65.4258 60.566 65.4765 60.3487 65.6612Z" fill="#D9D3E9"/>
<path d="M63.2031 61.6029C63.5707 61.2002 63.9553 60.9315 64.3904 60.8133C64.8256 60.6952 65.2609 60.6607 65.6966 60.7938C66.1238 60.9017 66.5346 61.1269 66.9038 61.4778C67.298 61.8202 67.5752 62.2299 67.7185 62.6567C67.8701 63.1085 67.9046 63.5438 67.8302 63.9877C67.7306 64.4401 67.5305 64.8424 67.1881 65.2367C66.8456 65.631 66.4359 65.9082 66.0008 66.0263C65.5741 66.1696 65.1303 66.1789 64.6695 66.0543C64.2423 65.9463 63.8315 65.7211 63.4372 65.3787C63.043 65.0362 62.7742 64.6516 62.6225 64.1998C62.4709 63.748 62.4364 63.3127 62.5108 62.8687C62.6606 62.3995 62.8607 61.9972 63.2031 61.6029ZM64.2977 64.4474C64.6584 64.7732 65.0523 64.9482 65.4543 64.9808C65.8563 65.0135 66.1993 64.8704 66.4833 64.5516C66.642 64.3587 66.7671 64.1491 66.8001 63.9146C66.8582 63.6716 66.799 63.4122 66.7148 63.1612C66.597 62.8935 66.4039 62.6511 66.1186 62.3838C65.8837 62.1833 65.6322 62.0164 65.3808 61.9332C65.1295 61.85 64.8698 61.8254 64.6104 61.8846C64.351 61.9438 64.1419 62.0698 63.9581 62.2711C63.7994 62.4641 63.6743 62.6737 63.6497 62.9333C63.6252 63.1929 63.6508 63.4357 63.7686 63.7034C63.8613 63.9795 64.0544 64.2219 64.2977 64.4474Z" fill="#D9D3E9"/>
<path d="M65.2586 59.3203L66.2096 57.6604C66.5099 57.1406 66.8859 56.763 67.3293 56.5862C67.7642 56.3843 68.2249 56.4252 68.7111 56.7089C68.9877 56.8674 69.164 57.0596 69.2985 57.2937C69.4329 57.5279 69.4921 57.7873 69.5011 58.0636L71.9377 58.0835L71.2619 59.2321L69.2271 59.1611L68.7683 59.9575L70.3276 60.8585L69.7269 61.898L65.2586 59.3203ZM67.0228 58.1694L66.6892 58.7562L67.9718 59.4987L68.3306 58.9034C68.4558 58.6938 68.5139 58.4509 68.48 58.2668C68.4377 58.0575 68.3285 57.8987 68.1273 57.7986C67.9177 57.6735 67.7083 57.632 67.541 57.7161C67.3067 57.7669 67.1647 57.9263 67.0228 58.1694Z" fill="#D9D3E9"/>
<path d="M69.7135 51.7919L69.1392 53.4092L73.1278 54.8074L72.7283 55.9469L68.7397 54.5488L68.2237 56.0068L67.3354 55.6905L68.767 51.6349L69.7135 51.7919Z" fill="#D9D3E9"/>
<path d="M20.0777 51.7813L21.715 53.913L24.2921 53.1037L22.7814 55.3425L24.3602 57.5497L21.763 56.8016L20.1432 58.9653L20.0704 56.2526L17.5148 55.3789L20.0583 54.4692L20.0777 51.7813Z" fill="#FFD14B"/>
<path d="M69.5777 35.1642L71.215 37.2958L73.7922 36.4865L72.2814 38.7253L73.8603 40.9325L71.263 40.1844L69.6432 42.3482L69.5704 39.6354L67.0148 38.7617L69.5583 37.852L69.5777 35.1642Z" fill="#FFD14B"/>
<path d="M43.8086 44.8476L41.6851 38.5221L40.2983 39.9652L38.418 37.7755L41.409 34.7045L43.1661 34.1147L46.4778 43.9795L43.8171 44.8727L43.8086 44.8476Z" fill="white"/>
<path d="M39.2014 59.5778L37.9289 55.7875L32.9039 51.3018L34.2916 50.2774L38.1762 53.9449L39.2371 48.8685L40.9189 48.3039L39.5439 55.2733L40.7828 59.0469L39.2014 59.5778Z" fill="white"/>
<path d="M50.0879 52.5713L45.3437 54.1639C45.9072 55.3433 46.8374 55.7014 48.1427 55.2632C48.5192 55.1368 48.8287 54.977 49.0711 54.784C49.3135 54.5909 49.6144 54.3223 49.9486 53.9866L50.8131 54.9812C50.237 55.7611 49.4763 56.3237 48.5475 56.6355C47.2925 57.0569 46.2542 57.0423 45.3573 56.6172C44.4856 56.1837 43.8644 55.4147 43.4936 54.3102C43.2492 53.5823 43.1641 52.9126 43.2632 52.2928C43.3539 51.6478 43.5956 51.1198 43.9965 50.6501C44.3974 50.1803 44.9493 49.8275 45.6271 49.6C46.6311 49.2629 47.5188 49.328 48.2483 49.8372C49.003 50.338 49.5405 51.1071 49.886 52.1363L50.0377 52.5881L50.0879 52.5713ZM45.0149 53.1012L48.2028 52.031C47.9505 51.5292 47.64 51.1866 47.2712 51.0031C46.9024 50.8197 46.5088 50.8122 46.0821 50.9554C45.6303 51.1071 45.3043 51.3841 45.1209 51.7529C44.9626 52.1133 44.9217 52.5739 45.0149 53.1012Z" fill="white"/>
<path d="M51.238 49.839L50.3731 48.677C50.5736 48.4421 50.8995 48.1651 51.3594 47.871C51.8193 47.577 52.2292 47.3835 52.5555 47.274C53.0826 47.097 53.5933 47.0373 54.1209 47.1116C54.6486 47.1858 55.0676 47.3524 55.445 47.6446C55.8224 47.9369 56.0828 48.2964 56.2429 48.7733L57.7849 53.3668L56.7307 53.7207L56.2437 53.1022C56.0519 53.4459 55.8181 53.7478 55.5507 54.0331C55.2499 54.3016 54.9573 54.5116 54.6059 54.6296C53.8026 54.8992 53.1328 54.9007 52.5963 54.6339C52.0599 54.3671 51.657 53.9158 51.4379 53.2631C51.2104 52.5854 51.2509 51.9573 51.6014 51.4207C51.952 50.8841 52.487 50.481 53.2651 50.2198L54.7712 49.7142C54.4259 48.7688 53.8642 48.4267 53.0358 48.7048C52.4334 48.907 51.8062 49.2851 51.238 49.839ZM52.8351 52.7661C52.9194 53.0172 53.0872 53.1843 53.3304 53.3261C53.5651 53.4428 53.8498 53.459 54.151 53.3578C54.4522 53.2567 54.703 53.0887 54.9621 52.8621C55.2128 52.6104 55.4048 52.3504 55.5716 52.0151L55.1587 50.7851L53.6275 51.2992C53.276 51.4171 53.0336 51.6102 52.9087 51.9036C52.7502 52.1802 52.734 52.4649 52.8351 52.7661Z" fill="white"/>
<path d="M60.939 52.2808L59.3576 52.8117L57.0571 45.959L57.9106 45.6725L58.8169 46.6251C59.0756 46.231 59.3595 45.8285 59.7103 45.4593C60.0612 45.0901 60.4207 44.8298 60.747 44.7203L61.5031 45.8909C61.1517 46.0089 60.8173 46.2608 60.4413 46.6384C60.0653 47.016 59.7397 47.4604 59.4728 47.9131L60.939 52.2808Z" fill="white"/>
</g>
<defs>
<clipPath id="clip0">
<rect width="73" height="73" fill="white" transform="translate(0.281738 23.5137) rotate(-18.5572)"/>
</clipPath>
</defs>
</svg>
