<svg xmlns="http://www.w3.org/2000/svg" xmlns:xlink="http://www.w3.org/1999/xlink" viewBox="0 0 338 39"><defs><style>.cls-1{fill:none;}.cls-18,.cls-2{fill:#fff;}.cls-2{fill-opacity:0.71;}.cls-3{clip-path:url(#clip-path);}.cls-4{fill:#ec9608;}.cls-5{fill:#ea9811;}.cls-6{fill:#0c0d0e;}.cls-7{fill:#0e0f11;}.cls-8{fill:#0d0e10;}.cls-9{fill:#0f0f11;}.cls-10{fill:#0c0d0f;}.cls-11{fill:#171919;}.cls-12{fill:#fcf8ea;}.cls-13{fill:#fbf6e7;}.cls-14{fill:#fbf7e9;}.cls-15{fill:#e99815;}.cls-16{fill:#e6991e;}.cls-17{fill:#374c82;}.cls-19{clip-path:url(#clip-path-2);}.cls-20{fill:#11348e;}.cls-21{fill:#3a9de4;}.cls-22{fill:#09256e;}.cls-23{fill:#3c9fe5;}.cls-24{fill:#153890;}.cls-25{fill:#3da0e5;}.cls-26{fill:#153790;}.cls-27{fill:#1b3446;}.cls-28{fill:#244d67;}.cls-29{fill:url(#linear-gradient);}.cls-30{fill:url(#linear-gradient-2);}.cls-31{fill:url(#linear-gradient-3);}.cls-32{fill:#27516f;}</style><clipPath id="clip-path"><rect class="cls-1" x="175" y="8" width="69" height="23"/></clipPath><clipPath id="clip-path-2"><rect class="cls-1" x="90" y="8" width="59" height="23"/></clipPath><linearGradient id="linear-gradient" x1="273.63" y1="342.79" x2="283.05" y2="342.79" gradientTransform="matrix(1, 0, 0, -1, 0, 355.15)" gradientUnits="userSpaceOnUse"><stop offset="0" stop-color="#fff" stop-opacity="0"/><stop offset="0.86" stop-color="#3e8c00"/></linearGradient><linearGradient id="linear-gradient-2" x1="273.63" y1="340.22" x2="283.05" y2="340.22" xlink:href="#linear-gradient"/><linearGradient id="linear-gradient-3" x1="273.54" y1="337.65" x2="282.96" y2="337.65" xlink:href="#linear-gradient"/></defs><g id="Layer_2" data-name="Layer 2"><g id="Layer_1-2" data-name="Layer 1"><path class="cls-2" d="M338,35V4a4,4,0,0,0-4-4H4A4,4,0,0,0,0,4V35a4,4,0,0,0,4,4H334A4,4,0,0,0,338,35Z"/><g class="cls-3"><path class="cls-4" d="M240.88,27.91c-.62-4.3-1.27-8.62-1.86-12.92-.28-2.05-1.35-3-3.31-2.65-5.53.88-11,1.82-16.57,2.65-1.37.21-2.76.82-4.23.1,0,.26,0,.44,0,.59.65,4.43,1.29,8.85,2,13.27A2.34,2.34,0,0,0,219.55,31h18.79A2.52,2.52,0,0,0,240.88,27.91Zm-16.83-3.67a2.07,2.07,0,0,1-2.76.67c-.42-.15-.53-.1-.52.35s0,1.14,0,1.73c0,.84-.55.61-1,.65s-.72-.07-.71-.65c0-1.31,0-2.65,0-4V19.4c0-.8.67-1.24,1.3-.73a.56.56,0,0,0,.76.08c1.7-.86,3.17-.08,3.52,1.88A4.53,4.53,0,0,1,224.05,24.24Zm6.62,0c0,.79-.57,1.21-1.16.72s-.68-.15-1,0a1.93,1.93,0,0,1-2.38-.4,2.12,2.12,0,0,1-.11-2.43,2.35,2.35,0,0,1,2.27-.95c.32,0,.84.38.85-.38,0-.59-.16-1-.8-1.08a6.88,6.88,0,0,0-1.57.19c-.23,0-.59.32-.64-.19,0-.33-.26-.78.24-1a4.42,4.42,0,0,1,3.42-.17,1.61,1.61,0,0,1,.91,1.54c0,.75,0,1.49,0,2.26h0C230.68,23,230.68,23.63,230.67,24.24Zm6.4-5.09c-.84,2.45-1.62,4.91-2.51,7.34a1.88,1.88,0,0,1-2.36,1.25c-.48-.1-.53-.38-.55-.8s.15-.59.59-.61c1-.08,1.43-.74,1.08-1.78-.56-1.68-1.18-3.35-1.74-5.05-.08-.26-.56-.68,0-.92a1.18,1.18,0,0,1,1.59.56c.35,1.26.68,2.53,1,3.79l.18,0,1-3.71a1.26,1.26,0,0,1,1.67-.61C237.23,18.77,237.12,19,237.07,19.15Z"/><path class="cls-5" d="M244,24.57a2.63,2.63,0,0,1-1.22,2.22c-.43.29-.65.29-.73-.35-.65-4.55-1.32-9.07-2-13.62-.33-2.27-1.27-3-3.49-2.53l-18.07,3.42c-.1,0-.21,0-.33.07-.38.07-.77.08-.85-.42s.21-.66.62-.75c1-.2,2-.45,3-.67q5.84-1.28,11.68-2.57c2.07-.45,4.13-.92,6.2-1.34A2.59,2.59,0,0,1,242,10.15c.72,4.74,1.37,9.49,2,14.22C244,24.46,244,24.51,244,24.57Z"/><path class="cls-6" d="M189.39,24.86c0,.68-.4.55-.79.55s-.87.14-.87-.57c0-1.25,0-2.48,0-3.73,0-.45,0-.92-.58-1s-.85.4-.89.92c0,1.22-.06,2.43,0,3.64,0,.68-.28.75-.8.73s-.87,0-.84-.71c0-1.14,0-2.31,0-3.47,0-.52,0-1.14-.73-1.13s-.76.61-.77,1.13c0,1.16-.05,2.31,0,3.47,0,.71-.33.69-.83.71s-.82,0-.81-.73c.09-1.75,0-3.52,0-5.29,0-.34-.11-.74.49-.76.92,0,1,0,1.1.76,1.11-1.25,2-1.19,3,.14a6.25,6.25,0,0,1,.4-.5,1.6,1.6,0,0,1,1.84-.38,1.5,1.5,0,0,1,1,1.52C189.4,21.74,189.37,23.3,189.39,24.86Z"/><path class="cls-7" d="M180.52,24.27a4.78,4.78,0,0,1-.37-2.38V20.8c0-1.33-.45-2-1.52-2.24a2.82,2.82,0,0,0-3.18,1.1c-.4.76-.33.88.49,1,.41.07.7.09.92-.42a.81.81,0,0,1,1.13-.4.82.82,0,0,1,.47.92c0,.61-.53.33-.84.44s-.7.12-1.05.22A2,2,0,0,0,175,23.26a1.82,1.82,0,0,0,.7,1.91,2,2,0,0,0,2.42-.1c.42-.31.67-.42,1,.08.13.21.37.44.6.14S180.82,24.79,180.52,24.27Zm-2-1.6c0,.87-.45,1.57-1,1.57s-.74-.44-.74-.94a1.22,1.22,0,0,1,1.32-1.15C178.49,22.15,178.49,22.15,178.48,22.67Z"/><path class="cls-8" d="M195.71,23.77a1,1,0,0,1-.16-.75c0-.73,0-1.44,0-2.17,0-1.64-.7-2.36-2.3-2.36a2.65,2.65,0,0,0-2.19.85c-.25.32-.54.72-.38,1.08s.63.19,1,.29.46-.05.56-.34a.81.81,0,0,1,.75-.58c.52-.05.82.25.92.79s-.25.57-.63.62a5.72,5.72,0,0,0-1.15.23,2.06,2.06,0,0,0-1.69,1.89,1.75,1.75,0,0,0,.77,1.87,2.06,2.06,0,0,0,2.49-.21c.33-.26.51-.33.76.07s.57.4.94.05S196.27,24.39,195.71,23.77Zm-1.83-1.17v.14a1.73,1.73,0,0,1,0,.32l0,.2a.89.89,0,0,0,0,.14s0,0,0,.07a1,1,0,0,1-.08.18s0,.05,0,.07a0,0,0,0,0,0,0l-.07.1s0,.06-.07.07v0a.46.46,0,0,1-.07.07l-.08.07-.09.05,0,0h-.05l0,0a.15.15,0,0,1-.08,0h-.22c-.52-.07-.65-.47-.65-.94a1.23,1.23,0,0,1,1.32-1.14h.27l.05,0s0,0,0,0l0,0a0,0,0,0,0,0,0l0,0a.1.1,0,0,0,0,0Z"/><path class="cls-8" d="M212.18,25.43c-.48,0-.86,0-.83-.69.05-1,0-2,0-3,0-.31,0-.62-.07-.95a.69.69,0,0,0-.57-.66.71.71,0,0,0-.77.52,2.72,2.72,0,0,0-.18,1.09c0,1,0,2.08,0,3.12,0,.66-.4.58-.77.58s-.88.15-.86-.56c0-1.87,0-3.75,0-5.62,0-.4.11-.61.51-.55s1.21-.35,1,1c.72-1.05,1.4-1.35,2.27-1a1.76,1.76,0,0,1,1,1.89c0,1.39,0,2.77,0,4.14C213,25.38,212.7,25.45,212.18,25.43Z"/><path class="cls-9" d="M198.38,28a12.11,12.11,0,0,1-4.14,1.92,14.27,14.27,0,0,1-13.37-3.05,5.21,5.21,0,0,1-.47-.47s0-.1,0-.17c.32-.19.53.08.75.21a19,19,0,0,0,16.58,1.07l.38-.15c.22-.09.45-.2.59.08S198.56,27.83,198.38,28Z"/><path class="cls-10" d="M206.89,20.09a2.4,2.4,0,0,0-2.31-1.56,2.35,2.35,0,0,0-2.29,1.58,4.85,4.85,0,0,0,.05,3.93,2.3,2.3,0,0,0,2.49,1.46c1.49-.15,2.42-1.51,2.42-3.55A4,4,0,0,0,206.89,20.09Zm-1.54,3.49a.78.78,0,0,1-.79.64c-.38,0-.57-.3-.68-.64a6,6,0,0,1-.19-1.67,4.56,4.56,0,0,1,.22-1.56.77.77,0,0,1,.8-.49.73.73,0,0,1,.66.58A6.08,6.08,0,0,1,205.35,23.58Z"/><path class="cls-8" d="M201.37,25c-.12.26-.3.19-.48.1a4.42,4.42,0,0,0-3.73,0c-.28.12-.43.07-.43-.26a2.65,2.65,0,0,1,.38-1.81c.68-.93,1.3-1.92,2-3.05-.66,0-1.17,0-1.65,0s-.57-.28-.58-.71.08-.69.58-.68c.92,0,1.84,0,2.76,0,.32,0,.78-.19.92.14a1.45,1.45,0,0,1-.2,1.39c-.65.93-1.27,1.89-2,2.91a8,8,0,0,1,1.77.38A1.34,1.34,0,0,1,201.37,25Z"/><path class="cls-11" d="M198.88,29.54c.2-.71.38-1.37.59-2s-.09-1-.76-1-1.27.07-2,.1c.74-.88,2.88-1.3,3.6-.76a.75.75,0,0,1,.2.35A3.76,3.76,0,0,1,198.88,29.54Z"/><path class="cls-12" d="M224.67,20.61c-.35-1.94-1.83-2.72-3.53-1.87a.54.54,0,0,1-.75-.09c-.62-.49-1.29-.07-1.31.73,0,1.21,0,2.43,0,3.62s0,2.66,0,4c0,.57.23.69.7.64s1,.17,1-.64c0-.58,0-1.15,0-1.74s.1-.52.51-.35a2.08,2.08,0,0,0,2.76-.67A4.39,4.39,0,0,0,224.67,20.61Zm-3.21,3.11c-.45-.07-.7-.26-.69-.79a20.21,20.21,0,0,0,0-2.06c0-.61.13-1,.76-1.07s1.17.06,1.39.76a5.85,5.85,0,0,1,.17,1C223.1,23.28,222.58,23.89,221.46,23.72Z"/><path class="cls-13" d="M234.38,22.92c.31-1.23.63-2.48,1-3.71A1.25,1.25,0,0,1,237,18.6c.22.17.1.36.05.54-.84,2.44-1.62,4.9-2.51,7.33a1.86,1.86,0,0,1-2.35,1.25c-.49-.1-.54-.4-.55-.8s.13-.59.58-.6c1.05-.09,1.44-.75,1.09-1.79-.57-1.68-1.19-3.35-1.74-5.05-.09-.27-.57-.67,0-.92a1.19,1.19,0,0,1,1.59.56c.35,1.26.69,2.53,1,3.8Z"/><path class="cls-14" d="M230.68,22.41h0c0-.74,0-1.5,0-2.25a1.57,1.57,0,0,0-.9-1.54,4.4,4.4,0,0,0-3.43.17c-.5.21-.27.64-.23,1,0,.5.4.23.63.19a7,7,0,0,1,1.57-.19c.65.07.84.49.8,1.08s-.53.39-.85.38a2.29,2.29,0,0,0-2.27,1,2.1,2.1,0,0,0,.12,2.43,1.94,1.94,0,0,0,2.37.4c.35-.17.57-.42,1,0s1.16.05,1.16-.73C230.68,23.63,230.68,23,230.68,22.41Zm-2.56,1.51a.68.68,0,0,1-.83-.73c0-.76.48-.88,1.1-.88.4,0,.79,0,.77.66S228.64,23.85,228.12,23.92Z"/><path class="cls-15" d="M223.1,21.53c0,1.75-.52,2.36-1.64,2.19-.45-.07-.7-.26-.69-.79a20.21,20.21,0,0,0,0-2.06c0-.61.13-1,.76-1.07s1.17.06,1.39.76A5.84,5.84,0,0,1,223.1,21.53Z"/><path class="cls-16" d="M228.39,22.31c.4,0,.79,0,.77.64s-.5.9-1,1a.69.69,0,0,1-.84-.73C227.27,22.43,227.76,22.31,228.39,22.31Z"/></g><path class="cls-17" d="M61.57,31H24.43A2.48,2.48,0,0,1,22,28.42V10.58A2.48,2.48,0,0,1,24.43,8H61.5a2.47,2.47,0,0,1,2.42,2.58V28.42A2.41,2.41,0,0,1,61.57,31Z"/><path class="cls-18" d="M58.09,12H37.77a.68.68,0,0,1-.61-.64.69.69,0,0,1,.61-.65H58.09a.68.68,0,0,1,.6.65A.61.61,0,0,1,58.09,12Z"/><path class="cls-18" d="M35,29.31H25.49a.65.65,0,0,1,0-1.3H35a.69.69,0,0,1,.61.65A.63.63,0,0,1,35,29.31Z"/><path class="cls-18" d="M32.31,25.51H26.17a.68.68,0,0,1-.61-.64V23.49a.68.68,0,0,1,.61-.64h6.14a.68.68,0,0,1,.61.64v1.38A.62.62,0,0,1,32.31,25.51Z"/><path class="cls-18" d="M41,25.51H34.81a.67.67,0,0,1-.6-.64V23.49a.67.67,0,0,1,.6-.64H41a.67.67,0,0,1,.61.64v1.38A.67.67,0,0,1,41,25.51Z"/><path class="cls-18" d="M49.52,25.51H43.38a.68.68,0,0,1-.61-.64V23.49a.68.68,0,0,1,.61-.64h6.14a.68.68,0,0,1,.61.64v1.38A.68.68,0,0,1,49.52,25.51Z"/><path class="cls-18" d="M58.09,25.51H52a.67.67,0,0,1-.61-.64V23.49a.67.67,0,0,1,.61-.64h6.14a.67.67,0,0,1,.6.64v1.38A.61.61,0,0,1,58.09,25.51Z"/><path class="cls-18" d="M30.64,19.3H25.26a.68.68,0,0,1-.61-.65V15.26a.68.68,0,0,1,.61-.64h5.38a.67.67,0,0,1,.61.64v3.39A.67.67,0,0,1,30.64,19.3Z"/><g class="cls-19"><path class="cls-20" d="M108,13.81c-.2,0-.34-.13-.51-.19a8.91,8.91,0,0,0-2.81-.47H98.45a.85.85,0,0,0-.93.64c-.16.9-.31,1.8-.45,2.69-.22,1.36-.45,2.71-.65,4.07,0,.21-.22.44,0,.65a3.37,3.37,0,0,0-.27,1.07c-.33,2.07-.68,4.13-1,6.19H90.77c-.64,0-.84-.24-.75-.86.35-2.21.7-4.43,1.07-6.63s.72-4.44,1.07-6.67c.29-1.75.57-3.52.85-5.28a1.1,1.1,0,0,1,1.23-1c2.49,0,5,0,7.46,0A8.39,8.39,0,0,1,106,9a3.94,3.94,0,0,1,2.06,3.49A5,5,0,0,1,108,13.81Z"/><path class="cls-21" d="M107.21,23.32a7,7,0,0,1-3.68,1.26c-.54.06-1.08.05-1.62.06a.89.89,0,0,0-1,.86c-.26,1.49-.49,3-.74,4.49-.13.79-.4,1-1.22,1H95.49c-.51,0-.71-.19-.64-.69s.19-1.24.29-1.85l1-6.19a2.91,2.91,0,0,1,.27-1.08,1.28,1.28,0,0,1,1.06-.39,23.75,23.75,0,0,0,4.3-.21,7.07,7.07,0,0,0,5.88-5.22c.15-.48.2-1,.38-1.46a2.9,2.9,0,0,1,1.79,2.28A7.14,7.14,0,0,1,107.21,23.32Z"/><path class="cls-22" d="M108,13.91c-.18.47-.23,1-.38,1.47a7.08,7.08,0,0,1-5.88,5.22,22.91,22.91,0,0,1-4.3.2,1.29,1.29,0,0,0-1.06.4c-.22-.21,0-.45,0-.65.2-1.36.43-2.71.65-4.07.15-.89.29-1.79.45-2.69a.84.84,0,0,1,.93-.64h6.23a8.63,8.63,0,0,1,2.81.47c.17.06.31.21.51.19Z"/><path class="cls-23" d="M139.61,16.92a1.58,1.58,0,0,0-1-1.34,2.65,2.65,0,0,0-1.07-.24c-1,0-2,0-2.95,0-.48,0-.61.11-.68.57-.36,2.23-.71,4.46-1.08,6.69,0,.29,0,.41.33.41h1.22a.36.36,0,0,0,.42-.35c.06-.42.13-.83.21-1.24.17-1,.07-1,1.17-1h.45a3.21,3.21,0,0,0,2.06-.74A3.28,3.28,0,0,0,139.61,16.92Zm-3.06,1.93a3.1,3.1,0,0,1-.37,0c-.77,0-.77,0-.69-.59,0-.37.11-.73.17-1.1a.33.33,0,0,1,.37-.32h.55c.65.06.91.28.91.77A1.08,1.08,0,0,1,136.55,18.85Z"/><path class="cls-24" d="M125.21,17.87c-.26,0-.52,0-.78,0s-.65,0-.66.52a1.71,1.71,0,0,0-.84-.53,3.11,3.11,0,0,0-3.92,3A2,2,0,0,0,120.49,23a2.74,2.74,0,0,0,2-.22c.17-.08.31-.26.57-.28-.12.46.15.49.47.47s.6,0,.89,0a.4.4,0,0,0,.46-.37c.06-.42.14-.83.21-1.24.17-1,.33-2,.5-3C125.69,18,125.62,17.88,125.21,17.87ZM122,21.7a1,1,0,0,1-1.15-1,1.52,1.52,0,0,1,1.52-1.51,1,1,0,0,1,1.16,1.07A1.49,1.49,0,0,1,122,21.7Z"/><path class="cls-25" d="M145.39,17.86c-.26,0-.52,0-.78,0s-.64,0-.64.5a2.36,2.36,0,0,0-2.34-.53,3.07,3.07,0,0,0-2.43,2.8,2.21,2.21,0,0,0,2.74,2.46,4,4,0,0,0,1.32-.59c0,.45,0,.5.48.5h.85a.47.47,0,0,0,.56-.47c.08-.58.18-1.14.28-1.71.13-.82.27-1.63.4-2.46C145.89,17.94,145.81,17.86,145.39,17.86Zm-3.2,3.83a1,1,0,0,1-1.11-1,1.48,1.48,0,0,1,1.51-1.51,1.06,1.06,0,0,1,1.15,1.05A1.51,1.51,0,0,1,142.19,21.69Z"/><path class="cls-24" d="M132.74,18.38,129.47,23c-.31.45-.65.87-.93,1.33a.79.79,0,0,1-.88.45,1.22,1.22,0,0,0-.33,0h-.48c-.15,0-.34.06-.44-.11s.06-.29.15-.41c.36-.51.72-1,1.09-1.5a.54.54,0,0,0,.09-.57c-.45-1.22-.87-2.45-1.3-3.68-.18-.52-.12-.61.45-.61h.85a.54.54,0,0,1,.6.45c.2.67.41,1.34.62,2,0,.11,0,.28.15.29s.17-.16.24-.25c.5-.72,1-1.43,1.49-2.15a.7.7,0,0,1,.67-.35c.32,0,.65,0,1,0,.15,0,.31,0,.39.15S132.81,18.27,132.74,18.38Z"/><path class="cls-25" d="M149,15.77c-.22,1.38-.45,2.76-.68,4.13-.14.81-.28,1.61-.4,2.42-.1.63-.14.67-.76.67h-.25c-.88,0-.89,0-.76-.83.34-2.16.7-4.31,1-6.47,0-.26.15-.39.44-.37h1C149,15.32,149,15.41,149,15.77Z"/><path class="cls-26" d="M117.67,15.39a27.91,27.91,0,0,0-3.17-.07c-.69,0-.73,0-.83.72-.32,2-.64,4-1,6-.16,1-.31.95.82.95H114c.44,0,.53-.08.6-.51s.14-.83.19-1.25c.12-.77.14-.79,1-.79h.7a3.33,3.33,0,0,0,1.46-.34,2.9,2.9,0,0,0,1.51-2.61A1.77,1.77,0,0,0,117.67,15.39Zm-1.55,3.48h-.79l-.06,0s0,0,0,0l0,0h0v-.08a1.82,1.82,0,0,1,0-.41c.06-.38.13-.76.19-1.13a.32.32,0,0,1,.39-.33,4,4,0,0,1,.91.07.68.68,0,0,1,.55.68A1.11,1.11,0,0,1,116.12,18.87Z"/></g><path class="cls-27" d="M284.12,11.62h1.95l.69,3a8.77,8.77,0,0,1,.17.91c.05.33.09.69.12,1.11l1.26-5h1.6l1.26,5a5.59,5.59,0,0,1,.06-.9q.06-.47.15-.93l.72-3.17H294l-1.93,6.62h-1.7l-1-3.65a3.94,3.94,0,0,1-.14-.66c0-.25-.06-.54-.08-.83,0,.32-.09.62-.13.87a4.55,4.55,0,0,1-.12.59l-1.07,3.66h-1.74Z"/><path class="cls-27" d="M294.84,18.24V11.62h2v6.62Z"/><path class="cls-27" d="M298.42,18.24V11.62h2a5,5,0,0,1,2.4.44,1.52,1.52,0,0,1,.74,1.41,1.62,1.62,0,0,1-.38,1.13,2.16,2.16,0,0,1-1.14.61l1.85,3h-2l-1.57-2.73v2.73h-1.87Zm1.85-3.76h.22a1.55,1.55,0,0,0,.94-.24.83.83,0,0,0,.31-.71.81.81,0,0,0-.29-.7,1.5,1.5,0,0,0-.92-.22h-.15a.13.13,0,0,0-.09,0Z"/><path class="cls-27" d="M304.62,18.24V11.62h4.05v1.22h-2.18v1.33h2v1.21h-2v1.55h2.18v1.29h-4.05Z"/><path class="cls-28" d="M275.09,25.92v-4.6H274v-1h3.59v1h-1.08V25.9h-1.42Z"/><path class="cls-28" d="M278.31,25.92V20.28h1.47a3.11,3.11,0,0,1,1.76.38,1.35,1.35,0,0,1,.54,1.21,1.55,1.55,0,0,1-.28,1,1.47,1.47,0,0,1-.84.51l1.36,2.57h-1.49l-1.16-2.34V25.9h-1.36Zm1.36-3.21h.16a1,1,0,0,0,.69-.2.73.73,0,0,0,.24-.6.74.74,0,0,0-.21-.59,1,1,0,0,0-.69-.19h-.19Z"/><path class="cls-28" d="M282.27,25.92l1.65-5.64h1.49L287,25.92h-1.42l-.24-1h-1.42l-.22,1Zm1.89-1.87h.94c-.09-.39-.18-.81-.26-1.24s-.15-.89-.2-1.36c-.07.42-.15.85-.22,1.28S284.26,23.6,284.16,24.05Z"/><path class="cls-28" d="M287.5,25.92V20.28h1.43l1.43,3c0,.09.11.24.18.44s.16.44.26.71a10.07,10.07,0,0,1-.16-1.1,7.86,7.86,0,0,1-.05-.93V20.28h1.31v5.64h-1.31L289,22.77a4.85,4.85,0,0,1-.2-.58l-.12-.36c0,.21,0,.47.08.74s0,.6,0,1v2.37Z"/><path class="cls-28" d="M292.79,25.71V24.54a2.78,2.78,0,0,0,.53.29,1.52,1.52,0,0,0,.51.09,1,1,0,0,0,.57-.15.47.47,0,0,0,.22-.4c0-.22-.19-.44-.56-.7l-.24-.16a3.48,3.48,0,0,1-.89-.84,1.46,1.46,0,0,1-.23-.83,1.52,1.52,0,0,1,.51-1.18,2,2,0,0,1,1.35-.45,2.88,2.88,0,0,1,.59.07,3.26,3.26,0,0,1,.61.22v1c-.25-.09-.44-.16-.59-.2a1.3,1.3,0,0,0-.37-.05.87.87,0,0,0-.5.14.5.5,0,0,0-.2.41.62.62,0,0,0,.15.4,3,3,0,0,0,.67.55,3.25,3.25,0,0,1,.92.81,1.46,1.46,0,0,1,.2.78,1.5,1.5,0,0,1-.55,1.21A2.27,2.27,0,0,1,294,26a3.3,3.3,0,0,1-.66-.06A1.8,1.8,0,0,1,292.79,25.71Z"/><path class="cls-28" d="M296.83,25.92V20.28h3.06v1H298.2v1.17h1.54v1H298.2V25.9h-1.37Z"/><path class="cls-28" d="M300.71,25.92V20.28h3v1h-1.61v1.14h1.45v1h-1.45v1.32h1.61v1.11Z"/><path class="cls-28" d="M304.66,25.92V20.28h1.47a3.11,3.11,0,0,1,1.76.38,1.36,1.36,0,0,1,.55,1.21,1.62,1.62,0,0,1-.28,1,1.54,1.54,0,0,1-.85.51l1.36,2.57h-1.49L306,23.59v2.33ZM306,22.71h.16a1,1,0,0,0,.69-.2.73.73,0,0,0,.24-.6.71.71,0,0,0-.21-.59,1,1,0,0,0-.69-.19H306Z"/><path class="cls-29" d="M283.05,11.4h-9.42v1.93h9.42Z"/><path class="cls-30" d="M283.05,14h-9.42V15.9h9.42Z"/><path class="cls-31" d="M283,16.54h-9.42v1.92H283Z"/><path class="cls-32" d="M309,31H273a3.06,3.06,0,0,1-3-3.08V11.08A3.06,3.06,0,0,1,273,8H309a3.06,3.06,0,0,1,3,3.08V27.92A3.06,3.06,0,0,1,309,31ZM273,8.4a2.66,2.66,0,0,0-2.63,2.68V27.92A2.66,2.66,0,0,0,273,30.6H309a2.66,2.66,0,0,0,2.63-2.68V11.08A2.66,2.66,0,0,0,309,8.4Z"/></g></g></svg>