<svg width="12" height="16" viewBox="0 0 12 16" fill="none" xmlns="http://www.w3.org/2000/svg">
<path d="M1.87955 8.69434C1.8993 8.64441 2.09699 7.87463 2.11084 7.82251C1.80221 7.35193 1.45936 5.81091 1.72234 4.56006C2.00603 2.72473 3.92542 1.82251 5.73759 1.82251V1.81909C8.00645 1.82056 9.70478 3.09973 9.70658 5.30273C9.70803 7.0271 8.68286 9.3064 6.93237 9.3064C6.93189 9.3064 6.93153 9.3064 6.93105 9.3064C6.30631 9.3064 5.51533 9.01929 5.30789 8.7373C5.06852 8.41235 5.00973 8.01135 5.13622 7.58289C5.44618 6.58032 5.84143 5.37939 5.88757 4.57861C5.93034 3.82288 5.40113 3.33118 4.71483 3.33118C4.1984 3.33118 3.52764 3.63513 3.19335 4.48926C2.91724 5.19885 2.92314 5.94177 3.21142 6.76025C3.32381 7.0802 2.71317 9.16602 2.51753 9.84521C2.03145 11.5325 1.366 13.6672 1.50827 14.8561L1.6456 16L2.33539 15.084C3.28996 13.8177 4.27694 10.5424 4.53992 9.74536C5.3174 10.7656 6.93647 10.7949 7.12524 10.7949C9.44385 10.7949 12.073 8.46191 11.9984 5.21484C11.933 2.36731 9.87644 0 6.18115 0V0.00366212C2.66619 0.00366212 0.614652 1.90479 0.112429 4.30688C-0.34751 6.53418 0.675367 8.22937 1.87955 8.69434Z" fill="white"/>
</svg>
