<svg width="40" height="40" viewBox="0 0 40 40" fill="none" xmlns="http://www.w3.org/2000/svg">
<g clip-path="url(#clip0)">
<path d="M20.0722 24.784C19.6987 24.4105 19.351 24.0214 19.0283 23.6182C14.605 18.0963 14.9535 10.0129 20.0722 4.89342C22.1986 2.76733 24.8364 1.46491 27.5894 0.984913C23.2306 0.224836 18.5826 1.52726 15.216 4.89342C10.0972 10.013 9.74871 18.0963 14.1721 23.6182C14.4948 24.0214 14.8425 24.4106 15.216 24.784C15.5895 25.1575 15.9786 25.5052 16.3817 25.8279C19.6097 28.4136 23.7127 29.3679 27.5876 28.6928C25.3187 28.2968 23.1282 27.3421 21.238 25.8279C20.8348 25.5052 20.4457 25.1574 20.0722 24.784Z" fill="white"/>
<path d="M33.2576 5.12919C30.745 3.01905 27.6281 1.7264 24.3751 1.25C21.1219 1.7264 18.0051 3.01905 15.4925 5.12919C9.44395 10.2103 9.03222 18.233 14.259 23.7135C14.6404 24.1137 15.0512 24.4999 15.4925 24.8706C15.9339 25.2413 16.3937 25.5863 16.87 25.9067C19.1037 27.4095 21.6919 28.357 24.3729 28.75C27.6269 28.2738 30.7445 26.9811 33.2576 24.8706C39.7475 19.4188 39.7475 10.5811 33.2576 5.12919Z" fill="#374C82"/>
<path d="M21.3709 9.99491C21.3709 9.99335 21.3717 9.99179 21.3724 9.991C21.9149 8.8928 22.612 7.93929 23.4392 7.10851C24.8024 5.74523 26.4388 4.81641 28.1741 4.32242C24.473 3.26758 20.3267 4.20258 17.4208 7.10851C16.5935 7.93929 15.8966 8.8928 15.3541 9.991C15.3533 9.99179 15.3525 9.99335 15.3525 9.99491C13.3782 13.9034 13.949 19.0976 17.4263 22.5735C20.4038 25.5515 24.5277 26.373 28.1513 25.3526C26.4459 24.8667 24.8224 23.9514 23.4446 22.5735C19.9675 19.0975 19.3965 13.9034 21.3709 9.99491Z" fill="#70D6F9"/>
<path d="M14.1722 23.6182L10.7959 26.9937L13.0064 29.2042L16.3819 25.8278L14.1722 23.6182Z" fill="#374C82"/>
<path d="M10.6608 29.0684L3.77301 35.957C2.92684 36.8026 2.66746 38.0118 2.99371 39.0809C4.06277 39.4073 5.27214 39.1478 6.11769 38.3016L13.0063 31.4138C13.6165 30.8036 13.6165 29.8144 13.0063 29.2041L12.8705 29.0683C12.2603 28.4581 11.2711 28.4581 10.6608 29.0684Z" fill="#70D6F9"/>
<path d="M34.9478 21.2894C37.8632 16.8708 37.5054 10.8477 33.6583 6.76603C29.8176 2.74025 23.9152 2.12221 19.549 4.54783C19.1717 4.75736 19.0359 5.23314 19.2454 5.61033C19.4549 5.98767 19.9307 6.12337 20.3079 5.91392C24.3015 3.6951 29.3263 4.48923 32.5243 7.84134C35.824 11.3422 36.1956 16.5606 33.6429 20.4294C30.1266 25.7702 22.5322 26.5751 17.9788 22.0208C14.9106 18.9537 14.0217 14.0074 16.238 9.98235C16.446 9.60423 16.3081 9.12907 15.9301 8.9211C15.552 8.71329 15.077 8.85102 14.8688 9.22907C14.8209 9.31618 14.7358 9.4786 14.6537 9.64501H14.6538C12.3813 14.2773 13.4152 19.6685 16.8739 23.1259C22.1199 28.3729 30.8826 27.4642 34.9478 21.2894Z" fill="#2D3748"/>
<path d="M8.03341 26.4414L1.14585 33.3298C-0.381259 34.8559 -0.382509 37.3273 1.14546 38.8542C2.67194 40.3817 5.14326 40.3824 6.67006 38.8544L13.5587 31.9666C14.2936 31.2316 14.4259 30.1521 14.0172 29.2984L16.4518 26.8632C22.2922 31.1031 30.4538 30.5413 35.6591 25.3367C41.4469 19.5482 41.4469 10.1296 35.6591 4.341C29.8707 -1.44657 20.452 -1.4468 14.6634 4.34108C9.4581 9.54716 8.89771 17.7094 13.1367 23.5486L10.7018 25.9829C9.84818 25.5743 8.76865 25.7062 8.03341 26.4414ZM14.6634 25.3366C14.8471 25.5203 15.0368 25.6996 15.2307 25.8743L13.0061 28.0993L11.9008 26.994L14.1259 24.7695C14.3004 24.9632 14.4797 25.153 14.6634 25.3366ZM12.4536 30.8616L5.56482 37.7495C4.64928 38.6658 3.16725 38.6667 2.25045 37.7492C1.33405 36.8335 1.3335 35.3514 2.25061 34.4349L9.13841 27.5464C9.44286 27.2418 9.93856 27.2417 10.243 27.5464L12.4536 29.7569C12.7582 30.0614 12.7582 30.5571 12.4536 30.8616ZM15.7684 5.446C20.9472 0.267881 29.3745 0.267021 34.5541 5.446C39.7326 10.6252 39.7326 19.0525 34.5541 24.2316C29.3763 29.4087 20.9889 29.4528 15.7684 24.2316C10.5541 19.0179 10.5851 10.6301 15.7684 5.446Z" fill="#2D3748"/>
<path d="M16.8939 7.67575C17.201 7.96099 17.6808 7.95395 17.9792 7.65622C18.2769 7.3577 18.284 6.87794 17.998 6.57091C17.9925 6.56388 17.9862 6.55763 17.9792 6.5506C17.6737 6.24583 17.1791 6.24583 16.8736 6.5506C16.5688 6.85614 16.5688 7.35075 16.8736 7.65622C16.8806 7.66325 16.8869 7.6695 16.8939 7.67575Z" fill="#2D3748"/>
</g>
<defs>
<clipPath id="clip0">
<rect width="40" height="40" fill="white"/>
</clipPath>
</defs>
</svg>
