<svg width="18" height="18" viewBox="0 0 18 18" fill="none" xmlns="http://www.w3.org/2000/svg">
<g clip-path="url(#clip0)">
<path d="M9.1875 9C8.877 9 8.625 8.748 8.625 8.4375V7.875H3.375V8.4375C3.375 8.748 3.123 9 2.8125 9C2.502 9 2.25 8.748 2.25 8.4375V7.3125C2.25 7.002 2.502 6.75 2.8125 6.75H9.1875C9.498 6.75 9.75 7.002 9.75 7.3125V8.4375C9.75 8.748 9.498 9 9.1875 9Z" fill="#2D3748"/>
<path d="M6 14.0625C5.6895 14.0625 5.4375 13.8105 5.4375 13.5V7.5C5.4375 7.1895 5.6895 6.9375 6 6.9375C6.3105 6.9375 6.5625 7.1895 6.5625 7.5V13.5C6.5625 13.8105 6.3105 14.0625 6 14.0625Z" fill="#2D3748"/>
<path d="M6.9375 14.25H5.0625C4.752 14.25 4.5 13.998 4.5 13.6875C4.5 13.377 4.752 13.125 5.0625 13.125H6.9375C7.248 13.125 7.5 13.377 7.5 13.6875C7.5 13.998 7.248 14.25 6.9375 14.25Z" fill="#2D3748"/>
<path d="M15.1875 7.875H11.8125C11.502 7.875 11.25 7.623 11.25 7.3125C11.25 7.002 11.502 6.75 11.8125 6.75H15.1875C15.498 6.75 15.75 7.002 15.75 7.3125C15.75 7.623 15.498 7.875 15.1875 7.875Z" fill="#2D3748"/>
<path d="M15.1875 10.875H11.8125C11.502 10.875 11.25 10.623 11.25 10.3125C11.25 10.002 11.502 9.75 11.8125 9.75H15.1875C15.498 9.75 15.75 10.002 15.75 10.3125C15.75 10.623 15.498 10.875 15.1875 10.875Z" fill="#2D3748"/>
<path d="M15.1875 13.875H11.8125C11.502 13.875 11.25 13.623 11.25 13.3125C11.25 13.002 11.502 12.75 11.8125 12.75H15.1875C15.498 12.75 15.75 13.002 15.75 13.3125C15.75 13.623 15.498 13.875 15.1875 13.875Z" fill="#2D3748"/>
<path d="M15.9375 17.25H2.0625C0.92475 17.25 0 16.3252 0 15.1875V2.8125C0 1.67475 0.92475 0.75 2.0625 0.75H15.9375C17.0753 0.75 18 1.67475 18 2.8125V15.1875C18 16.3252 17.0753 17.25 15.9375 17.25ZM2.0625 1.875C1.54575 1.875 1.125 2.29575 1.125 2.8125V15.1875C1.125 15.7043 1.54575 16.125 2.0625 16.125H15.9375C16.4543 16.125 16.875 15.7043 16.875 15.1875V2.8125C16.875 2.29575 16.4543 1.875 15.9375 1.875H2.0625Z" fill="#2D3748"/>
<path d="M17.4375 4.5H0.5625C0.252 4.5 0 4.248 0 3.9375C0 3.627 0.252 3.375 0.5625 3.375H17.4375C17.748 3.375 18 3.627 18 3.9375C18 4.248 17.748 4.5 17.4375 4.5Z" fill="#2D3748"/>
</g>
<defs>
<clipPath id="clip0">
<rect width="18" height="18" fill="white"/>
</clipPath>
</defs>
</svg>
