<svg width="8" height="2" viewBox="0 0 8 2" fill="none" xmlns="http://www.w3.org/2000/svg">
<path d="M7.3371 0.589844H1.04796C0.868168 0.589844 0.722656 0.735355 0.722656 0.915144C0.722656 1.09493 0.868203 1.24044 1.04796 1.24044H7.3371C7.51667 1.24044 7.6624 1.09493 7.6624 0.915144C7.6624 0.735355 7.51667 0.589844 7.3371 0.589844Z" fill="#2D3748"/>
<path fill-rule="evenodd" clip-rule="evenodd" d="M1.04827 0.410156H7.33741C7.61632 0.410156 7.84271 0.636181 7.84271 0.915457C7.84271 1.19473 7.61632 1.42076 7.33741 1.42076H1.04827C0.769118 1.42076 0.542969 1.19467 0.542969 0.915457C0.542969 0.636256 0.76907 0.410156 1.04827 0.410156ZM1.04827 0.590156H7.33741C7.51699 0.590156 7.66271 0.735668 7.66271 0.915457C7.66271 1.09525 7.51699 1.24076 7.33741 1.24076H1.04827C0.868516 1.24076 0.722969 1.09525 0.722969 0.915457C0.722969 0.735668 0.868481 0.590156 1.04827 0.590156Z" fill="#2D3748"/>
</svg>
