<svg width="18" height="18" viewBox="0 0 18 18" fill="none" xmlns="http://www.w3.org/2000/svg">
<path d="M17.7307 4.44666C17.3717 4.08767 16.7896 4.08767 16.4307 4.44666L14.2959 6.58143L12.3254 4.61096L11.4185 3.70404L13.5533 1.56921C13.9123 1.21027 13.9123 0.628214 13.5533 0.269221C13.1943 -0.0897098 12.6123 -0.0897711 12.2533 0.269221L10.1185 2.40405L9.37599 1.66156C9.37556 1.66113 9.37501 1.6607 9.37458 1.66027L8.67976 0.96545C8.32083 0.606519 7.73877 0.606458 7.37978 0.965512C7.02079 1.3245 7.02079 1.9065 7.37978 2.2655L7.42593 2.31164L4.59492 5.14277C2.53816 7.19953 2.33912 10.4206 3.99656 12.7035L0.269244 16.4307C-0.0897481 16.7897 -0.0897481 17.3717 0.269244 17.7307C0.44874 17.9103 0.683881 18 0.919206 18C1.15441 18 1.38973 17.9102 1.56917 17.7307L5.29581 14.0042C6.28687 14.7261 7.47642 15.1162 8.72609 15.1162C8.72622 15.1162 8.72616 15.1162 8.72616 15.1162C10.2865 15.1162 11.7538 14.5084 12.8571 13.4051L15.6884 10.5739L15.7346 10.6201C15.9141 10.7996 16.1493 10.8893 16.3846 10.8893C16.6198 10.8893 16.8551 10.7996 17.0346 10.6201C17.3936 10.2611 17.3936 9.67907 17.0346 9.32008L15.5959 7.88142L17.7307 5.74664C18.0897 5.38765 18.0897 4.80565 17.7307 4.44666ZM11.5571 12.1051C10.8009 12.8613 9.79553 13.2778 8.72616 13.2778C7.65666 13.2777 6.65119 12.8612 5.89491 12.105C4.33386 10.5439 4.33386 8.00386 5.89491 6.44275L8.72597 3.61169L10.9145 5.80014L13.6458 8.5315C13.6459 8.53168 13.6461 8.53181 13.6463 8.53193L14.3883 9.274L11.5571 12.1051Z" fill="#2D3748"/>
</svg>
