<svg width="18" height="18" viewBox="0 0 18 18" fill="none" xmlns="http://www.w3.org/2000/svg">
<g clip-path="url(#clip0)">
<path d="M15.7224 2.38552H14.2043V0.867479C14.2043 0.390339 13.8139 0 13.337 0H2.27662C1.79952 0 1.40918 0.390339 1.40918 0.867479V14.747C1.40918 15.2241 1.79952 15.6144 2.27666 15.6144H3.79474V17.1325C3.79474 17.6096 4.1849 18 4.66222 18H12.0355C12.5124 18 13.1873 17.7324 13.5345 17.4056L15.9578 15.1246C16.3054 14.7978 16.5895 14.1398 16.5895 13.6627L16.5899 3.25307C16.5899 2.7759 16.1995 2.38552 15.7224 2.38552ZM3.79467 3.25304V14.9638H2.27662C2.1591 14.9638 2.05978 14.8645 2.05978 14.747V0.867479C2.05978 0.749952 2.1591 0.650635 2.27662 0.650635H13.3371C13.4544 0.650635 13.5539 0.749952 13.5539 0.867479V2.38556H4.66215C4.18483 2.38556 3.79467 2.7759 3.79467 3.25304ZM15.5118 14.6509L13.0886 16.9317C13.0389 16.9784 12.9743 17.0241 12.9029 17.0677V15.0723C12.9029 14.9233 12.963 14.7892 13.0621 14.6895C13.1621 14.5904 13.2961 14.5301 13.4451 14.5301H15.6148C15.5812 14.5758 15.5467 14.6179 15.5118 14.6509ZM15.9388 13.6626C15.9388 13.727 15.9271 13.8016 15.9093 13.8794H13.445C12.7869 13.8808 12.2536 14.414 12.2523 15.0722V17.3231C12.1748 17.3387 12.1002 17.3493 12.0354 17.3493H4.66215V17.3493C4.54437 17.3493 4.4453 17.25 4.4453 17.1325V3.253C4.4453 3.13547 4.54441 3.03616 4.66215 3.03616H15.7224C15.8399 3.03616 15.9392 3.13547 15.9392 3.253L15.9388 13.6626Z" fill="#2D3748"/>
<path fill-rule="evenodd" clip-rule="evenodd" d="M16.5902 3.25338L16.5898 13.663C16.5898 14.1401 16.3057 14.7981 15.9581 15.1249L13.5348 17.4059C13.1876 17.7327 12.5127 18.0003 12.0358 18.0003H4.66253C4.18521 18.0003 3.79505 17.6099 3.79505 17.1328V15.6148H2.27697C1.79983 15.6148 1.40949 15.2244 1.40949 14.7473V0.867791C1.40949 0.390652 1.79983 0.000312507 2.27694 0.000312507H13.3374C13.8142 0.000312507 14.2047 0.390652 14.2046 0.867791V2.38584H15.7227C16.1998 2.38584 16.5902 2.77621 16.5902 3.25338ZM14.3846 2.20584V0.867791C14.3847 0.291255 13.9137 -0.179688 13.3374 -0.179688H2.27694C1.70042 -0.179688 1.22949 0.291245 1.22949 0.867791V14.7473C1.22949 15.3238 1.70042 15.7948 2.27697 15.7948H3.61505V17.1328C3.61505 17.7093 4.08577 18.1803 4.66253 18.1803H12.0358C12.3037 18.1803 12.6148 18.1062 12.9003 17.993C13.1858 17.8798 13.4631 17.7206 13.6582 17.537L16.0814 15.256C16.0813 15.2561 16.0814 15.256 16.0814 15.256C16.2782 15.0709 16.4486 14.8016 16.5695 14.5217C16.6905 14.2417 16.7698 13.9332 16.7698 13.663L16.7702 3.25339C16.7702 2.67683 16.2992 2.20584 15.7227 2.20584H14.3846ZM12.2526 15.0725C12.2539 14.4143 12.7872 13.8811 13.4454 13.8798H15.9096C15.9274 13.8019 15.9391 13.7273 15.9391 13.6629L15.9395 3.25331C15.9395 3.13579 15.8402 3.03647 15.7227 3.03647H4.66246C4.54472 3.03647 4.44562 3.13579 4.44562 3.25331V17.1328C4.44562 17.1764 4.45927 17.2175 4.48246 17.252C4.52105 17.3094 4.58607 17.3483 4.65856 17.3496C4.65986 17.3496 4.66116 17.3496 4.66246 17.3496L12.0357 17.3496C12.1006 17.3496 12.1752 17.339 12.2526 17.3234V15.0725ZM12.0726 17.1682V15.0725C12.0741 14.3152 12.6877 13.7013 13.445 13.6998H15.7575C15.7586 13.6866 15.7591 13.6743 15.7591 13.6629L15.7595 3.25331C15.7595 3.24602 15.7564 3.23659 15.7479 3.2281C15.7394 3.21961 15.73 3.21647 15.7227 3.21647H4.66246C4.655 3.21647 4.64561 3.21965 4.63721 3.22806C4.62879 3.23648 4.62562 3.2459 4.62562 3.25331V17.1328C4.62562 17.1402 4.62879 17.1496 4.6372 17.1581C4.64508 17.1659 4.65383 17.1692 4.66106 17.1696H12.0357C12.0472 17.1696 12.0595 17.1691 12.0726 17.1682ZM3.61498 14.7842V3.25335C3.61498 2.67682 4.08571 2.20587 4.66246 2.20587H13.3742V0.867791C13.3742 0.860606 13.3711 0.851177 13.3626 0.842618C13.354 0.834043 13.3445 0.830948 13.3374 0.830948H2.27694C2.26964 0.830948 2.26021 0.834083 2.25172 0.842576C2.24323 0.851069 2.24009 0.860493 2.24009 0.867791V14.7473C2.24009 14.7546 2.24323 14.764 2.25172 14.7725C2.26021 14.781 2.26964 14.7842 2.27694 14.7842H3.61498ZM13.4454 14.5304C13.2964 14.5304 13.1624 14.5907 13.0624 14.6898C12.9633 14.7895 12.9032 14.9236 12.9032 15.0726V17.068C12.9719 17.026 13.0344 16.9821 13.0832 16.9373C13.0851 16.9355 13.087 16.9338 13.0889 16.932L15.5121 14.6512C15.5471 14.6182 15.5815 14.5761 15.6152 14.5304H13.4454ZM15.1866 14.7104H13.4454C13.347 14.7104 13.2579 14.7497 13.1896 14.8172C13.1224 14.885 13.0832 14.974 13.0832 15.0726V16.6902L15.1866 14.7104ZM3.79498 3.25335C3.79498 2.77621 4.18514 2.38587 4.66246 2.38587H13.5542V0.867791C13.5542 0.750264 13.4547 0.650948 13.3374 0.650948H2.27694C2.15941 0.650948 2.06009 0.750264 2.06009 0.867791V14.7473C2.06009 14.8648 2.15941 14.9642 2.27694 14.9642H3.79498V3.25335Z" fill="#2D3748"/>
<path d="M13.3371 5.42188H7.04796C6.86817 5.42188 6.72266 5.56739 6.72266 5.74717C6.72266 5.92696 6.8682 6.07247 7.04796 6.07247H13.3371C13.5167 6.07247 13.6624 5.92696 13.6624 5.74717C13.6624 5.56739 13.5167 5.42188 13.3371 5.42188Z" fill="#2D3748"/>
<path fill-rule="evenodd" clip-rule="evenodd" d="M7.04827 5.24219H13.3374C13.6163 5.24219 13.8427 5.46821 13.8427 5.74749C13.8427 6.02676 13.6163 6.25279 13.3374 6.25279H7.04827C6.76912 6.25279 6.54297 6.0267 6.54297 5.74749C6.54297 5.46829 6.76907 5.24219 7.04827 5.24219ZM7.04827 5.42219H13.3374C13.517 5.42219 13.6627 5.5677 13.6627 5.74749C13.6627 5.92728 13.517 6.07279 13.3374 6.07279H7.04827C6.86852 6.07279 6.72297 5.92728 6.72297 5.74749C6.72297 5.5677 6.86848 5.42219 7.04827 5.42219Z" fill="#2D3748"/>
<path d="M13.3371 9.75781H7.04796C6.86817 9.75781 6.72266 9.90332 6.72266 10.0831C6.72266 10.2629 6.8682 10.4084 7.04796 10.4084H13.3371C13.5167 10.4084 13.6624 10.2629 13.6624 10.0831C13.6624 9.90329 13.5167 9.75781 13.3371 9.75781Z" fill="#2D3748"/>
<path fill-rule="evenodd" clip-rule="evenodd" d="M7.04827 9.57812H13.3374C13.6163 9.57812 13.8427 9.8041 13.8427 10.0834C13.8427 10.3627 13.6163 10.5887 13.3374 10.5887H7.04827C6.76912 10.5887 6.54297 10.3626 6.54297 10.0834C6.54297 9.80422 6.76907 9.57812 7.04827 9.57812ZM7.04827 9.75813H13.3374C13.517 9.75813 13.6627 9.9036 13.6627 10.0834C13.6627 10.2632 13.517 10.4087 13.3374 10.4087H7.04827C6.86852 10.4087 6.72297 10.2632 6.72297 10.0834C6.72297 9.90364 6.86848 9.75813 7.04827 9.75813Z" fill="#2D3748"/>
<path d="M10.5178 11.9258H7.04796C6.86817 11.9258 6.72266 12.0713 6.72266 12.2511C6.72266 12.4309 6.86817 12.5764 7.04796 12.5764H10.5178C10.6974 12.5764 10.8429 12.4309 10.8429 12.2511C10.8429 12.0713 10.6974 11.9258 10.5178 11.9258Z" fill="#2D3748"/>
<path fill-rule="evenodd" clip-rule="evenodd" d="M7.04827 11.7461H10.5181C10.7972 11.7461 11.0232 11.9723 11.0232 12.2514C11.0232 12.5305 10.7972 12.7567 10.5181 12.7567H7.04827C6.76907 12.7567 6.54297 12.5306 6.54297 12.2514C6.54297 11.9722 6.76907 11.7461 7.04827 11.7461ZM7.04827 11.9261H10.5181C10.6977 11.9261 10.8432 12.0716 10.8432 12.2514C10.8432 12.4312 10.6977 12.5767 10.5181 12.5767H7.04827C6.86848 12.5767 6.72297 12.4312 6.72297 12.2514C6.72297 12.0716 6.86848 11.9261 7.04827 11.9261Z" fill="#2D3748"/>
<path d="M13.3371 7.58984H7.04796C6.86817 7.58984 6.72266 7.73536 6.72266 7.91514C6.72266 8.09493 6.8682 8.24044 7.04796 8.24044H13.3371C13.5167 8.24044 13.6624 8.09493 13.6624 7.91514C13.6624 7.73536 13.5167 7.58984 13.3371 7.58984Z" fill="#2D3748"/>
<path fill-rule="evenodd" clip-rule="evenodd" d="M7.04827 7.41016H13.3374C13.6163 7.41016 13.8427 7.63618 13.8427 7.91546C13.8427 8.19473 13.6163 8.42076 13.3374 8.42076H7.04827C6.76912 8.42076 6.54297 8.19467 6.54297 7.91546C6.54297 7.63626 6.76907 7.41016 7.04827 7.41016ZM7.04827 7.59016H13.3374C13.517 7.59016 13.6627 7.73567 13.6627 7.91546C13.6627 8.09525 13.517 8.24076 13.3374 8.24076H7.04827C6.86852 8.24076 6.72297 8.09525 6.72297 7.91546C6.72297 7.73567 6.86848 7.59016 7.04827 7.59016Z" fill="#2D3748"/>
</g>
<defs>
<clipPath id="clip0">
<rect width="18" height="18" fill="white"/>
</clipPath>
</defs>
</svg>
