<svg width="92" height="93" viewBox="0 0 92 93" fill="none" xmlns="http://www.w3.org/2000/svg">
<rect y="0.5" width="92" height="92" rx="22" fill="#DFDEF6"/>
<g clip-path="url(#clip0)">
<path d="M21.1156 50.4062H26.1469C26.475 50.4062 26.7156 50.6688 26.7156 50.975V68.5187C26.7156 68.8469 26.4531 69.0875 26.1469 69.0875H21.1156C20.7875 69.0875 20.5469 68.825 20.5469 68.5187V50.975C20.5469 50.6688 20.8094 50.4062 21.1156 50.4062V50.4062Z" fill="#70D6F9"/>
<path d="M29.4061 51.5437H26.7373V67.7094H29.4061C29.7342 67.7094 29.9748 67.4469 29.9748 67.1406V52.1125C29.9748 51.7844 29.7123 51.5437 29.4061 51.5437V51.5437Z" fill="#E9E9EA"/>
<path d="M65.9809 56.4218C65.3902 55.2187 63.9465 54.7156 62.7434 55.3062L53.2059 59.8343C53.8184 59.4187 54.234 58.8718 54.234 58.1499C54.234 55.0656 50.1652 55.6124 46.9277 55.6124C44.9152 55.6124 41.7652 54.5406 39.6434 53.7093C38.1121 53.1187 36.4715 52.8999 34.8309 53.0749L29.9746 53.5781V64.8874L32.0527 64.6687C34.109 64.4499 36.1871 64.6031 38.1996 65.1281L44.8496 66.8781C48.6121 67.8624 52.6371 67.3374 56.0059 65.3906L65.1277 59.5937C66.1559 58.8937 66.5277 57.5593 65.9809 56.4218V56.4218Z" fill="#3C5185"/>
<path d="M26.1684 69.6562H21.1371C20.5246 69.6562 20.0215 69.1531 20.0215 68.5406V50.9968C20.0215 50.3843 20.5246 49.8812 21.1371 49.8812H26.1684C26.7809 49.8812 27.284 50.3843 27.284 50.9968V68.5406C27.284 69.1531 26.7809 69.6562 26.1684 69.6562V69.6562ZM21.1152 50.9531C21.0934 50.9531 21.0934 50.9749 21.0934 50.9749V68.5187C21.0934 68.5406 21.1152 68.5406 21.1152 68.5406H26.1465C26.1684 68.5406 26.1684 68.5187 26.1684 68.5187V50.9749C26.1684 50.9531 26.1465 50.9531 26.1465 50.9531H21.1152Z" fill="black"/>
<path d="M29.4061 68.2562H26.7373C26.4311 68.2562 26.1904 68.0156 26.1904 67.7094V51.5437C26.1904 51.2375 26.4311 50.9969 26.7373 50.9969H29.4061C30.0186 50.9969 30.5217 51.5 30.5217 52.1125V67.1406C30.5217 67.7531 30.0186 68.2562 29.4061 68.2562ZM27.2842 67.1625H29.4061C29.4279 67.1625 29.4279 67.1406 29.4279 67.1406V52.1344C29.4279 52.1125 29.4061 52.1125 29.4061 52.1125H27.2842V67.1625Z" fill="black"/>
<path d="M44.6969 67.4031L38.0469 65.6531C36.1 65.1499 34.0875 64.9968 32.0969 65.2156L30.0187 65.4343C29.7125 65.4562 29.45 65.2593 29.4062 64.9531C29.4062 64.9312 29.4062 64.9093 29.4062 64.8874V53.5781C29.4062 53.2937 29.625 53.0531 29.8875 53.0312L34.7438 52.5281C36.45 52.3531 38.2 52.5718 39.7969 53.2062C42.9031 54.4093 45.4188 55.0656 46.8844 55.0656C47.3 55.0656 47.7594 55.0656 48.1969 55.0437C50.45 54.9999 52.7688 54.9343 53.9719 56.1156C54.4969 56.6624 54.7813 57.3843 54.7375 58.1281C54.7375 58.2374 54.7375 58.3687 54.7156 58.4781L62.4812 54.8031C63.9687 54.1031 65.7625 54.7374 66.4625 56.2249C67.1187 57.5812 66.6375 59.2218 65.3687 60.0312L56.2469 65.8281C56.2469 65.8281 56.225 65.8281 56.225 65.8499C52.7688 67.8624 48.5906 68.4312 44.6969 67.4031V67.4031ZM38.3094 64.6031L44.9594 66.3531C48.5906 67.3156 52.4406 66.7906 55.7 64.9093L64.8 59.1124C65.675 58.5437 65.9375 57.3843 65.3906 56.5093C64.8875 55.6999 63.8375 55.3937 62.9844 55.8093L53.4906 60.3156C51.3688 61.7374 47.3 61.8031 46.7094 61.8031C46.4031 61.8031 46.1625 61.5624 46.1625 61.2562C46.1625 60.9499 46.4031 60.7093 46.7094 60.7093C48.0656 60.7093 51.3469 60.4468 52.8781 59.4187C52.9 59.3968 52.9219 59.3968 52.9438 59.3749C53.4031 59.0468 53.6875 58.6531 53.6875 58.1499C53.7094 57.6906 53.5562 57.2531 53.25 56.9031C52.375 56.0499 50.1875 56.0937 48.2625 56.1374C47.825 56.1374 47.3656 56.1593 46.9281 56.1593C44.8719 56.1593 41.7219 55.1093 39.4469 54.2124C38.0031 53.6437 36.4281 53.4468 34.8969 53.5999L30.5438 54.0593V64.2749L32.0094 64.1218C34.1094 63.9031 36.2531 64.0562 38.3094 64.6031V64.6031Z" fill="black"/>
<path d="M65.7836 45.375C65.7398 45.4844 65.6305 45.55 65.4992 45.5062C65.4555 45.4844 65.3898 45.4406 65.368 45.3969L64.1867 43.1C64.1211 42.9906 63.9898 42.9469 63.9023 43.0125L61.6055 44.1937C61.4961 44.2375 61.3648 44.1937 61.3211 44.0844C61.2992 44.0406 61.2992 43.975 61.2992 43.9312L63.3773 37.4781C63.2023 37.4125 63.0492 37.325 62.9398 37.2156C62.6117 36.8875 62.5898 36.2969 62.3273 35.9031C62.0648 35.5094 61.5398 35.2687 61.343 34.8312C61.168 34.3937 61.3648 33.8469 61.2773 33.3875C61.1898 32.9281 60.7961 32.5125 60.7961 32.0312C60.7961 31.55 61.1898 31.1125 61.2773 30.675C61.3648 30.2156 61.168 29.6469 61.343 29.2312C61.518 28.7937 62.0648 28.5531 62.3273 28.1594C62.4586 27.9406 62.5461 27.7219 62.6117 27.4812H32.4898C31.8992 27.4812 31.418 27.9625 31.418 28.5531V47.65C31.418 48.2406 31.8992 48.7219 32.4898 48.7219H65.893C66.4836 48.7219 66.9648 48.2406 66.9648 47.65V41.7L65.7836 45.375Z" fill="#3C5185"/>
<path d="M61.6059 44.2156C61.4965 44.2594 61.3652 44.2156 61.3215 44.1063C61.2996 44.0625 61.2996 43.9969 61.2996 43.9531L63.3777 37.5C63.2027 37.4344 63.0496 37.3469 62.9402 37.2375C62.6121 36.9094 62.5902 36.3188 62.3277 35.925C62.0652 35.5313 61.5402 35.2906 61.3434 34.8531C61.1684 34.4156 61.3652 33.8688 61.2777 33.4094C61.1902 32.95 60.7965 32.5344 60.7965 32.0531C60.7965 31.6156 61.1465 31.2 61.2559 30.7844C61.1027 30.5 60.9934 30.1938 60.9059 29.8875C60.8402 29.6906 60.6871 29.5813 60.4902 29.5813H37.959C37.7621 29.5813 37.5871 29.7125 37.5434 29.8875C37.0184 31.6375 35.6402 33.0156 33.8902 33.5406C33.6934 33.6063 33.584 33.7594 33.584 33.9563V42.1813C33.584 42.3781 33.7152 42.5531 33.8902 42.5969C35.6402 43.1219 37.0184 44.5 37.5434 46.25C37.609 46.4469 37.7621 46.5563 37.959 46.5563H60.4902C60.6871 46.5563 60.8621 46.425 60.9059 46.25C61.2121 45.2438 61.8027 44.3469 62.5902 43.6688L61.6059 44.2156Z" fill="#E9E9EA"/>
<path d="M49.1812 44.0843C52.4915 44.0843 55.175 41.4008 55.175 38.0905C55.175 34.7803 52.4915 32.0968 49.1812 32.0968C45.871 32.0968 43.1875 34.7803 43.1875 38.0905C43.1875 41.4008 45.871 44.0843 49.1812 44.0843Z" fill="#3C5185"/>
<path d="M49.9246 41.2843H47.584C47.2777 41.2843 47.0371 41.0437 47.0371 40.7374C47.0371 40.4312 47.2777 40.1905 47.584 40.1905H49.9246C50.3621 40.1905 50.6902 39.8405 50.6902 39.4249C50.6902 38.9874 50.3402 38.6593 49.9246 38.6593H48.459C47.4309 38.6593 46.5996 37.828 46.5996 36.7999C46.5996 35.7718 47.4309 34.9405 48.459 34.9405H50.5371C50.8434 34.9405 51.084 35.1812 51.084 35.4874C51.084 35.7937 50.8434 36.0343 50.5371 36.0343H48.459C48.0215 36.0343 47.6934 36.3843 47.6934 36.7999C47.6934 37.2374 48.0434 37.5655 48.459 37.5655H49.9246C50.9527 37.5655 51.784 38.3968 51.784 39.4249C51.784 40.453 50.9527 41.2843 49.9246 41.2843Z" fill="#E9E9EA"/>
<path d="M49.1807 42.1812C48.8744 42.1812 48.6338 41.9406 48.6338 41.6344V34.5469C48.6338 34.2406 48.8744 34 49.1807 34C49.4869 34 49.7275 34.2406 49.7275 34.5469V41.6344C49.7275 41.9406 49.4869 42.1812 49.1807 42.1812Z" fill="#E9E9EA"/>
<path d="M65.893 49.2468H32.4898C31.593 49.2468 30.8711 48.5249 30.8711 47.628V28.5312C30.8711 27.6343 31.593 26.9124 32.4898 26.9124H62.5898C62.8961 26.9124 63.1367 27.1531 63.1367 27.4593C63.1367 27.5249 63.1367 27.5687 63.1148 27.6343L63.093 27.7218C63.0273 27.9843 62.918 28.2249 62.7867 28.4437C62.6336 28.6624 62.4586 28.8374 62.2398 29.0124C62.0867 29.1218 61.9555 29.2531 61.8461 29.4281C61.8023 29.6031 61.8023 29.7999 61.8242 29.9749C61.8461 30.2374 61.8461 30.4999 61.8023 30.7624C61.7367 31.0249 61.6492 31.2656 61.518 31.4843C61.4086 31.6374 61.343 31.8343 61.3211 32.0093C61.343 32.2062 61.4086 32.3812 61.518 32.5343C61.6492 32.7531 61.7367 32.9937 61.8023 33.2562C61.8461 33.5187 61.8461 33.7812 61.8242 34.0437C61.8023 34.2187 61.8023 34.4155 61.8461 34.5905C61.9555 34.7437 62.0867 34.8968 62.2398 35.0062C62.6773 35.3124 62.9836 35.7718 63.093 36.2968C63.1367 36.4718 63.2242 36.6468 63.3336 36.7999C63.3992 36.8655 63.4867 36.9093 63.5961 36.953C63.8586 37.0624 64.0117 37.3468 63.9242 37.6312L62.0867 43.3405L63.6836 42.5312C64.0555 42.3343 64.5148 42.4874 64.7117 42.8593L65.5211 44.4562L66.4617 41.5249C66.5492 41.2405 66.8555 41.0874 67.1398 41.1749C67.3586 41.2405 67.5117 41.4593 67.5117 41.6999V47.6499C67.5117 48.5249 66.7898 49.2468 65.893 49.2468V49.2468ZM32.4898 28.0281C32.2055 28.0281 31.9648 28.2687 31.9648 28.5531V47.6499C31.9648 47.9343 32.2055 48.1749 32.4898 48.1749H65.893C66.1773 48.1749 66.418 47.9343 66.418 47.6499V45.1999L66.3086 45.5718C66.1773 45.9655 65.7398 46.1843 65.3461 46.0749C65.1492 46.0093 64.9961 45.878 64.9086 45.703L63.8805 43.7124L61.8898 44.7405C61.518 44.9374 61.0586 44.7843 60.8617 44.4124C60.7742 44.2374 60.7523 44.0187 60.818 43.8218L62.743 37.8062C62.6773 37.7624 62.6336 37.7187 62.568 37.653C62.3273 37.3905 62.1523 37.0624 62.0648 36.7124C62.0211 36.5593 61.9555 36.4062 61.868 36.253C61.7586 36.1218 61.6492 36.0124 61.518 35.903C61.2336 35.6843 60.993 35.3999 60.8398 35.0718C60.7305 34.7437 60.6867 34.3718 60.7523 34.0218C60.7742 33.8468 60.7742 33.6937 60.7523 33.5187C60.7086 33.3656 60.643 33.2124 60.5773 33.0812C60.3805 32.7749 60.2711 32.4249 60.2492 32.0531C60.2711 31.6812 60.3805 31.3312 60.5773 31.0249C60.6648 30.8937 60.7086 30.7406 60.7523 30.5874C60.7742 30.4124 60.7742 30.2593 60.7523 30.0843C60.7086 29.7343 60.7305 29.3624 60.8398 29.0343C60.993 28.7062 61.2336 28.4218 61.518 28.2031C61.5836 28.1374 61.6492 28.0937 61.7148 28.0281H32.4898Z" fill="#15133E"/>
<path d="M39.9494 38.6375H38.6807C38.3744 38.6375 38.1338 38.3968 38.1338 38.0906C38.1338 37.7843 38.3744 37.5437 38.6807 37.5437H39.9494C40.2557 37.5437 40.4963 37.7843 40.4963 38.0906C40.4963 38.3968 40.2338 38.6375 39.9494 38.6375Z" fill="#15133E"/>
<path d="M59.7023 38.6375H58.4336C58.1273 38.6375 57.8867 38.3968 57.8867 38.0906C57.8867 37.7843 58.1273 37.5437 58.4336 37.5437H59.7023C60.0086 37.5437 60.2492 37.7843 60.2492 38.0906C60.2492 38.3968 60.0086 38.6375 59.7023 38.6375Z" fill="black"/>
<path d="M60.4467 47.1469H37.9154C37.4779 47.1469 37.1061 46.8625 36.9748 46.4469C36.4936 44.8719 35.2686 43.625 33.6717 43.1438C33.2561 43.0125 32.9717 42.6406 32.9717 42.2031V33.9781C32.9717 33.5406 33.2561 33.1469 33.6717 33.0375C35.2467 32.5563 36.4936 31.3313 36.9748 29.7344C37.1061 29.3188 37.4779 29.0344 37.9154 29.0344H60.4467C60.8842 29.0344 61.2779 29.3188 61.3873 29.7344C61.4748 30.0188 61.5842 30.2813 61.7154 30.5219C61.7811 30.6531 61.7811 30.7844 61.7592 30.9156C61.6936 31.1125 61.6061 31.3094 61.5186 31.4844C61.4092 31.6594 61.3436 31.8344 61.3217 32.0313C61.3436 32.2281 61.4092 32.4031 61.5186 32.5563C61.6498 32.775 61.7373 33.0156 61.8029 33.2781C61.8467 33.5406 61.8467 33.8031 61.8248 34.0656C61.8029 34.2406 61.8029 34.4375 61.8467 34.6125C61.9561 34.7656 62.0873 34.9188 62.2404 35.0281C62.6779 35.3344 62.9842 35.7938 63.0936 36.3188C63.1373 36.4938 63.2248 36.6688 63.3342 36.8219C63.3998 36.8875 63.4873 36.9313 63.5967 36.975C63.8592 37.0844 64.0123 37.3688 63.9248 37.6531L62.0873 43.3625L62.3498 43.2313C62.6123 43.1 62.9404 43.2094 63.0936 43.4719C63.2029 43.6906 63.1592 43.975 62.9623 44.1281C62.2404 44.7406 61.7154 45.55 61.4529 46.4469C61.2779 46.8625 60.8842 47.1469 60.4467 47.1469ZM38.0029 46.0531H60.3811C60.5342 45.55 60.7748 45.0688 61.0592 44.6313C61.0373 44.6313 61.0373 44.6094 61.0154 44.6094C60.7748 44.4125 60.6873 44.0844 60.7748 43.8L62.6998 37.7844C62.6342 37.7406 62.5904 37.6969 62.5248 37.6313C62.2842 37.3688 62.1092 37.0406 62.0217 36.6906C61.9779 36.5375 61.9123 36.3844 61.8248 36.2313C61.7154 36.1 61.6061 35.9906 61.4748 35.8813C61.1904 35.6625 60.9498 35.3781 60.7967 35.05C60.6873 34.7219 60.6436 34.35 60.7092 34C60.7311 33.825 60.7311 33.6719 60.7092 33.4969C60.6654 33.3438 60.5998 33.1906 60.5342 33.0594C60.3373 32.7531 60.2279 32.4031 60.2061 32.0313C60.2279 31.6594 60.3373 31.3094 60.5123 31.0031C60.5561 30.9375 60.5779 30.8719 60.6217 30.8063C60.5123 30.5875 60.4248 30.3688 60.3592 30.1281H38.0029C37.4123 32.0094 35.9467 33.475 34.0873 34.0656V42.1594C35.9467 42.7281 37.4123 44.1938 38.0029 46.0531V46.0531Z" fill="#15133E"/>
<path d="M49.1812 44.6312C45.5719 44.6312 42.6406 41.6999 42.6406 38.0905C42.6406 34.4812 45.5719 31.5499 49.1812 31.5499C52.7906 31.5499 55.7219 34.4812 55.7219 38.0905C55.7219 41.6999 52.7906 44.6312 49.1812 44.6312ZM49.1812 32.6437C46.1844 32.6437 43.7344 35.0718 43.7344 38.0905C43.7344 41.0874 46.1625 43.5374 49.1812 43.5374C52.1781 43.5374 54.6281 41.1093 54.6281 38.0905C54.6281 35.0937 52.2 32.6437 49.1812 32.6437V32.6437Z" fill="#15133E"/>
<path d="M72.8496 37.5C72.5434 37.5875 72.259 37.6969 71.9746 37.85C71.5809 38.1125 71.3402 38.6375 70.9027 38.8344C70.4652 39.0094 69.9184 38.8125 69.459 38.9C69.1309 38.9656 68.8246 39.1844 68.4746 39.3156L70.4215 45.3969C70.4652 45.5062 70.5746 45.5719 70.7059 45.5281C70.7496 45.5062 70.8152 45.4625 70.8371 45.4187L72.0184 43.1219C72.084 43.0125 72.2152 42.9687 72.3027 43.0344L74.5996 44.2156C74.709 44.2594 74.8402 44.2156 74.884 44.1062C74.9059 44.0625 74.9059 43.9969 74.9059 43.9531L72.8496 37.5Z" fill="#80E9FF"/>
<path d="M66.7469 38.8781C66.2875 38.7906 65.7188 38.9875 65.3031 38.8125C64.8656 38.6375 64.625 38.0906 64.2313 37.8281C63.9469 37.675 63.6625 37.5656 63.3563 37.4781L61.2781 43.9312C61.2344 44.0406 61.3 44.1718 61.4313 44.2156C61.475 44.2375 61.5406 44.2375 61.5844 44.1937L63.8813 43.0125C63.9906 42.9687 64.1219 42.9906 64.1656 43.1L65.3469 45.3968C65.4125 45.5062 65.5438 45.55 65.6313 45.4843C65.675 45.4625 65.7188 45.4187 65.7406 45.3531L67.6875 39.2718C67.4031 39.1843 67.075 38.9437 66.7469 38.8781V38.8781Z" fill="#80E9FF"/>
<path d="M75.6562 31.8281C75.6562 32.3093 75.2625 32.7468 75.175 33.1843C75.0875 33.6437 75.2844 34.2125 75.1094 34.6281C74.9344 35.0656 74.3875 35.3062 74.125 35.7C73.8625 36.0937 73.8406 36.6843 73.5125 37.0125C73.1844 37.3406 72.5937 37.3625 72.2 37.625C71.8062 37.8875 71.5656 38.4125 71.1281 38.6093C70.6906 38.7843 70.1437 38.5875 69.6844 38.675C69.225 38.7625 68.8094 39.1562 68.3281 39.1562C67.8469 39.1562 67.4094 38.7625 66.9719 38.675C66.5125 38.5875 65.9437 38.7843 65.5281 38.6093C65.0906 38.4343 64.85 37.8875 64.4563 37.625C64.0625 37.3625 63.4719 37.3406 63.1438 37.0125C62.8156 36.6843 62.7938 36.0937 62.5312 35.7C62.2687 35.3062 61.7437 35.0656 61.5469 34.6281C61.3719 34.1906 61.5687 33.6437 61.4812 33.1843C61.3937 32.725 61 32.3093 61 31.8281C61 31.3468 61.3937 30.9093 61.4812 30.4718C61.5687 30.0125 61.3719 29.4437 61.5469 29.0281C61.7219 28.5906 62.2687 28.35 62.5312 27.9562C62.7938 27.5625 62.8156 26.9718 63.1438 26.6437C63.4719 26.3156 64.0625 26.2937 64.4563 26.0312C64.85 25.7687 65.0906 25.2437 65.5281 25.0468C65.9656 24.8718 66.5125 25.0687 66.9719 24.9812C67.4313 24.8937 67.8469 24.5 68.3281 24.5C68.8094 24.5 69.2469 24.8937 69.6844 24.9812C70.1437 25.0687 70.7125 24.8718 71.1281 25.0468C71.5656 25.2218 71.8062 25.7687 72.2 26.0312C72.5937 26.2937 73.1844 26.3156 73.5125 26.6437C73.8406 26.9718 73.8625 27.5625 74.125 27.9562C74.3875 28.35 74.9125 28.5906 75.1094 29.0281C75.2844 29.4656 75.0875 30.0125 75.175 30.4718C75.2625 30.9312 75.6562 31.3468 75.6562 31.8281Z" fill="#70D6F9"/>
<path d="M68.1027 27.3938C65.5434 27.3938 63.4434 29.4719 63.4434 32.0531C63.4434 34.6344 65.5215 36.7125 68.1027 36.7125C70.684 36.7125 72.7621 34.6344 72.7621 32.0531C72.7621 29.4719 70.684 27.3938 68.1027 27.3938Z" fill="#E9E9EA"/>
<path d="M68.1024 39.9281C67.7306 39.9063 67.3806 39.7969 67.0743 39.6C66.9431 39.5125 66.7899 39.4688 66.6368 39.425C66.4618 39.4031 66.3087 39.4031 66.1337 39.425C65.4118 39.5781 64.6681 39.2719 64.2524 38.6375C64.0774 38.3531 63.7931 38.1781 63.4649 38.1125C62.7431 37.9813 62.1743 37.4125 62.0212 36.6688C61.9774 36.5156 61.9118 36.3625 61.8243 36.2094C61.7149 36.0781 61.6056 35.9688 61.4743 35.8594C61.1899 35.6406 60.9493 35.3563 60.7962 35.0281C60.6868 34.7 60.6431 34.3281 60.7087 33.9781C60.7306 33.8031 60.7306 33.65 60.7087 33.475C60.6649 33.3219 60.5993 33.1688 60.5337 33.0375C60.3368 32.7313 60.2274 32.3813 60.2056 32.0094C60.2274 31.6375 60.3368 31.2875 60.5337 30.9813C60.6212 30.85 60.6649 30.6969 60.7087 30.5438C60.7306 30.3688 60.7306 30.2156 60.7087 30.0406C60.6649 29.6906 60.6868 29.3188 60.7962 28.9906C60.9493 28.6625 61.1899 28.3781 61.4743 28.1594C61.6056 28.05 61.7149 27.9406 61.8243 27.8094C61.9118 27.6563 61.9774 27.5031 62.0212 27.35C62.1087 27 62.2837 26.6719 62.5243 26.4094C62.7868 26.1688 63.1149 25.9938 63.4649 25.9063C63.6181 25.8625 63.7712 25.7969 63.9243 25.7094C64.0556 25.6 64.1649 25.4906 64.2743 25.3594C64.6681 24.7469 65.4337 24.4188 66.1556 24.5719C66.3306 24.5938 66.4837 24.5938 66.6587 24.5719C66.8118 24.5281 66.9649 24.4625 67.0962 24.3969C67.7087 23.9813 68.5399 23.9813 69.1524 24.3969C69.2837 24.4844 69.4368 24.5281 69.5899 24.5719C69.7649 24.5938 69.918 24.5938 70.093 24.5719C70.8149 24.4188 71.5587 24.725 71.9743 25.3594C72.0837 25.4906 72.193 25.6 72.3243 25.7094C72.4774 25.7969 72.6305 25.8625 72.7837 25.9063C73.1337 25.9938 73.4618 26.1688 73.7243 26.4094C73.9649 26.6719 74.1399 27 74.2274 27.35C74.2712 27.5031 74.3368 27.6563 74.4243 27.8094C74.5337 27.9406 74.643 28.05 74.7743 28.1594C75.0587 28.3781 75.2993 28.6625 75.4524 28.9906C75.5618 29.3188 75.6055 29.6906 75.5399 30.0406C75.518 30.2156 75.518 30.3688 75.5399 30.5438C75.5837 30.6969 75.6493 30.85 75.7149 30.9813C75.9118 31.2875 76.0212 31.6375 76.043 32.0094C76.0212 32.3813 75.9118 32.7313 75.7149 33.0375C75.6274 33.1688 75.5837 33.3219 75.5399 33.475C75.518 33.65 75.518 33.8031 75.5399 33.9781C75.5837 34.3281 75.5618 34.7 75.4524 35.0281C75.2993 35.3563 75.0587 35.6406 74.7743 35.8594C74.643 35.9688 74.5337 36.0781 74.4243 36.2094C74.3368 36.3625 74.2712 36.5156 74.2274 36.6688C74.0962 37.3906 73.5274 37.9594 72.7837 38.1125C72.4555 38.1781 72.1712 38.375 71.9962 38.6375C71.6024 39.25 70.8368 39.5781 70.1149 39.425C69.9399 39.4031 69.7868 39.4031 69.6118 39.425C69.4587 39.4688 69.3056 39.5344 69.1743 39.6C68.8243 39.7969 68.4743 39.9063 68.1024 39.9281V39.9281ZM66.4618 38.3094C66.5931 38.3094 66.7243 38.3094 66.8556 38.3531C67.1181 38.4188 67.3587 38.5063 67.5774 38.6375C67.8837 38.9 68.3431 38.9 68.6493 38.6375C68.868 38.5063 69.1087 38.4188 69.3712 38.3531C69.6337 38.3094 69.8962 38.3094 70.1587 38.3313C70.3337 38.3531 70.5305 38.3531 70.7055 38.3094C70.8587 38.2 71.0118 38.0688 71.1212 37.9156C71.4274 37.4781 71.8868 37.1719 72.4118 37.0625C72.5868 37.0188 72.7618 36.9313 72.9149 36.8219C73.0243 36.6688 73.1118 36.4938 73.1555 36.3188C73.2868 35.7938 73.593 35.3563 74.0087 35.0281C74.1618 34.9188 74.293 34.7875 74.4024 34.6125C74.4462 34.4375 74.4462 34.2406 74.4243 34.0656C74.4024 33.8031 74.4024 33.5406 74.4462 33.2781C74.5118 33.0156 74.5993 32.775 74.7305 32.5563C74.8399 32.4031 74.9055 32.2063 74.9274 32.0313C74.9055 31.8344 74.8399 31.6594 74.7305 31.5063C74.5993 31.2875 74.5118 31.0469 74.4462 30.7844C74.4024 30.5219 74.4024 30.2594 74.4243 29.9969C74.4462 29.8219 74.4462 29.625 74.4024 29.45C74.293 29.2969 74.1618 29.1438 74.0087 29.0344C73.8118 28.8813 73.6149 28.6844 73.4618 28.4656C73.3305 28.2469 73.2212 28.0063 73.1555 27.7438C73.1118 27.5688 73.0243 27.3938 72.9149 27.2406C72.7618 27.1313 72.5868 27.0438 72.4118 27C72.1493 26.9344 71.9087 26.825 71.6899 26.6938C71.4712 26.5406 71.2962 26.3656 71.1212 26.1469C71.0118 25.9938 70.8805 25.8625 70.7055 25.7531C70.5305 25.7094 70.3337 25.7094 70.1587 25.7313C69.8962 25.7531 69.6337 25.7531 69.3712 25.7094C69.1087 25.6438 68.868 25.5563 68.6493 25.425C68.3431 25.1625 67.8837 25.1625 67.5774 25.425C67.3587 25.5563 67.1181 25.6438 66.8556 25.7094C66.5931 25.7531 66.3306 25.7531 66.0681 25.7313C65.8931 25.7094 65.6962 25.7094 65.5212 25.7531C65.3681 25.8625 65.2149 25.9938 65.1056 26.1469C64.9524 26.3438 64.7556 26.5406 64.5368 26.6938C64.3181 26.825 64.0774 26.9344 63.8149 27C63.6399 27.0438 63.4649 27.1313 63.3118 27.2406C63.2024 27.3938 63.1149 27.5688 63.0712 27.7438C63.0056 28.0063 62.8962 28.2469 62.7649 28.4656C62.6118 28.6844 62.4368 28.8594 62.2181 29.0344C62.0649 29.1438 61.9337 29.275 61.8243 29.45C61.7806 29.625 61.7806 29.8219 61.8024 29.9969C61.8243 30.2594 61.8243 30.5219 61.7806 30.7844C61.7149 31.0469 61.6274 31.2875 61.4962 31.5063C61.3868 31.6594 61.3212 31.8563 61.2993 32.0313C61.3212 32.2281 61.3868 32.4031 61.4962 32.5563C61.6274 32.775 61.7149 33.0156 61.7806 33.2781C61.8243 33.5406 61.8243 33.8031 61.8024 34.0656C61.7806 34.2406 61.7806 34.4375 61.8243 34.6125C61.9337 34.7656 62.0649 34.9188 62.2181 35.0281C62.6556 35.3344 62.9618 35.7938 63.0712 36.3188C63.1149 36.4938 63.2024 36.6688 63.3118 36.8219C63.4649 36.9313 63.6399 37.0188 63.8149 37.0625C64.3399 37.1938 64.7774 37.5 65.1056 37.9156C65.2149 38.0688 65.3462 38.2 65.5212 38.3094C65.6962 38.3531 65.8931 38.3531 66.0681 38.3313C66.1993 38.3313 66.3306 38.3094 66.4618 38.3094V38.3094Z" fill="black"/>
<path d="M67.6218 33.7812C67.4687 33.7812 67.3374 33.7156 67.228 33.6281L65.7624 32.1624C65.5437 31.9437 65.5655 31.5937 65.7843 31.3968C66.003 31.1999 66.3312 31.1999 66.5499 31.3968L67.6218 32.4687L69.678 30.4124C69.8968 30.1937 70.2249 30.1937 70.4437 30.3906C70.6624 30.5874 70.6624 30.9374 70.4655 31.1562C70.4655 31.1562 70.4655 31.1562 70.4437 31.1781L67.9937 33.6281C67.9062 33.7375 67.7749 33.7812 67.6218 33.7812V33.7812Z" fill="#3C5185"/>
<path d="M70.6622 46.0749C70.6403 46.0749 70.6185 46.0749 70.5966 46.0749C70.2903 46.0531 70.0278 45.8343 69.9403 45.5499L67.9935 39.4687C67.906 39.1843 68.0591 38.8781 68.3216 38.7906C68.431 38.7468 68.5403 38.7031 68.6497 38.6374C68.8685 38.5062 69.1091 38.4187 69.3716 38.3531C69.6341 38.3093 69.8966 38.3093 70.1591 38.3312C70.3341 38.3531 70.531 38.3531 70.706 38.3093C70.8591 38.1999 71.0122 38.0687 71.1216 37.9156C71.2747 37.7187 71.4716 37.5218 71.6903 37.3687C71.9091 37.2374 72.1497 37.1281 72.4122 37.0624C72.4997 37.0406 72.5872 36.9968 72.6528 36.9749C72.9372 36.8656 73.2435 36.9968 73.3528 37.2812C73.3528 37.2812 73.3528 37.3031 73.3747 37.3031L75.4528 43.7562C75.5841 44.1499 75.3653 44.5874 74.9497 44.7187C74.7528 44.7843 74.556 44.7624 74.3591 44.6749L72.3685 43.6468L71.3403 45.6374C71.2091 45.9218 70.9466 46.0749 70.6622 46.0749V46.0749ZM69.1747 39.5999L70.7278 44.4781L71.5372 42.8812C71.7341 42.5093 72.1935 42.3562 72.5653 42.5531L74.1622 43.3624L72.4997 38.1999C72.4341 38.2218 72.3466 38.2656 72.281 38.3093C72.1497 38.4187 72.0403 38.5281 71.931 38.6593C71.5372 39.2718 70.7716 39.5999 70.0497 39.4468C69.8747 39.4249 69.7216 39.4249 69.5466 39.4468C69.4372 39.4687 69.306 39.5124 69.1747 39.5999V39.5999Z" fill="black"/>
<path d="M65.5652 46.075C65.2808 46.075 65.0183 45.9218 64.8871 45.6593L63.859 43.6687L61.8683 44.6968C61.4965 44.8937 61.0371 44.7406 60.8402 44.3687C60.7527 44.1937 60.7308 43.9749 60.7965 43.7781L62.8746 37.3249C62.9621 37.0406 63.2683 36.8874 63.5527 36.9749H63.5746C63.6621 36.9968 63.7496 37.0406 63.8152 37.0624C64.3402 37.1937 64.7777 37.4999 65.1058 37.9156C65.2152 38.0687 65.3465 38.1999 65.5215 38.3093C65.6965 38.3531 65.8933 38.3531 66.0683 38.3312C66.3308 38.3093 66.5933 38.3093 66.8558 38.3531C67.1183 38.4187 67.359 38.5062 67.5777 38.6374C67.6871 38.7031 67.7965 38.7468 67.9058 38.7906C68.1902 38.8999 68.3215 39.1843 68.234 39.4687L66.2871 45.55C66.1996 45.8343 65.9371 46.0531 65.6308 46.075C65.609 46.075 65.5871 46.075 65.5652 46.075V46.075ZM63.9902 42.4656C64.2746 42.4656 64.5371 42.6187 64.6683 42.8812L65.4777 44.4781L67.0308 39.5999C66.8996 39.5343 66.7683 39.4687 66.6152 39.4249C66.4402 39.4031 66.2871 39.4031 66.1121 39.4249C65.3902 39.5781 64.6465 39.2718 64.2308 38.6374C64.1215 38.5062 64.0121 38.3968 63.8808 38.2874C63.8152 38.2437 63.7496 38.2218 63.6621 38.1781L61.9996 43.3406L63.5965 42.5312C63.7496 42.4874 63.8808 42.4656 63.9902 42.4656V42.4656Z" fill="black"/>
<path d="M68.1027 37.2375C65.2371 37.2375 62.8965 34.9187 62.8965 32.0312C62.8965 29.1656 65.2152 26.825 68.1027 26.825C70.9684 26.825 73.309 29.1437 73.309 32.0312C73.309 34.9187 70.9902 37.2375 68.1027 37.2375ZM68.1027 27.9406C65.8277 27.9406 63.9902 29.7781 63.9902 32.0531C63.9902 34.3281 65.8277 36.1656 68.1027 36.1656C70.3777 36.1656 72.2152 34.3281 72.2152 32.0531C72.2152 29.7781 70.3777 27.9406 68.1027 27.9406Z" fill="black"/>
</g>
<defs>
<clipPath id="clip0">
<rect width="56" height="56" fill="white" transform="translate(20 16.5)"/>
</clipPath>
</defs>
</svg>
