<svg width="16" height="16" viewBox="0 0 16 16" fill="none" xmlns="http://www.w3.org/2000/svg">
<mask id="mask0" mask-type="alpha" maskUnits="userSpaceOnUse" x="0" y="0" width="16" height="16">
<path fill-rule="evenodd" clip-rule="evenodd" d="M0 0.0245361H15.9733V16H0V0.0245361Z" fill="white"/>
</mask>
<g mask="url(#mask0)">
<path fill-rule="evenodd" clip-rule="evenodd" d="M15.0878 10.6374C15.0841 11.19 14.7107 11.5559 14.1578 11.5604C13.9432 11.5626 13.7281 11.5517 13.514 11.5641C13.3594 11.5729 13.3035 11.5375 13.3069 11.3667C13.3194 10.7641 13.3118 10.1616 13.3118 9.55904C13.3114 8.94942 13.3153 8.3398 13.309 7.73061C13.3077 7.60564 13.336 7.56012 13.4685 7.56693C13.6965 7.5785 13.9257 7.56726 14.154 7.57061C14.7049 7.57893 15.0833 7.94942 15.0878 8.49731C15.0937 9.21072 15.0933 9.92401 15.0878 10.6374ZM8.61247 15.1161C8.40491 15.1177 8.19745 15.1166 7.98988 15.1166C7.78242 15.1166 7.57528 15.1177 7.36772 15.1161C7.21809 15.1148 7.10772 15.0602 7.10847 14.8899C7.10891 14.7199 7.21442 14.6668 7.36815 14.6677C7.78318 14.6694 8.19788 14.6694 8.6128 14.6673C8.7661 14.6668 8.87161 14.7199 8.87204 14.8903C8.87247 15.0611 8.76155 15.1148 8.61247 15.1161ZM2.66912 7.72726C2.66869 8.34358 2.66869 8.96023 2.66869 9.57655C2.66869 10.1862 2.66447 10.7958 2.67193 11.4051C2.67366 11.535 2.63874 11.5696 2.51118 11.5638C2.27615 11.5534 2.04037 11.5638 1.80491 11.5604C1.28393 11.5534 0.903176 11.1983 0.894419 10.6821C0.882311 9.9412 0.8835 9.19991 0.894419 8.45861C0.901879 7.96974 1.25572 7.60563 1.74026 7.57515C2.00945 7.55861 2.28069 7.5772 2.55031 7.56758C2.68664 7.56272 2.66912 7.64401 2.66912 7.72726ZM15.9721 8.4999C15.9696 7.53893 15.2967 6.78726 14.3462 6.69547C14.2137 6.68261 14.1894 6.64174 14.1928 6.52261C14.207 6.00218 14.1861 5.48336 14.0632 4.97461C13.467 2.50272 11.9564 0.863473 9.49377 0.240121C7.05896 -0.375771 4.96004 0.342283 3.29128 2.21072C2.21237 3.41785 1.73939 4.86996 1.78782 6.48845C1.79193 6.62845 1.7702 6.68304 1.60653 6.69882C0.733987 6.7838 0.0326895 7.51018 0.0135543 8.36185C-0.00482405 9.16488 -0.00406729 9.96909 0.0131219 10.7724C0.030203 11.5962 0.702311 12.323 1.51939 12.4279C2.00901 12.4905 2.50199 12.4467 2.99366 12.4543C3.37626 12.46 3.55204 12.28 3.55204 11.8993C3.55291 11.0541 3.55247 10.2087 3.55247 9.36369C3.55204 8.63645 3.5541 7.90899 3.55118 7.18142C3.54999 6.87634 3.36285 6.69223 3.06037 6.68726C2.97712 6.68553 2.8928 6.67893 2.81118 6.68888C2.68696 6.7038 2.66664 6.6492 2.6662 6.53763C2.66404 6.12142 2.68415 5.70791 2.75237 5.29634C3.20253 2.57904 5.90599 0.585202 8.63615 0.960121C11.3864 1.33774 13.3149 3.54282 13.3114 6.30672C13.311 6.67969 13.311 6.67969 12.9227 6.68682C12.6172 6.69266 12.4298 6.87385 12.4293 7.17936C12.4273 8.77277 12.4273 10.3657 12.4293 11.9593C12.4298 12.2597 12.6194 12.446 12.9223 12.455C13.0315 12.4585 13.141 12.4555 13.2736 12.4555C13.0298 13.491 12.448 14.1951 11.4564 14.5427C10.9325 14.7261 10.3875 14.6544 9.84955 14.6694C9.76199 14.6719 9.75626 14.6148 9.73453 14.5541C9.55993 14.0669 9.18372 13.794 8.66664 13.7868C8.21647 13.7806 7.7661 13.7797 7.31561 13.7868C6.68437 13.7964 6.20761 14.2814 6.21301 14.8973C6.21896 15.5161 6.69939 15.9928 7.32934 15.9983C7.75864 16.002 8.18826 15.9961 8.61777 16C8.93236 16.0028 9.20491 15.8966 9.4221 15.6754C9.51993 15.5758 9.61874 15.5503 9.74999 15.5491C10.2138 15.5456 10.6808 15.5941 11.1405 15.519C12.6982 15.2649 13.8023 14.1994 14.1186 12.6522C14.1478 12.5084 14.1906 12.4576 14.3445 12.4406C15.3241 12.3322 15.9713 11.6009 15.9726 10.6196C15.9732 9.91288 15.9741 9.20617 15.9721 8.4999Z" fill="white"/>
</g>
<path fill-rule="evenodd" clip-rule="evenodd" d="M10.162 9.89368C9.64425 10.7109 8.9611 11.1106 8.13664 11.1333C7.31542 11.1096 6.64355 10.7179 6.12625 9.9263C5.99225 9.72119 5.95674 9.49077 6.05951 9.25134C6.14515 9.0508 6.29732 8.99535 6.4685 9.00905C6.59571 9.01909 6.69754 9.09294 6.77201 9.22185C7.41244 10.3303 8.8271 10.3468 9.49166 9.23582C9.64749 8.97538 9.93168 8.92815 10.1128 9.10664C10.2928 9.28409 10.3222 9.64108 10.162 9.89368Z" fill="white"/>
</svg>
