<svg width="30" height="30" viewBox="0 0 30 30" fill="none" xmlns="http://www.w3.org/2000/svg">
<path d="M26.205 3.97587H23.6748V1.4458C23.6749 0.650565 23.0242 0 22.2294 0H3.79535C3.00017 0 2.34961 0.650565 2.34961 1.4458V24.5783C2.34961 25.3734 3.00017 26.0241 3.79541 26.0241H6.32554V28.5542C6.32554 29.3494 6.97581 30 7.77134 30H20.0601C20.8549 30 21.9798 29.554 22.5584 29.0093L26.5972 25.2076C27.1766 24.6629 27.6501 23.5663 27.6501 22.7711L27.6508 5.42179C27.6508 4.62649 27.0001 3.97587 26.205 3.97587ZM6.32542 5.42173V24.9397H3.79535C3.59947 24.9397 3.43394 24.7742 3.43394 24.5783V1.4458C3.43394 1.24992 3.59947 1.08439 3.79535 1.08439H22.2294C22.425 1.08439 22.5908 1.24992 22.5908 1.4458V3.97593H7.77122C6.9757 3.97593 6.32542 4.62649 6.32542 5.42173ZM25.854 24.4181L21.8152 28.2195C21.7325 28.2973 21.6248 28.3735 21.5058 28.4461V25.1204C21.5058 24.8721 21.6059 24.6487 21.7711 24.4825C21.9378 24.3173 22.1611 24.2169 22.4094 24.2169H26.0257C25.9696 24.293 25.9122 24.3632 25.854 24.4181Z" fill="#374C82"/>
<path d="M22.2291 9.03613H11.7472C11.4476 9.03613 11.2051 9.27865 11.2051 9.5783C11.2051 9.87795 11.4477 10.1205 11.7472 10.1205H22.2291C22.5284 10.1205 22.7713 9.87795 22.7713 9.5783C22.7713 9.27865 22.5284 9.03613 22.2291 9.03613Z" fill="white"/>
<path d="M22.2291 16.2646H11.7472C11.4476 16.2646 11.2051 16.5072 11.2051 16.8068C11.2051 17.1065 11.4477 17.349 11.7472 17.349H22.2291C22.5284 17.349 22.7713 17.1065 22.7713 16.8068C22.7713 16.5071 22.5284 16.2646 22.2291 16.2646Z" fill="white"/>
<path d="M17.5303 19.8799H11.7472C11.4476 19.8799 11.2051 20.1224 11.2051 20.422C11.2051 20.7217 11.4476 20.9642 11.7472 20.9642H17.5303C17.8296 20.9642 18.0721 20.7217 18.0721 20.422C18.0721 20.1224 17.8296 19.8799 17.5303 19.8799Z" fill="white"/>
<path d="M22.2291 12.6504H11.7472C11.4476 12.6504 11.2051 12.8929 11.2051 13.1926C11.2051 13.4922 11.4477 13.7347 11.7472 13.7347H22.2291C22.5284 13.7347 22.7713 13.4922 22.7713 13.1926C22.7713 12.8929 22.5284 12.6504 22.2291 12.6504Z" fill="white"/>
</svg>
