<svg width="19" height="17" viewBox="0 0 19 17" fill="none" xmlns="http://www.w3.org/2000/svg">
<g clip-path="url(#clip0)">
<path d="M18.5957 2.88454C17.9564 3.18007 17.2693 3.37846 16.5486 3.4694C17.2852 3.0106 17.8492 2.28315 18.1152 1.41722C17.4262 1.84294 16.6618 2.15087 15.8516 2.31828C15.2024 1.59701 14.2751 1.14648 13.2505 1.14648C11.2808 1.14648 9.68436 2.806 9.68436 4.85612C9.68436 5.14752 9.71613 5.43064 9.7757 5.70138C6.81317 5.54638 4.18622 4.07079 2.42896 1.82435C2.12318 2.372 1.94646 3.0106 1.94646 3.69053C1.94646 4.97805 2.57589 6.11264 3.53097 6.77811C2.9472 6.7595 2.39719 6.59211 1.91667 6.31311V6.36064C1.91667 8.15863 3.14576 9.65695 4.77594 9.99795C4.4781 10.0827 4.16239 10.1281 3.83675 10.1281C3.60642 10.1281 3.38404 10.1054 3.1676 10.062C3.62032 11.5355 4.93677 12.6081 6.49547 12.6392C5.27632 13.6332 3.74145 14.2263 2.06956 14.2263C1.78166 14.2263 1.49969 14.2098 1.21973 14.1746C2.79828 15.2266 4.67071 15.8403 6.68411 15.8403C13.2406 15.8403 16.8266 10.1881 16.8266 5.28598C16.8266 5.12478 16.8226 4.96565 16.8167 4.80652C17.5136 4.28159 18.1192 3.62853 18.5957 2.88454Z" fill="white"/>
</g>
<defs>
<clipPath id="clip0">
<rect width="18.6667" height="16" fill="white" transform="translate(0.161133 0.494141)"/>
</clipPath>
</defs>
</svg>
