<svg xmlns="http://www.w3.org/2000/svg" xmlns:xlink="http://www.w3.org/1999/xlink" viewBox="0 0 280.36 288.77"><defs><style>.cls-1{fill:#3c5185;}.cls-2{opacity:0.25;fill:url(#linear-gradient);}.cls-3{font-size:29.07px;}.cls-3,.cls-4{fill:#d9d3e9;font-family:Catamaran-ExtraBold, Catamaran;}.cls-3,.cls-4,.cls-6{font-weight:800;}.cls-4{font-size:28.68px;}.cls-5{fill:#ffd14b;}.cls-6{font-size:69.46px;font-family:Catamaran-Black, Catamaran;}.cls-6,.cls-7{fill:#fff;}.cls-7{font-size:56.36px;font-family:Catamaran-SemiBold, Catamaran;font-weight:600;}</style><linearGradient id="linear-gradient" x1="36.85" y1="169.33" x2="275.7" y2="169.33" gradientUnits="userSpaceOnUse"><stop offset="0" stop-color="#5b5da9"/><stop offset="1" stop-color="#859dcb"/></linearGradient></defs><g id="Layer_2" data-name="Layer 2"><g id="Layer_1-2" data-name="Layer 1"><path class="cls-1" d="M261.89,202.41l-3.31,1.52a23.66,23.66,0,0,0-13.68,24l.38,3.63a23.67,23.67,0,0,1-25.75,26l-3.64-.35a23.68,23.68,0,0,0-23.82,13.92l-1.49,3.33a23.66,23.66,0,0,1-35.3,9.65l-3-2.11a23.67,23.67,0,0,0-27.59.14l-2.95,2.14A23.68,23.68,0,0,1,86.35,275l-1.52-3.31a23.65,23.65,0,0,0-24-13.68l-3.63.38a23.67,23.67,0,0,1-26.1-24.26c0-.49,0-1,.09-1.49l.34-3.64a23.67,23.67,0,0,0-13.91-23.82l-3.33-1.49a23.65,23.65,0,0,1-9.65-35.3l2.11-3a23.67,23.67,0,0,0-.14-27.59l-2.14-2.95a23.66,23.66,0,0,1,9.29-35.4l3.32-1.53a23.66,23.66,0,0,0,13.67-24l-.37-3.63a23.67,23.67,0,0,1,25.75-26l3.63.34A23.68,23.68,0,0,0,83.63,30.73l1.48-3.33a23.66,23.66,0,0,1,35.31-9.65l3,2.11A23.65,23.65,0,0,0,151,19.72l3-2.14a23.66,23.66,0,0,1,35.4,9.29l1.52,3.32a23.68,23.68,0,0,0,24,13.68l3.63-.38a22.73,22.73,0,0,1,3.39-.11,23.68,23.68,0,0,1,22.63,25.86l-.35,3.63A23.68,23.68,0,0,0,258,96.7l3.33,1.48A23.67,23.67,0,0,1,271,133.49l-2.11,3a23.65,23.65,0,0,0,.14,27.58l2.14,3A23.66,23.66,0,0,1,261.89,202.41Z"/><path class="cls-2" d="M261.89,202.41l-3.31,1.52a23.66,23.66,0,0,0-13.68,24l.38,3.63a23.67,23.67,0,0,1-25.75,26l-3.64-.35a23.68,23.68,0,0,0-23.82,13.92l-1.49,3.33a23.66,23.66,0,0,1-35.3,9.65l-3-2.11a23.67,23.67,0,0,0-27.59.14l-2.95,2.14A23.68,23.68,0,0,1,86.35,275l-1.52-3.31a23.65,23.65,0,0,0-24-13.68l-3.63.38a23.59,23.59,0,0,1-20.39-8.11L237.21,49.88a23.56,23.56,0,0,1,7.26,19.36l-.35,3.63A23.68,23.68,0,0,0,258,96.7l3.33,1.48A23.67,23.67,0,0,1,271,133.49l-2.11,3a23.65,23.65,0,0,0,.14,27.58l2.14,3A23.66,23.66,0,0,1,261.89,202.41Z"/><text class="cls-3" transform="matrix(0.56, -0.83, 0.83, 0.56, 63.12, 110.14)">F</text><text class="cls-3" transform="matrix(0.71, -0.71, 0.71, 0.71, 71.07, 97.78)">R</text><text class="cls-3" transform="translate(84.27 84.64) rotate(-33.13)">E</text><text class="cls-3" transform="translate(97.87 75.67) rotate(-22.14)">E</text><text class="cls-3" transform="matrix(0.97, -0.25, 0.25, 0.97, 113.28, 69.73)"> </text><text class="cls-3" transform="translate(118.73 67.67) rotate(-5.83)">U</text><text class="cls-3" transform="translate(138.87 65.66) rotate(6.82)">P</text><text class="cls-3" transform="translate(156.13 67.48) rotate(19.41)">D</text><text class="cls-3" transform="translate(174.73 74.05) rotate(31.92)">A</text><text class="cls-3" transform="translate(190.82 84.18) rotate(44.3)">T</text><text class="cls-3" transform="matrix(0.57, 0.82, -0.82, 0.57, 202.83, 95.8)">E</text><text class="cls-3" transform="matrix(0.45, 0.89, -0.89, 0.45, 211.93, 109.59)"> </text><text class="cls-3" transform="translate(214.7 115.03) rotate(67.19)"> </text><text class="cls-3" transform="translate(217.08 120.66) rotate(71.31)"> </text><text class="cls-3" transform="translate(219.05 126.45) rotate(75.42)"> </text><text class="cls-3" transform="translate(220.6 132.35) rotate(79.52)"> </text><text class="cls-3" transform="translate(221.72 138.35) rotate(83.62)"> </text><text class="cls-3" transform="matrix(0.04, 1, -1, 0.04, 222.41, 144.43)"> </text><text class="cls-3" transform="matrix(-0.03, 1, -1, -0.03, 222.67, 150.55)"> </text><text class="cls-3" transform="translate(222.48 156.64) rotate(95.99)"> </text><text class="cls-4" transform="matrix(0.49, 0.87, -0.87, 0.49, 37.32, 197.29)"> </text><text class="cls-4" transform="matrix(0.6, 0.8, -0.8, 0.6, 40.94, 204.47)">A</text><text class="cls-4" transform="matrix(0.75, 0.66, -0.66, 0.75, 54.41, 222.22)">N</text><text class="cls-4" transform="matrix(0.88, 0.48, -0.48, 0.88, 73.06, 238.07)">D</text><text class="cls-4" transform="translate(92.76 248.24) rotate(20.97)"> </text><text class="cls-4" transform="translate(99.94 251.19) rotate(14.54)">S</text><text class="cls-4" transform="translate(117.12 255.68) rotate(3.85)">U</text><text class="cls-4" transform="translate(140.46 256.87) rotate(-7.41)">P</text><text class="cls-4" transform="translate(160.66 254.03) rotate(-18.05)">P</text><text class="cls-4" transform="matrix(0.87, -0.5, 0.5, 0.87, 180.24, 247.56)">O</text><text class="cls-4" transform="translate(200.97 235.28) rotate(-41.62)">R</text><text class="cls-4" transform="matrix(0.61, -0.79, 0.79, 0.61, 216.91, 220.71)">T</text><path class="cls-5" d="M36.85,138.05l3.35,9.62,10.19.21L42.27,154l2.95,9.75L36.85,158l-8.36,5.82,3-9.75-8.12-6.16,10.19-.21Z"/><path class="cls-5" d="M234.09,138.05l3.34,9.62,10.19.21L239.5,154l2.95,9.75L234.09,158l-8.37,5.82,2.95-9.75-8.12-6.16,10.19-.21Z"/><text class="cls-6" transform="translate(118.72 141.76) scale(0.84 1)">1 </text><text class="cls-7" transform="translate(82.85 189.01)">Year</text></g></g></svg>